STARTFONT 2.1
COMMENT
COMMENT Converted from OpenType font "Q:\font stuff\winfont\CD-Icons.ttf" by "otf2bdf 3.0".
COMMENT
FONT -FreeType-CD Icons-Medium-R-Normal--96-960-72-72-P-600-ISO10646-1
SIZE 96 72 72
FONTBOUNDINGBOX 106 105 0 0
STARTPROPERTIES 19
FOUNDRY "FreeType"
FAMILY_NAME "CD Icons"
WEIGHT_NAME "Medium"
SLANT "R"
SETWIDTH_NAME "Normal"
ADD_STYLE_NAME ""
PIXEL_SIZE 96
POINT_SIZE 960
RESOLUTION_X 72
RESOLUTION_Y 72
SPACING "P"
AVERAGE_WIDTH 600
CHARSET_REGISTRY "ISO10646"
CHARSET_ENCODING "1"
FONT_ASCENT 105
FONT_DESCENT 0
COPYRIGHT "Copyright (c) Pixietype, 2003. All rights reserved."
_OTF_FONTFILE "Q:\font stuff\winfont\CD-Icons.ttf"
_OTF_PSNAME "CD-Icons"
ENDPROPERTIES
CHARS 208
STARTCHAR 0020
ENCODING 32
SWIDTH 500 0
DWIDTH 48 0
BBX 0 0 0 0
BITMAP
ENDCHAR
STARTCHAR 0021
ENCODING 33
SWIDTH 447 0
DWIDTH 43 0
BBX 29 58 0 0
BITMAP
003FE000
003FE000
003FE000
003FE000
003FE000
003FE000
003FE000
003FE000
003FE000
003FE000
003FE000
003FE000
003FE000
003FE000
003FE000
00000000
00000000
00000000
00000000
00000000
FFFFFFF8
FFFFFFF8
FFFFFFF8
FFFFFFF8
F83FE0F8
F83FE0F8
F83FE0F8
F83FE0F8
F83FE0F8
F83FE0F8
F83FE0F8
F83FE0F8
F83FE0F8
F83FE0F8
F83FE0F8
F83FE0F8
F83FE0F8
F83FE0F8
F83FE0F8
003FE000
003FE000
003FE000
003FE000
003FE000
003FE000
003FE000
003FE000
003FE000
003FE000
003FE000
003FE000
003FE000
003FE000
003FE000
003FE000
003FE000
003FE000
003FE000
ENDCHAR
STARTCHAR 0022
ENCODING 34
SWIDTH 895 0
DWIDTH 86 0
BBX 72 67 0 4
BITMAP
FFFFFFFFFFFFFFFFFF
FFFFFFFFFFFFFFFFFF
FFFFFFFFFFFFFFFFFF
FFFFFFFFFFFFFFFFFF
FFFFFFFFFFFFFFFFFF
FFC00000000000001F
FFC00000000000001F
FFC00000000000001F
FFC00000000000001F
FFC00007FFFF00001F
FFC00007FFFF00001F
FFC00007FFFF00001F
FFC00007FFFF00001F
FFC00007FFFF00001F
FFC01FF80000FFC01F
FFC01FF80000FFC01F
FFC01FF80000FFC01F
FFC01FF80000FFC01F
FFC01FF80000FFC01F
FFC01F00000007C01F
FFC01F00000007C01F
FFC01F00000007C01F
FFC01F00000007C01F
FFC01F00000007C01F
FFC3E0007FE0007E1F
FFC3E0007FE0007E1F
FFC3E0007FE0007E1F
FFC3E0007FE0007E1F
FFC3E0007FE0007E1F
FFC3E007C01F007E1F
FFC3E007C01F007E1F
FFC3E007C01F007E1F
FFC3E007C01F007E1F
FFC3E007C01F007E1F
FFC3E007C01F007E1F
FFC3E007C01F007E1F
FFC3E007C01F007E1F
FFC3E007C01F007E1F
FFC3E007FFE0007E1F
FFC3E0007FE0007E1F
FFC3E0007FE0007E1F
FFC3E0007FE0007E1F
FFC3E0007FE0007E1F
FFC01F00000007C01F
FFC01F00000007C01F
FFC01F00000007C01F
FFC01F00000007C01F
FFC01F00000007C01F
FFC01FF80000FFC01F
FFC01FF80000FFC01F
FFC01FF80000FFC01F
FFC01FF80000FFC01F
FFC01FF80000FFC01F
FFC00007FFFF00001F
FFC00007FFFF00001F
FFC00007FFFF00001F
FFC00007FFFF00001F
FFC00007FFFF00001F
FFC00000000000001F
FFC00000000000001F
FFC00000000000001F
FFC00000000000001F
FFFFFFFFFFFFFFFFFF
FFFFFFFFFFFFFFFFFF
FFFFFFFFFFFFFFFFFF
FFFFFFFFFFFFFFFFFF
FFFFFFFFFFFFFFFFFF
ENDCHAR
STARTCHAR 0023
ENCODING 35
SWIDTH 895 0
DWIDTH 86 0
BBX 72 57 0 5
BITMAP
0003FFFFFFE0000000
0003FFFFFFE0000000
0003FFFFFFE0000000
0003FFFFFFE0000000
FFFFFFFFC0000003E0
FFFFFFFFC0000003E0
FFFFFFFFC0000003E0
FFFFFFFFC0000003E0
FFFFFFFFC0000003E0
FFFFFFF800000003FF
FFFFFFF800000003FF
FFFFFFF800000003FF
FFFFFFF800000003FF
FFFFFFF800000003FF
003FFFFFC0000003FF
003FFFFFC0000003FF
003FFFFFC0000003FF
003FFFFFC0000003FF
003FFFFFC0000003FF
FFFFFFFFFFFFFFFFFF
FFFFFFFFFFFFFFFFFF
FFFFFFFFFFFFFFFFFF
FFFFFFFFFFFFFFFFFF
FFFFFFFFFFFFFFFFFF
F803FFFFFFFFFFFFFF
F803FFFFFFFFFFFFFF
F803FFFFFFFFFFFFFF
F803FFFFFFFFFFFFFF
0003FFFFFFFFFFFFFF
0003FFFFFFFFFFFFFF
0003FFFFFFFFFFFFFF
0003FFFFFFFFFFFFFF
0003FFFFFFFFFFFFFF
FFFFFFFFFFFFFFFFFF
FFFFFFFFFFFFFFFFFF
FFFFFFFFFFFFFFFFFF
FFFFFFFFFFFFFFFFFF
FFFFFFFFFFFFFFFFFF
FFFFFFFFFC00FFFFE0
FFFFFFFFFC00FFFFE0
FFFFFFFFFC00FFFFE0
FFFFFFFFFC00FFFFE0
FFFFFFFFFC00FFFFE0
FFC00000000007FFFF
FFC00000000007FFFF
FFC00000000007FFFF
FFC00000000007FFFF
FFC00000000007FFFF
07C0000000000003FF
07C0000000000003FF
07C0000000000003FF
07C0000000000003FF
00000000000000001F
00000000000000001F
00000000000000001F
00000000000000001F
00000000000000001F
ENDCHAR
STARTCHAR 0024
ENCODING 36
SWIDTH 895 0
DWIDTH 86 0
BBX 72 77 0 0
BITMAP
0000000000000003FF
0000000000000003FF
0000000000000003FF
0000000000000003FF
0000000000000003FF
0000000000000003E0
0000000000000003E0
0000000000000003E0
0000000000000003E0
0000000000000003E0
0000000000000003FF
0000000000000003FF
0000000000000003FF
0000000000000003FF
0003FFFFFFE00003FF
0003FFFFFFE00003E0
0003FFFFFFE00003E0
0003FFFFFFE00003E0
0003FFFFFFE00003E0
FFFFFFFFC0000003FF
FFFFFFFFC0000003FF
FFFFFFFFC0000003FF
FFFFFFFFC0000003FF
FFFFFFFFC0000003FF
FFFFFFF800000003E0
FFFFFFF800000003E0
FFFFFFF800000003E0
FFFFFFF800000003E0
FFFFFFF800000003E0
007FFFFFC000007FFF
007FFFFFC000007FFF
007FFFFFC000007FFF
007FFFFFC000007FFF
007FFFFFC000007FFF
FFFFFFFFFFFFFFFFFF
FFFFFFFFFFFFFFFFFF
FFFFFFFFFFFFFFFFFF
FFFFFFFFFFFFFFFFFF
FFFFFFFFFFFFFFFFFF
F803FFFFFFFFFFFFFF
F803FFFFFFFFFFFFFF
F803FFFFFFFFFFFFFF
F803FFFFFFFFFFFFFF
F803FFFFFFFFFFFFFF
0003FFFFFFFFFFFFFF
0003FFFFFFFFFFFFFF
0003FFFFFFFFFFFFFF
0003FFFFFFFFFFFFFF
0003FFFFFFFFFFFFE0
0003FFFFFFFFFFFFE0
0003FFFFFFFFFFFFE0
0003FFFFFFFFFFFFE0
0003FFFFFFFFFFFFE0
00001FFFFFE0FFFE00
00001FFFFFE0FFFE00
00001FFFFFE0FFFE00
00001FFFFFE0FFFE00
00001FFFFFE0FFFE00
000000FFFE1FFFC000
000000FFFE1FFFC000
000000FFFE1FFFC000
000000FFFE1FFFC000
000000FFFE1FFFC000
00000007FFFFF80000
00000007FFFFF80000
00000007FFFFF80000
00000007FFFFF80000
00000007FFE0000000
000000007FE0000000
000000007FE0000000
000000007FE0000000
000000007FE0000000
000000007FE0000000
000000007FE0000000
000000007FE0000000
000000007FE0000000
000000007FE0000000
ENDCHAR
STARTCHAR 0025
ENCODING 37
SWIDTH 895 0
DWIDTH 86 0
BBX 72 77 0 0
BITMAP
0000000003FFFFFE00
0000000003FFFFFE00
0000000003FFFFFE00
0000000003FFFFFE00
0000000003FFFFFE00
000000FFFE000003E0
000000FFFE000003E0
000000FFFE000003E0
000000FFFE000003E0
000000FFFE000003E0
007FFF000000FFC01F
007FFF000000FFC01F
007FFF000000FFC01F
007FFF000000FFC01F
007FFFF80000FFC01F
07C000F8001FFFC01F
07C000F8001FFFC01F
07C000F8001FFFC01F
07C000F8001FFFC01F
F80000FFC01FF8001F
F8000007C01FF8001F
F8000007C01FF8001F
F8000007C01FF8001F
F8000007C01FF8001F
F80000007E1F00001F
F80000007E1F00001F
F80000007E1F00001F
F80000007E1F00001F
F80000007E1F00001F
F80000007E1F00001F
F80000007E1F00001F
F80000007E1F00001F
F80000007E1F00001F
F80000007E1F00001F
F80000007E1F00001F
F80000007E1F00001F
F80000007E1F00001F
F80000007E1F00001F
F80000007E1F00001F
F80000007E1F00001F
F80000007E1F00001F
F80000007E1F00001F
F80000007E1F00001F
F80000007E1F0003E0
F80000007E1F0003E0
F80000007E1F0003E0
F80000007E1F0003E0
F80000007E1F0003E0
F80000007E00007E00
F80000007E00007E00
F80000007E00007E00
F80000007E00007E00
F80000007E00007E00
F80000007E0007C000
F80000007E0007C000
F80000007E0007C000
F80000007E0007C000
F80000007E0007C000
FFC000007E00F80000
FFC000007E00F80000
FFC000007E00F80000
FFC000007E00F80000
FFFFE0007E00F80000
007FE0007E1F000000
007FE0007E1F000000
007FE0007E1F000000
007FE0007E1F000000
007FFFF87FE0000000
00001FF87FE0000000
00001FF87FE0000000
00001FF87FE0000000
00001FF87FE0000000
00000007FE00000000
00000007FE00000000
00000007FE00000000
00000007FE00000000
00000007FE00000000
ENDCHAR
STARTCHAR 0026
ENCODING 38
SWIDTH 697 0
DWIDTH 67 0
BBX 53 52 0 10
BITMAP
007FFFFFFFFFF8
007FFFFFFFFFF8
007FFFFFFFFFF8
007FFFFFFFFFF8
007E00000000F8
007E00000000F8
007E00000000F8
007E00000000F8
007E00000000F8
F87E1FFFC3E0F8
F87E1FFFC3E0F8
F87E1FFFC3E0F8
F87E1FFFC3E0F8
F87E1FFFC3E0F8
FFC01F07C000F8
FFC01F07C000F8
FFC01F07C000F8
FFC01F07C000F8
FFC01F07C000F8
FFFE1FFFC3E0F8
FFFE1FFFC3E0F8
FFFE1FFFC3E0F8
FFFE1FFFC3E0F8
FFFE1FFFC3E0F8
FFFFE0000000F8
FFFFE0000000F8
FFFFE0000000F8
FFFFE0000000F8
FFFE1FFFFFE0F8
FFFE1FFFFFE0F8
FFFE1FFFFFE0F8
FFFE1FFFFFE0F8
FFFE1FFFFFE0F8
FFC000000000F8
FFC000000000F8
FFC000000000F8
FFC000000000F8
FFC000000000F8
F87E1FFFFFE0F8
F87E1FFFFFE0F8
F87E1FFFFFE0F8
F87E1FFFFFE0F8
F87E1FFFFFE0F8
007E00000000F8
007E00000000F8
007E00000000F8
007E00000000F8
007E00000000F8
007FFFFFFFFFF8
007FFFFFFFFFF8
007FFFFFFFFFF8
007FFFFFFFFFF8
ENDCHAR
STARTCHAR 0027
ENCODING 39
SWIDTH 447 0
DWIDTH 43 0
BBX 29 52 0 10
BITMAP
000000F8
000000F8
000000F8
000000F8
00001FF8
00001FF8
00001FF8
00001FF8
00001FF8
0003E0F8
0003E0F8
0003E0F8
0003E0F8
0003E0F8
007E00F8
007E00F8
007E00F8
007E00F8
007E00F8
07C000F8
07C000F8
07C000F8
07C000F8
07C000F8
F80000F8
F80000F8
F80000F8
F80000F8
FFC000F8
07C000F8
07C000F8
07C000F8
07C000F8
007E00F8
007E00F8
007E00F8
007E00F8
007E00F8
0003E0F8
0003E0F8
0003E0F8
0003E0F8
0003E0F8
00001FF8
00001FF8
00001FF8
00001FF8
00001FF8
000000F8
000000F8
000000F8
000000F8
ENDCHAR
STARTCHAR 0028
ENCODING 40
SWIDTH 697 0
DWIDTH 67 0
BBX 53 52 0 10
BITMAP
007FFFFFFFFFF8
007FFFFFFFFFF8
007FFFFFFFFFF8
007FFFFFFFFFF8
007E00000000F8
007E00000000F8
007E00000000F8
007E00000000F8
007E00000000F8
F87E1FFFFFE0F8
F87E1FFFFFE0F8
F87E1FFFFFE0F8
F87E1FFFFFE0F8
F87E1FFFFFE0F8
FFC000000000F8
FFC000000000F8
FFC000000000F8
FFC000000000F8
FFC000000000F8
FFFE1F07FFE0F8
FFFE1F07FFE0F8
FFFE1F07FFE0F8
FFFE1F07FFE0F8
FFFE1F07FFE0F8
FFFFE0000000F8
FFFFE0000000F8
FFFFE0000000F8
FFFFE0000000F8
FFFE1FFFC3E0F8
FFFE1FFFC3E0F8
FFFE1FFFC3E0F8
FFFE1FFFC3E0F8
FFFE1FFFC3E0F8
FFC000000000F8
FFC000000000F8
FFC000000000F8
FFC000000000F8
FFC000000000F8
F87E1FF87FE0F8
F87E1FF87FE0F8
F87E1FF87FE0F8
F87E1FF87FE0F8
F87E1FF87FE0F8
007E00000000F8
007E00000000F8
007E00000000F8
007E00000000F8
007E00000000F8
007FFFFFFFFFF8
007FFFFFFFFFF8
007FFFFFFFFFF8
007FFFFFFFFFF8
ENDCHAR
STARTCHAR 0029
ENCODING 41
SWIDTH 604 0
DWIDTH 58 0
BBX 43 52 0 10
BITMAP
FFFFFFFFFFE0
FFFFFFFFFFE0
FFFFFFFFFFE0
FFFFFFFFFFE0
F800000003E0
F800000003E0
F800000003E0
F800000003E0
F800000003E0
F83FFF07C3E0
F83FFF07C3E0
F83FFF07C3E0
F83FFF07C3E0
F83FFF07C3E0
F83C1F0003E0
F83C1F0003E0
F83C1F0003E0
F83C1F0003E0
F83C1F0003E0
F83FFF07C3E0
F83FFF07C3E0
F83FFF07C3E0
F83FFF07C3E0
F83FFF07C3E0
F800000003E0
F800000003E0
F800000003E0
F800000003E0
F83FFFFFC3E0
F83FFFFFC3E0
F83FFFFFC3E0
F83FFFFFC3E0
F83FFFFFC3E0
F800000003E0
F800000003E0
F800000003E0
F800000003E0
F800000003E0
F83FFFFFC3E0
F83FFFFFC3E0
F83FFFFFC3E0
F83FFFFFC3E0
F83FFFFFC3E0
F800000003E0
F800000003E0
F800000003E0
F800000003E0
F800000003E0
FFFFFFFFFFE0
FFFFFFFFFFE0
FFFFFFFFFFE0
FFFFFFFFFFE0
ENDCHAR
STARTCHAR 002A
ENCODING 42
SWIDTH 697 0
DWIDTH 67 0
BBX 53 67 0 4
BITMAP
FFFFFFFFFFFFF8
FFFFFFFFFFFFF8
FFFFFFFFFFFFF8
FFFFFFFFFFFFF8
FFFFFFFFFFFFF8
F80000000000F8
F80000000000F8
F80000000000F8
F80000000000F8
F80000000000F8
F83FFFFFFFE0F8
F83FFFFFFFE0F8
F83FFFFFFFE0F8
F83FFFFFFFE0F8
F83FFFFFFFE0F8
F83FFFFFFFE0F8
F83FFFFFFFE0F8
F83FFFFFFFE0F8
F83FFFFFFFE0F8
F80000000000F8
F80000000000F8
F80000000000F8
F80000000000F8
F80000000000F8
F83FFF07FFE0F8
F83FFF07FFE0F8
F83FFF07FFE0F8
F83FFF07FFE0F8
F83FFF07FFE0F8
F83C1F000000F8
F83C1F000000F8
F83C1F000000F8
F83C1F000000F8
F83C1F000000F8
F83FFF07FFE0F8
F83FFF07FFE0F8
F83FFF07FFE0F8
F83FFF07FFE0F8
F80000000000F8
F80000000000F8
F80000000000F8
F80000000000F8
F80000000000F8
F83FFFFFFFE0F8
F83FFFFFFFE0F8
F83FFFFFFFE0F8
F83FFFFFFFE0F8
F83FFFFFFFE0F8
F80000000000F8
F80000000000F8
F80000000000F8
F80000000000F8
F80000000000F8
F83FFFFFFFE0F8
F83FFFFFFFE0F8
F83FFFFFFFE0F8
F83FFFFFFFE0F8
F83FFFFFFFE0F8
F80000000000F8
F80000000000F8
F80000000000F8
F80000000000F8
FFFFFFFFFFFFF8
FFFFFFFFFFFFF8
FFFFFFFFFFFFF8
FFFFFFFFFFFFF8
FFFFFFFFFFFFF8
ENDCHAR
STARTCHAR 002B
ENCODING 43
SWIDTH 697 0
DWIDTH 67 0
BBX 53 44 0 14
BITMAP
07FFFFFFFFFF00
07FFFFFFFFFF00
07FFFFFFFFFF00
07FFFFFFFFFF00
07FFFFFFFFFF00
F80000000000F8
F80000000000F8
F80000000000F8
F80000000000F8
F80000000000F8
F803FFFFFE00F8
F803FFFFFE00F8
F803FFFFFE00F8
F803FFFFFE00F8
F803FFFFFE00F8
FFFE000003FFF8
FFFE000003FFF8
FFFE000003FFF8
FFFE000003FFF8
FFFE1F07C3FFF8
007E1F07C3E000
007E1F07C3E000
007E1F07C3E000
007E1F07C3E000
07C01F07C3FF00
07C00000001F00
07C00000001F00
07C00000001F00
07C00000001F00
07C01F07C01F00
07C01F07C01F00
07C01F07C01F00
07C01F07C01F00
07C01F07C01F00
07C00000001F00
07C00000001F00
07C00000001F00
07C00000001F00
07C00000001F00
07FFFFFFFFFF00
07FFFFFFFFFF00
07FFFFFFFFFF00
07FFFFFFFFFF00
07FFFFFFFFFF00
ENDCHAR
STARTCHAR 002C
ENCODING 44
SWIDTH 697 0
DWIDTH 67 0
BBX 53 48 0 15
BITMAP
00000007FFFF00
00000007FFFF00
00000007FFFF00
00000007FFFF00
00000007C01F00
00000007C01F00
00000007C01F00
00000007C01F00
00000007C01F00
FFFFFFFFFFFFF8
FFFFFFFFFFFFF8
FFFFFFFFFFFFF8
FFFFFFFFFFFFF8
FFFFFFFFFFFFF8
F803FFFFFFFFF8
F803FFFFFFFFF8
F803FFFFFFFFF8
F803FFFFFFFFF8
F803FFFFFFFFF8
FFFFFF0003FFF8
FFFFFF0003FFF8
FFFFFF0003FFF8
FFFFFF0003FFF8
FFFFFF0003FFF8
FFFFE000001FF8
FFFFE000001FF8
FFFFE000001FF8
FFFFE000001FF8
FFFFE000001FF8
FFFFE000001FF8
FFFFE000001FF8
FFFFE000001FF8
FFFFE000001FF8
FFFFE000001FF8
FFFFE000001FF8
FFFFE000001FF8
FFFFE000001FF8
FFFFE000001FF8
FFFFFF0003FFF8
FFFFFF0003FFF8
FFFFFF0003FFF8
FFFFFF0003FFF8
FFFFFF0003FFF8
FFFFFFFFFFFFF8
FFFFFFFFFFFFF8
FFFFFFFFFFFFF8
FFFFFFFFFFFFF8
FFFFFFFFFFFFF8
ENDCHAR
STARTCHAR 002D
ENCODING 45
SWIDTH 604 0
DWIDTH 58 0
BBX 43 52 0 10
BITMAP
FFFFFFFFC000
FFFFFFFFC000
FFFFFFFFC000
FFFFFFFFC000
F80000F87E00
F80000F87E00
F80000F87E00
F80000F87E00
F80000F87E00
F80000F803E0
F80000F803E0
F80000F803E0
F80000F803E0
F80000F803E0
F80000FFFFE0
F80000FFFFE0
F80000FFFFE0
F80000FFFFE0
F80000FFFFE0
F800000003E0
F800000003E0
F800000003E0
F800000003E0
F800000003E0
F800000003E0
F800000003E0
F800000003E0
F800000003E0
F800000003E0
F800000003E0
F800000003E0
F800000003E0
F800000003E0
F800000003E0
F800000003E0
F800000003E0
F800000003E0
F800000003E0
F800000003E0
F800000003E0
F800000003E0
F800000003E0
F800000003E0
F800000003E0
F800000003E0
F800000003E0
F800000003E0
F800000003E0
FFFFFFFFFFE0
FFFFFFFFFFE0
FFFFFFFFFFE0
FFFFFFFFFFE0
ENDCHAR
STARTCHAR 002E
ENCODING 46
SWIDTH 697 0
DWIDTH 67 0
BBX 53 52 0 10
BITMAP
007FFFFFFFE000
007FFFFFFFE000
007FFFFFFFE000
007FFFFFFFE000
007E00007E1F00
007E00007E1F00
007E00007E1F00
007E00007E1F00
007E00007E1F00
F87E00007E00F8
F87E00007E00F8
F87E00007E00F8
F87E00007E00F8
F87E00007E00F8
FFC000007FFFF8
FFC000007FFFF8
FFC000007FFFF8
FFC000007FFFF8
FFC000007FFFF8
FFFE00000000F8
FFFE00000000F8
FFFE00000000F8
FFFE00000000F8
FFFFE0000000F8
FFFFE0000000F8
FFFFE0000000F8
FFFFE0000000F8
FFFFE0000000F8
FFFE00000000F8
FFFE00000000F8
FFFE00000000F8
FFFE00000000F8
FFFE00000000F8
FFC000000000F8
FFC000000000F8
FFC000000000F8
FFC000000000F8
FFC000000000F8
F87E00000000F8
F87E00000000F8
F87E00000000F8
F87E00000000F8
F87E00000000F8
007E00000000F8
007E00000000F8
007E00000000F8
007E00000000F8
007E00000000F8
007FFFFFFFFFF8
007FFFFFFFFFF8
007FFFFFFFFFF8
007FFFFFFFFFF8
ENDCHAR
STARTCHAR 002F
ENCODING 47
SWIDTH 895 0
DWIDTH 86 0
BBX 72 52 0 10
BITMAP
FFFFFFFFFFFFFFC3E0
FFFFFFFFFFFFFFC3E0
FFFFFFFFFFFFFFC3E0
FFFFFFFFFFFFFFC3E0
F8000000000007C3FF
F8000000000007C3FF
F8000000000007C3FF
F8000000000007C3FF
F8000000000007C3FF
F80000FFC00007C3E0
F80000FFC00007C3E0
F80000FFC00007C3E0
F80000FFC00007C3E0
F80000FFC00007C3E0
F80000FFC00007C000
F80000FFC00007C000
F80000FFC00007C000
F80000FFC00007C000
F80000FFC00007C000
F8001F07FE0007C000
F8001F07FE0007C000
F8001F07FE0007C000
F8001F07FE0007C000
F8001F07FE0007C000
F8001F07FE0007C000
F8001F07FE0007C000
F8001F07FE0007C000
F8001F07FE0007C000
F803FFFFFFE007C000
F803FFFFFFE007C000
F803FFFFFFE007C000
F803FFFFFFE007C000
F803FFFFFFE007C000
F803E0007FE007C000
F803E0007FE007C000
F803E0007FE007C000
F803E0007FE007C000
F803E0007FE007C000
F87FFF07FFFF07C000
F87FFF07FFFF07C000
F87FFF07FFFF07C000
F87FFF07FFFF07C000
F87FFF07FFFF07C000
F8000000000007C000
F8000000000007C000
F8000000000007C000
F8000000000007C000
F8000000000007C000
FFFFFFFFFFFFFFC000
FFFFFFFFFFFFFFC000
FFFFFFFFFFFFFFC000
FFFFFFFFFFFFFFC000
ENDCHAR
STARTCHAR 0030
ENCODING 48
SWIDTH 645 0
DWIDTH 62 0
BBX 48 58 0 0
BITMAP
00001FF80000
00001FF80000
00001FF80000
00001FF80000
00001FF80000
00001FF80000
00001FF80000
00001FF80000
00001FF80000
00001FF80000
0003FFFFC000
0003FFFFC000
0003FFFFC000
0003FFFFC000
0003FFFFC000
000000000000
000000000000
000000000000
000000000000
0003FFFFC000
0003FFFFC000
0003FFFFC000
0003FFFFC000
0003FFFFC000
007E1FF87E00
007E1FF87E00
007E1FF87E00
007E1FF87E00
007E1FF87E00
07C01FF803E0
07C01FF803E0
07C01FF803E0
07C01FF803E0
07C01FF803E0
F803FFFFC01F
F803FFFFC01F
F803FFFFC01F
F803FFFFC01F
F803FFFFC01F
007FFFFFFE00
007FFFFFFE00
007FFFFFFE00
007FFFFFFE00
007FFFFFFE00
00001FF80000
00001FF80000
00001FF80000
00001FF80000
00001FF80000
00001FF80000
00001FF80000
00001FF80000
00001FF80000
00001FF80000
00001FF80000
00001FF80000
00001FF80000
00001FF80000
ENDCHAR
STARTCHAR 0031
ENCODING 49
SWIDTH 500 0
DWIDTH 48 0
BBX 34 77 0 0
BITMAP
0003E00000
0003E00000
0003E00000
0003E00000
0003E00000
007E1F0000
007E1F0000
007E1F0000
007E1F0000
007E1F0000
007E1F0000
007E1F0000
007E1F0000
007E1F0000
007E1F0000
0003E00000
0003E00000
0003E00000
0003E00000
07FE1FF800
07FE1FF800
07FE1FF800
07FE1FF800
07FE1FF800
F8000007C0
F8000007C0
F8000007C0
F8000007C0
F8000007C0
F8000007C0
F8000007C0
F8000007C0
F8000007C0
F8000007C0
F8000007C0
F8000007C0
F8000007C0
F8000007C0
F8000007C0
F8000007C0
F8000007C0
F8000007C0
F8000007C0
F8000007C0
F8000007C0
F8000007C0
F8000007C0
F8000007C0
07C000F800
07C000F800
07C000F800
07C000F800
07C000F800
07C3E0F800
07C3E0F800
07C3E0F800
07C3E0F800
07C3E0F800
07C3E0F800
07C3E0F800
07C3E0F800
07C3E0F800
07C3E0F800
07C3E0F800
07C3E0F800
07C3E0F800
07C3E0F800
07C3E0F800
07C3E0F800
07C3E0F800
07C3E0F800
07C3E0F800
07FFFFF800
07FFFFF800
07FFFFF800
07FFFFF800
07FFFFF800
ENDCHAR
STARTCHAR 0032
ENCODING 50
SWIDTH 500 0
DWIDTH 48 0
BBX 34 77 0 0
BITMAP
0003E00000
0003E00000
0003E00000
0003E00000
0003E00000
007E1F0000
007E1F0000
007E1F0000
007E1F0000
007E1F0000
007E1F0000
007E1F0000
007E1F0000
007E1F0000
007E1F0000
0003E00000
0003E00000
0003E00000
0003E00000
07FE1FF800
07FE1FF800
07FE1FF800
07FE1FF800
07FE1FF800
F8000007C0
F8000007C0
F8000007C0
F8000007C0
F8000007C0
F8000007C0
F8000007C0
F8000007C0
F8000007C0
F8000007C0
F8000007C0
F8000007C0
F8000007C0
F8000007C0
F8000007C0
F8000007C0
F8000007C0
F8000007C0
F8000007C0
FFC000FFC0
07C000F800
07C000F800
07C000F800
07C000F800
07C000F800
07C000F800
07C000F800
07C000F800
07C000F800
07C000F800
07C000F800
07C000F800
07C000F800
07C000F800
07C000F800
07C000F800
07C000F800
07C000F800
07FE00F800
007E1F0000
007E1F0000
007E1F0000
007E1F0000
007E1F0000
007E1F0000
007E1F0000
007E1F0000
007E1F0000
007FFF0000
007FFF0000
007FFF0000
007FFF0000
007FFF0000
ENDCHAR
STARTCHAR 0033
ENCODING 51
SWIDTH 947 0
DWIDTH 91 0
BBX 77 62 0 1
BITMAP
007FE000000000000000
007FE000000000000000
007FE000000000000000
007FE000000000000000
07FFFF000000FFC00000
07FFFF000000FFC00000
07FFFF000000FFC00000
07FFFF000000FFC00000
07FFFF000000FFC00000
007FE0000000FFC00000
007FE0000000FFC00000
007FE0000000FFC00000
007FE0000000FFC00000
007FE0000000FFC00000
007FE000001FFFFE0000
007FE000001FFFFE0000
007FE000001FFFFE0000
007FE000001FFFFE0000
007FE000001FFFFE0000
00000000000000000000
00000000000000000000
00000000000000000000
00000000000000000000
FFFFFFF8001FFFFE0000
FFFFFFF8001FFFFE0000
FFFFFFF8001FFFFE0000
FFFFFFF8001FFFFE0000
FFFFFFF8001FFFFE0000
F87FE0F803E0FFC3E000
F87FE0F803E0FFC3E000
F87FE0F803E0FFC3E000
F87FE0F803E0FFC3E000
F87FE0F803E0FFC3E000
F87FE0F87E00FFC01F00
F87FE0F87E00FFC01F00
F87FE0F87E00FFC01F00
F87FE0F87E00FFC01F00
F87FE0F87E00FFC01F00
F87FE0FFC01FFFFE00F8
F87FE0FFC01FFFFE00F8
F87FE0FFC01FFFFE00F8
F87FE0FFC01FFFFE00F8
F87FE0FFC01FFFFE00F8
007FE00003FFFFFFE000
007FE00003FFFFFFE000
007FE00003FFFFFFE000
007FE00003FFFFFFE000
007FE00003FFFFFFE000
007FE0000000FFC00000
007FE0000000FFC00000
007FE0000000FFC00000
007FE0000000FFC00000
007FE0000000FFC00000
007FE0000000FFC00000
007FE0000000FFC00000
007FE0000000FFC00000
007FE0000000FFC00000
007FE0000000FFC00000
007FE0000000FFC00000
007FE0000000FFC00000
007FE0000000FFC00000
007FE0000000FFC00000
ENDCHAR
STARTCHAR 0034
ENCODING 52
SWIDTH 895 0
DWIDTH 86 0
BBX 72 77 0 0
BITMAP
0003E000000007C000
0003E000000007C000
0003E000000007C000
0003E000000007C000
0003E000000007C000
007E1F000000F87E00
007E1F000000F87E00
007E1F000000F87E00
007E1F000000F87E00
007E1F000000F87E00
007E1F000000F87E00
007E1F000000F87E00
007E1F000000F87E00
007E1F000000F87E00
007E1F000000F87E00
0003E000000007C000
0003E000000007C000
0003E000000007C000
0003E000000007C000
07FE1FF8001FF87FE0
07FE1FF8001FF87FE0
07FE1FF8001FF87FE0
07FE1FF8001FF87FE0
07FE1FF8001FF87FE0
F8000007C3E000001F
F8000007C3E000001F
F8000007C3E000001F
F8000007C3E000001F
F8000007C3E000001F
F8000007C3E000001F
F8000007C3E000001F
F8000007C3E000001F
F8000007C3E000001F
F8000007C3E000001F
F8000007C3E000001F
F8000007C3E000001F
F8000007C3E000001F
F8000007C3E000001F
F8000007C3E000001F
F8000007C3E000001F
F8000007C3E000001F
F8000007C3E000001F
F8000007C3E000001F
F8000007C3FF0003E0
F8000007C01F0003E0
F8000007C01F0003E0
F8000007C01F0003E0
F8000007C01F0003E0
07C000F8001F0003E0
07C000F8001F0003E0
07C000F8001F0003E0
07C000F8001F0003E0
07C000F8001F0003E0
07C3E0F8001F0003E0
07C3E0F8001F0003E0
07C3E0F8001F0003E0
07C3E0F8001F0003E0
07C3E0F8001F0003E0
07C3E0F8001F0003E0
07C3E0F8001F0003E0
07C3E0F8001F0003E0
07C3E0F8001F0003E0
07C3E0F8001FF803E0
07C3E0F80000F87E00
07C3E0F80000F87E00
07C3E0F80000F87E00
07C3E0F80000F87E00
07C3E0F80000F87E00
07C3E0F80000F87E00
07C3E0F80000F87E00
07C3E0F80000F87E00
07C3E0F80000F87E00
07FFFFF80000FFFE00
07FFFFF80000FFFE00
07FFFFF80000FFFE00
07FFFFF80000FFFE00
07FFFFF80000FFFE00
ENDCHAR
STARTCHAR 0035
ENCODING 53
SWIDTH 895 0
DWIDTH 86 0
BBX 72 72 0 0
BITMAP
000000FFFFFF000000
000000FFFFFF000000
000000FFFFFF000000
000000FFFFFF000000
000000FFFFFF000000
0003FF000000FFC000
0003FF000000FFC000
0003FF000000FFC000
0003FF000000FFC000
0003FF007E00FFFE00
007E00007E00007E00
007E00007E00007E00
007E00007E00007E00
007E00007E00007E00
07C01F007E00F87FE0
07C01F000000F803E0
07C01F000000F803E0
07C01F000000F803E0
07C01F000000F803E0
07C00007FFE00003E0
07C00007FFE00003E0
07C00007FFE00003E0
07C00007FFE00003E0
07C00007FFE00003E0
F87E00F8001F007E1F
F87E00F8001F007E1F
F87E00F8001F007E1F
F87E00F8001F007E1F
F87E00F8001F007E1F
F8001F000000F8001F
F8001F000000F8001F
F8001F000000F8001F
F8001F000000F8001F
F8001F000000F8001F
F8001F000000F8001F
F8001F000000F8001F
F8001F000000F8001F
F8001F000000F8001F
F87E1F000000F8001F
F87E1F000000F8001F
F87E1F000000F8001F
F87E1F000000F8001F
F87E1F000000F8001F
F80000F8001F07C01F
F80000F8001F07C01F
F80000F8001F07C01F
F80000F8001F07C01F
F80000F8001F07C01F
07C00007FFE007FFE0
07C00007FFE007FFE0
07C00007FFE007FFE0
07C00007FFE007FFE0
07C00007FFE007FFE0
07C01F0000000003E0
07C01F0000000003E0
07C01F0000000003E0
07C01F0000000003E0
07FE1F07C01F0003E0
007E0007C01F007E00
007E0007C01F007E00
007E0007C01F007E00
007E0007C01F007E00
007FFF07C01FFFC000
0003FF000000FFC000
0003FF000000FFC000
0003FF000000FFC000
0003FF000000FFC000
000000FFFFFF000000
000000FFFFFF000000
000000FFFFFF000000
000000FFFFFF000000
000000FFFFFF000000
ENDCHAR
STARTCHAR 0036
ENCODING 54
SWIDTH 802 0
DWIDTH 77 0
BBX 62 57 0 10
BITMAP
07FFFFFFFFFFF800
07FFFFFFFFFFF800
07FFFFFFFFFFF800
07FFFFFFFFFFF800
07FFFFFFFFFFFFC0
F803E0007E1F07C0
F803E0007E1F07C0
F803E0007E1F07C0
F803E0007E1F07C0
F803E0007E1F07FC
F803E0007E1F007C
F803E0007E1F007C
F803E0007E1F007C
F803E0007E1F007C
F803E000001F007C
F803E000001F007C
F803E000001F007C
F803E000001F007C
F803E000001F007C
F8001FFFFFE0007C
F8001FFFFFE0007C
F8001FFFFFE0007C
F8001FFFFFE0007C
F8001FFFFFE0007C
F80000000000007C
F80000000000007C
F80000000000007C
F80000000000007C
F80000000000007C
F80000000000007C
F80000000000007C
F80000000000007C
F80000000000007C
F8001FFFFFE0007C
F8001FFFFFE0007C
F8001FFFFFE0007C
F8001FFFFFE0007C
F8001FFFFFE0007C
F803E000001F007C
F803E000001F007C
F803E000001F007C
F803E000001F007C
F803E000001F007C
F803E000001F007C
F803E000001F007C
F803E000001F007C
F803E000001F007C
F803E000001F007C
F803E000001F007C
F803E000001F007C
F803E000001F007C
F803E000001F007C
F803E000001FFFFC
07FFFFFFFFFFFFFC
07FFFFFFFFFFFFFC
07FFFFFFFFFFFFFC
07FFFFFFFFFFFFFC
ENDCHAR
STARTCHAR 0037
ENCODING 55
SWIDTH 802 0
DWIDTH 77 0
BBX 62 67 0 4
BITMAP
FFFFFFFFFFFFFFC0
FFFFFFFFFFFFFFC0
FFFFFFFFFFFFFFC0
FFFFFFFFFFFFFFC0
FFFFFFFFFFFFFFC0
F87E1F000000F87C
F87E1F000000F87C
F87E1F000000F87C
F87E1F000000F87C
F87E1F007FE0F87C
F87E1F007FE0F87C
F87E1F007FE0F87C
F87E1F007FE0F87C
F87E1F007FE0F87C
F87E1F007FE0F87C
F87E1F007FE0F87C
F87E1F007FE0F87C
F87E1F007FE0F87C
F87E1F007FE0F87C
F87E1F000000F87C
F87E1F000000F87C
F87E1F000000F87C
F87E1F000000F87C
F87E1F000000F87C
F87FFFFFFFFFF87C
F87FFFFFFFFFF87C
F87FFFFFFFFFF87C
F87FFFFFFFFFF87C
F87FFFFFFFFFF87C
F80000000000007C
F80000000000007C
F80000000000007C
F80000000000007C
F87FFFFFFFFFF87C
F87FFFFFFFFFF87C
F87FFFFFFFFFF87C
F87FFFFFFFFFF87C
F87FFFFFFFFFF87C
F87E00000000F87C
F87E00000000F87C
F87E00000000F87C
F87E00000000F87C
F87E00000000F87C
F87E00000000F87C
F87E00000000F87C
F87E00000000F87C
F87E00000000F87C
F87E00000000F87C
F87E00000000F87C
F87E00000000F87C
F87E00000000F87C
F87E00000000F87C
F87E00000000F87C
FFFE00000000F87C
FFFE00000000F87C
FFFE00000000F87C
FFFE00000000F87C
FFFE00000000F87C
F87E00000000F87C
F87E00000000F87C
F87E00000000F87C
F87E00000000F87C
FFFFFFFFFFFFFFFC
FFFFFFFFFFFFFFFC
FFFFFFFFFFFFFFFC
FFFFFFFFFFFFFFFC
FFFFFFFFFFFFFFFC
ENDCHAR
STARTCHAR 0038
ENCODING 56
SWIDTH 854 0
DWIDTH 82 0
BBX 67 67 0 4
BITMAP
FFFFFFFFFFFFFFFFE0
FFFFFFFFFFFFFFFFE0
FFFFFFFFFFFFFFFFE0
FFFFFFFFFFFFFFFFE0
FFFFFFFFFFFFFFFFE0
FFFE0000000007C3E0
FFFE0000000007C3E0
FFFE0000000007C3E0
FFFE0000000007C3E0
FFFE0000000007C3E0
FFFE0000000007FFE0
FFFE0000000007FFE0
FFFE0000000007FFE0
FFFE0000000007FFE0
FFFE0000000007FFE0
FFFE0000000007FFE0
FFFE0000000007FFE0
FFFE0000000007FFE0
FFFE0000000007FFE0
FFFE0000000007FFE0
FFFE0000000007FFE0
FFFE0000000007FFE0
FFFE0000000007FFE0
FFFE0000000007FFE0
FFFE0000000007FFE0
FFFE0000000007FFE0
FFFE0000000007FFE0
FFFE0000000007FFE0
FFFE0000000007FFE0
FFFE0000000007FFE0
FFFE0000000007FFE0
FFFE0000000007FFE0
FFFE0000000007FFE0
FFFE0000000007FFE0
FFFFFFFFFFFFFFFFE0
FFFFFFFFFFFFFFFFE0
FFFFFFFFFFFFFFFFE0
FFFFFFFFFFFFFFFFE0
FFFFFFFFFFFFFFFFE0
FFFFFFFFFFFFFFFFE0
FFFFFFFFFFFFFFFFE0
FFFFFFFFFFFFFFFFE0
FFFFFFFFFFFFFFFFE0
FFFFFFFFFFFFFFFFE0
FFFFFFFFFFFFFFFFE0
FFFFFFFFFFFFFFFFE0
FFFFFFFFFFFFFFFFE0
FFFFFFFFFFFFFFFFE0
FFFFFFFFFFE007FFE0
FFFFFFFFFFE007FFE0
FFFFFFFFFFE007FFE0
FFFFFFFFFFE007FFE0
FFFFFFFFFFE007FFE0
FFFFFFFFFFE007FFE0
FFFFFFFFFFE007FFE0
FFFFFFFFFFE007FFE0
FFFFFFFFFFE007FFE0
FFFFFFFFFFE007FFE0
FFFFFFFFFFE007FFE0
FFFFFFFFFFE007FFE0
FFFFFFFFFFE007FFE0
FFFFFFFFFFE007FFE0
FFFFFFFFFFFFFFFFE0
07FFFFFFFFFFFFFFE0
07FFFFFFFFFFFFFFE0
07FFFFFFFFFFFFFFE0
07FFFFFFFFFFFFFFE0
ENDCHAR
STARTCHAR 0039
ENCODING 57
SWIDTH 895 0
DWIDTH 86 0
BBX 72 67 0 4
BITMAP
000000FFFFFFFFFFE0
000000FFFFFFFFFFE0
000000FFFFFFFFFFE0
000000FFFFFFFFFFE0
000000FFFFFFFFFFE0
00001F0000000003E0
00001F0000000003E0
00001F0000000003E0
00001F0000000003E0
00001F07FFFFF803E0
00001F07FFFFF87E00
00001F07FFFFF87E00
00001F07FFFFF87E00
00001F07FFFFF87E00
0003E007FFFFF87E00
0003E0000000007E00
0003E0000000007E00
0003E0000000007E00
0003E0000000007E00
0003E0FFFFFF07FFE0
0003E0FFFFFF07FFE0
0003E0FFFFFF07FFE0
0003E0FFFFFF07FFE0
0003E0FFFFFF07FFE0
007E0000000007C01F
007E0000000007C01F
007E0000000007C01F
007E0000000007C01F
007E0000000007C01F
07FFFFFFFFFFFFC3FF
07FFFFFFFFFFFFC3FF
07FFFFFFFFFFFFC3FF
07FFFFFFFFFFFFC3FF
07FFFFFFFFFFFFC3FF
F8000000000007FE1F
F8000000000007FE1F
F8000000000007FE1F
F8000000000007FE1F
FFFFFFFFFFFFFFC01F
FFFFFFFFFFFFFFC01F
FFFFFFFFFFFFFFC01F
FFFFFFFFFFFFFFC01F
FFFFFFFFFFFFFFC01F
F8000000000007C01F
F8000000000007C01F
F8000000000007C01F
F8000000000007C01F
F8000000000007C01F
F87E0000000007C01F
F87E0000000007C01F
F87E0000000007C01F
F87E0000000007C01F
F87E0000000007C01F
F80000007E1F07C3E0
F80000007E1F07C3E0
F80000007E1F07C3E0
F80000007E1F07C3E0
F80000007E1F07C3E0
F8000000000007FE00
F8000000000007FE00
F8000000000007FE00
F8000000000007FE00
FFFFFFFFFFFFFFC000
07FFFFFFFFFFFFC000
07FFFFFFFFFFFFC000
07FFFFFFFFFFFFC000
07FFFFFFFFFFFFC000
ENDCHAR
STARTCHAR 003A
ENCODING 58
SWIDTH 895 0
DWIDTH 86 0
BBX 72 52 0 10
BITMAP
FFFFFFFFFFFFFFC3E0
FFFFFFFFFFFFFFC3E0
FFFFFFFFFFFFFFC3E0
FFFFFFFFFFFFFFC3E0
F8000000000007C3FF
F8000000000007C3FF
F8000000000007C3FF
F8000000000007C3FF
F8000000000007C3FF
F83FFF07C3FF07C3E0
F83FFF07C3FF07C3E0
F83FFF07C3FF07C3E0
F83FFF07C3FF07C3E0
F83FFF07C3FF07C3E0
F8000000000007C000
F8000000000007C000
F8000000000007C000
F8000000000007C000
F8000000000007C000
F83C1FF83FFF07C000
F83C1FF83FFF07C000
F83C1FF83FFF07C000
F83C1FF83FFF07C000
F83C1FF83FFF07C000
F8000000000007C000
F8000000000007C000
F8000000000007C000
F8000000000007C000
F83FE0FFFC1F07C000
F83FE0FFFC1F07C000
F83FE0FFFC1F07C000
F83FE0FFFC1F07C000
F83FE0FFFC1F07C000
F8000000000007C000
F8000000000007C000
F8000000000007C000
F8000000000007C000
F8000000000007C000
F83FE0F83FFF07C000
F83FE0F83FFF07C000
F83FE0F83FFF07C000
F83FE0F83FFF07C000
F83FE0F83FFF07C000
F8000000000007C000
F8000000000007C000
F8000000000007C000
F8000000000007C000
F8000000000007C000
FFFFFFFFFFFFFFC000
FFFFFFFFFFFFFFC000
FFFFFFFFFFFFFFC000
FFFFFFFFFFFFFFC000
ENDCHAR
STARTCHAR 003B
ENCODING 59
SWIDTH 895 0
DWIDTH 86 0
BBX 72 52 0 10
BITMAP
FFFFFFFFFFFFFFC3E0
FFFFFFFFFFFFFFC3E0
FFFFFFFFFFFFFFC3E0
FFFFFFFFFFFFFFC3E0
F8001F0003E0FFC3FF
F8001F0003E0FFC3FF
F8001F0003E0FFC3FF
F8001F0003E0FFC3FF
F8001F0003E0FFC3FF
F8000007C01FFFC3E0
F8000007C01FFFC3E0
F8000007C01FFFC3E0
F8000007C01FFFC3E0
F8000007C01FFFC3E0
F8001F0003E0FFC000
F8001F0003E0FFC000
F8001F0003E0FFC000
F8001F0003E0FFC000
F8001F0003E0FFC000
F8000007C01FFFC000
F8000007C01FFFC000
F8000007C01FFFC000
F8000007C01FFFC000
F8001F07C01FFFC000
F8001F0003E0FFC000
F8001F0003E0FFC000
F8001F0003E0FFC000
F8001F0003E0FFC000
F8001F07C3FFFFC000
F8000007C01FFFC000
F8000007C01FFFC000
F8000007C01FFFC000
F8000007C01FFFC000
F8001F0003E0FFC000
F8001F0003E0FFC000
F8001F0003E0FFC000
F8001F0003E0FFC000
F8001F0003E0FFC000
F8000007C01FFFC000
F8000007C01FFFC000
F8000007C01FFFC000
F8000007C01FFFC000
F8000007C01FFFC000
F8001F0003E0FFC000
F8001F0003E0FFC000
F8001F0003E0FFC000
F8001F0003E0FFC000
F8001F0003E0FFC000
FFFFFFFFFFFFFFC000
FFFFFFFFFFFFFFC000
FFFFFFFFFFFFFFC000
FFFFFFFFFFFFFFC000
ENDCHAR
STARTCHAR 003C
ENCODING 60
SWIDTH 895 0
DWIDTH 86 0
BBX 72 52 0 10
BITMAP
FFFFFFFFFFFFFFC3E0
FFFFFFFFFFFFFFC3E0
FFFFFFFFFFFFFFC3E0
FFFFFFFFFFFFFFC3E0
F8000000000007C3FF
F8000000000007C3FF
F8000000000007C3FF
F8000000000007C3FF
F8000000000007C3FF
F8000000000007C3E0
F8000000000007C3E0
F8000000000007C3E0
F8000000000007C3E0
F8000000000007C3E0
F8000000000007C000
F8000000000007C000
F8000000000007C000
F8000000000007C000
F8000000000007C000
F83C1FFFFFFF07C000
F83C1FFFFFFF07C000
F83C1FFFFFFF07C000
F83C1FFFFFFF07C000
F83C1FFFFFFF07C000
F8000000000007C000
F8000000000007C000
F8000000000007C000
F8000000000007C000
F83C1FFFFFFF07C000
F83C1FFFFFFF07C000
F83C1FFFFFFF07C000
F83C1FFFFFFF07C000
F83C1FFFFFFF07C000
F8000000000007C000
F8000000000007C000
F8000000000007C000
F8000000000007C000
F8000000000007C000
F83C1FFFFFFF07C000
F83C1FFFFFFF07C000
F83C1FFFFFFF07C000
F83C1FFFFFFF07C000
F83C1FFFFFFF07C000
F8000000000007C000
F8000000000007C000
F8000000000007C000
F8000000000007C000
F8000000000007C000
FFFFFFFFFFFFFFC000
FFFFFFFFFFFFFFC000
FFFFFFFFFFFFFFC000
FFFFFFFFFFFFFFC000
ENDCHAR
STARTCHAR 003D
ENCODING 61
SWIDTH 604 0
DWIDTH 58 0
BBX 43 52 0 10
BITMAP
FFFFFFFFFFE0
FFFFFFFFFFE0
FFFFFFFFFFE0
FFFFFFFFFFE0
F800000003E0
F800000003E0
F800000003E0
F800000003E0
F800000003E0
F83FE0FFC3E0
F83FE0FFC3E0
F83FE0FFC3E0
F83FE0FFC3E0
F83FE0FFC3E0
F800000003E0
F800000003E0
F800000003E0
F800000003E0
F800000003E0
F83C1FF803E0
F83C1FF803E0
F83C1FF803E0
F83C1FF803E0
F83C1FF803E0
F800000003E0
F800000003E0
F800000003E0
F800000003E0
F83FFF07C3E0
F83FFF07C3E0
F83FFF07C3E0
F83FFF07C3E0
F83FFF07C3E0
F800000003E0
F800000003E0
F800000003E0
F800000003E0
F800000003E0
F83FE0FFC3E0
F83FE0FFC3E0
F83FE0FFC3E0
F83FE0FFC3E0
F83FE0FFC3E0
F800000003E0
F800000003E0
F800000003E0
F800000003E0
F800000003E0
FFFFFFFFFFE0
FFFFFFFFFFE0
FFFFFFFFFFE0
FFFFFFFFFFE0
ENDCHAR
STARTCHAR 003E
ENCODING 62
SWIDTH 697 0
DWIDTH 67 0
BBX 53 52 0 10
BITMAP
007FFFFFFFFFF8
007FFFFFFFFFF8
007FFFFFFFFFF8
007FFFFFFFFFF8
007E00000000F8
007E00000000F8
007E00000000F8
007E00000000F8
007E00000000F8
F87E1FF87FE0F8
F87E1FF87FE0F8
F87E1FF87FE0F8
F87E1FF87FE0F8
F87E1FF87FE0F8
FFC000000000F8
FFC000000000F8
FFC000000000F8
FFC000000000F8
FFC000000000F8
FFFE1F07FE00F8
FFFE1F07FE00F8
FFFE1F07FE00F8
FFFE1F07FE00F8
FFFE1F07FE00F8
FFFFE0000000F8
FFFFE0000000F8
FFFFE0000000F8
FFFFE0000000F8
FFFE1FFFC3E0F8
FFFE1FFFC3E0F8
FFFE1FFFC3E0F8
FFFE1FFFC3E0F8
FFFE1FFFC3E0F8
FFC000000000F8
FFC000000000F8
FFC000000000F8
FFC000000000F8
FFC000000000F8
F87E1FF87FE0F8
F87E1FF87FE0F8
F87E1FF87FE0F8
F87E1FF87FE0F8
F87E1FF87FE0F8
007E00000000F8
007E00000000F8
007E00000000F8
007E00000000F8
007E00000000F8
007FFFFFFFFFF8
007FFFFFFFFFF8
007FFFFFFFFFF8
007FFFFFFFFFF8
ENDCHAR
STARTCHAR 003F
ENCODING 63
SWIDTH 802 0
DWIDTH 77 0
BBX 62 57 0 5
BITMAP
FFFFFFF87FFFFFFC
FFFFFFF87FFFFFFC
FFFFFFF87FFFFFFC
FFFFFFF87FFFFFFC
F8000007C000007C
F8000007C000007C
F8000007C000007C
F8000007C000007C
F8000007C000007C
F87FFF07C3FFF87C
F87FFF07C3FFF87C
F87FFF07C3FFF87C
F87FFF07C3FFF87C
F87FFF07C3FFF87C
F80000000000007C
F80000000000007C
F80000000000007C
F80000000000007C
F80000000000007C
F87FFF07C3FFF87C
F87FFF07C3FFF87C
F87FFF07C3FFF87C
F87FFF07C3FFF87C
F87FFF07C3FFF87C
F80000000000007C
F80000000000007C
F80000000000007C
F80000000000007C
F87FFF07C3FFF87C
F87FFF07C3FFF87C
F87FFF07C3FFF87C
F87FFF07C3FFF87C
F87FFF07C3FFF87C
F80000000000007C
F80000000000007C
F80000000000007C
F80000000000007C
F80000000000007C
F87FFF07C3FFF87C
F87FFF07C3FFF87C
F87FFF07C3FFF87C
F87FFF07C3FFF87C
F87FFF07C3FFF87C
F80000000000007C
F80000000000007C
F80000000000007C
F80000000000007C
FFFFFFF80000007C
FFFFFFF87FFFFFFC
FFFFFFF87FFFFFFC
FFFFFFF87FFFFFFC
FFFFFFF87FFFFFFC
FFFFFFFFFE000000
000000FFFE000000
000000FFFE000000
000000FFFE000000
000000FFFE000000
ENDCHAR
STARTCHAR 0040
ENCODING 64
SWIDTH 854 0
DWIDTH 82 0
BBX 67 72 0 0
BITMAP
007FFFFFFFFFFFC000
007FFFFFFFFFFFC000
007FFFFFFFFFFFC000
007FFFFFFFFFFFC000
007FFFFFFFFFFFC000
07C000000000007E00
07C000000000007E00
07C000000000007E00
07C000000000007E00
07C000FFFFE0007FE0
F80000FFFFE00003E0
F80000FFFFE00003E0
F80000FFFFE00003E0
F80000FFFFE00003E0
F803FF00001FF803E0
F803FF00001FF803E0
F803FF00001FF803E0
F803FF00001FF803E0
F803FF00001FF803E0
F803E0000000F803E0
F803E0000000F803E0
F803E0000000F803E0
F803E0000000F803E0
F803E0000000F803E0
F87E00FFC3E007C3E0
F87E00FFC3E007C3E0
F87E00FFC3E007C3E0
F87E00FFC3E007C3E0
F87E00FFC3E007C3E0
F87E1FF87FE007C3E0
F87E1FF87FE007C3E0
F87E1FF87FE007C3E0
F87E1FF87FE007C3E0
F87E1FF87FE007C3E0
F87E1FF87FE007C3E0
F87E1FF87FE007C3E0
F87E1FF87FE007C3E0
F87E1FF87FE007C3E0
F87E1FF87FE007C3E0
F87E1FF87FE007C3E0
F87E1FF87FE007C3E0
F87E1FF87FE007C3E0
F87E1FF87FE007C3E0
F87E00FFC3FFF803E0
F87E00FFC3FFF803E0
F87E00FFC3FFF803E0
F87E00FFC3FFF803E0
F87E00FFC3FFF803E0
F803E00000000003E0
F803E00000000003E0
F803E00000000003E0
F803E00000000003E0
F803E00000000003E0
F803FF0000000003E0
F803FF0000000003E0
F803FF0000000003E0
F803FF0000000003E0
F803FFFFFFE00003E0
F80000FFFFE00003E0
F80000FFFFE00003E0
F80000FFFFE00003E0
F80000FFFFE00003E0
FFC000FFFFE0007E00
07C000000000007E00
07C000000000007E00
07C000000000007E00
07C000000000007E00
007FFFFFFFFFFFC000
007FFFFFFFFFFFC000
007FFFFFFFFFFFC000
007FFFFFFFFFFFC000
007FFFFFFFFFFFC000
ENDCHAR
STARTCHAR 0041
ENCODING 65
SWIDTH 645 0
DWIDTH 62 0
BBX 48 52 0 10
BITMAP
FFFFFF000000
FFFFFF000000
FFFFFF000000
FFFFFF000000
F8001F07FFFF
F8001F07FFFF
F8001F07FFFF
F8001F07FFFF
F8001F07FFFF
F8001F07C01F
F8001F07C01F
F8001F07C01F
F8001F07C01F
F8001F07C01F
F8001F07C01F
F8001F07C01F
F8001F07C01F
F8001F07C01F
F8001F07C01F
FFFFFF07FFFF
FFFFFF07FFFF
FFFFFF07FFFF
FFFFFF07FFFF
FFFFFF07FFFF
000000000000
000000000000
000000000000
000000000000
0003FFFFFC00
0003FFFFFC00
0003FFFFFC00
0003FFFFFC00
0003FFFFFC00
0003E0003C00
0003E0003C00
0003E0003C00
0003E0003C00
0003E0003C00
0003E0003C00
0003E0003C00
0003E0003C00
0003E0003C00
0003E0003C00
0003E0003C00
0003E0003C00
0003E0003C00
0003E0003C00
0003E0003C00
0003FFFFFC00
0003FFFFFC00
0003FFFFFC00
0003FFFFFC00
ENDCHAR
STARTCHAR 0042
ENCODING 66
SWIDTH 895 0
DWIDTH 86 0
BBX 72 58 0 14
BITMAP
000000007FFF000000
000000007FFF000000
000000007FFF000000
000000007FFF000000
000000007FFF000000
00000007C000FFC000
00000007C000FFC000
00000007C000FFC000
00000007C000FFC000
00000007C000FFFE00
0003FFF80000007E00
0003FFF80000007E00
0003FFF80000007E00
0003FFF80000007E00
007E0007C000007FE0
007E0007C0000003E0
007E0007C0000003E0
007E0007C0000003E0
007E0007C0000003E0
07C00000000000001F
07C00000000000001F
07C00000000000001F
07C00000000000001F
07C00000000000001F
07C00000000000001F
07C00000000000001F
07C00000000000001F
07C00000000000001F
07C00000000000001F
F8000000000000001F
F8000000000000001F
F8000000000000001F
F8000000000000001F
F8000000000000001F
07FFFFFFFFFFFFFFE0
07FFFFFFFFFFFFFFE0
07FFFFFFFFFFFFFFE0
07FFFFFFFFFFFFFFE0
07FFE0F87E1F000000
0003E0F87E1F000000
0003E0F87E1F000000
0003E0F87E1F000000
0003E0F87E1F000000
0003E0F87E1F000000
0003E0F87E1F000000
0003E0F87E1F000000
0003E0F87E1F000000
0003E0F87E1F000000
0003E0F87E1F000000
0003E0F87E1F000000
0003E0F87E1F000000
0003E0F87E1F000000
0003E0F87E1F000000
0003E0F87E1F000000
0003E0F87E1F000000
0003E0F87E1F000000
0003E0F87E1F000000
0003E0F87E1F000000
ENDCHAR
STARTCHAR 0043
ENCODING 67
SWIDTH 895 0
DWIDTH 86 0
BBX 72 67 0 4
BITMAP
000000007FFF000000
000000007FFF000000
000000007FFF000000
000000007FFF000000
000000007FFF000000
00000007C000FFC000
00000007C000FFC000
00000007C000FFC000
00000007C000FFC000
00000007C000FFFE00
0003FFF80000007E00
0003FFF80000007E00
0003FFF80000007E00
0003FFF80000007E00
007E0007C000007FE0
007E0007C0000003E0
007E0007C0000003E0
007E0007C0000003E0
007E0007C0000003E0
07C00000000000001F
07C00000000000001F
07C00000000000001F
07C00000000000001F
07C00000000000001F
07C00000000000001F
07C00000000000001F
07C00000000000001F
07C00000000000001F
07C00000000000001F
F8000000000000001F
F8000000000000001F
F8000000000000001F
F8000000000000001F
F8000000000000001F
07FFFFFFFFFFFFFFE0
07FFFFFFFFFFFFFFE0
07FFFFFFFFFFFFFFE0
07FFFFFFFFFFFFFFE0
07FFE0000000000000
0003E0000000000000
0003E0000000000000
0003E0000000000000
0003E0000000000000
007E1F000000007E00
007E1F000000007E00
007E1F000000007E00
007E1F000000007E00
007E1F000000007E00
0003E0007FE007C3E0
0003E0007FE007C3E0
0003E0007FE007C3E0
0003E0007FE007C3E0
0003E0007FE007C3E0
00000007C01F007E00
00000007C01F007E00
00000007C01F007E00
00000007C01F007E00
00000007C01F007E00
00000007C01F000000
00000007C01F000000
00000007C01F000000
00000007C01F000000
00000007FFE0000000
000000007FE0000000
000000007FE0000000
000000007FE0000000
000000007FE0000000
ENDCHAR
STARTCHAR 0044
ENCODING 68
SWIDTH 895 0
DWIDTH 86 0
BBX 72 38 0 33
BITMAP
000000007FFF000000
000000007FFF000000
000000007FFF000000
000000007FFF000000
000000007FFF000000
00000007C000FFC000
00000007C000FFC000
00000007C000FFC000
00000007C000FFC000
00000007C000FFFE00
0003FFF80000007E00
0003FFF80000007E00
0003FFF80000007E00
0003FFF80000007E00
007E0007C000007FE0
007E0007C0000003E0
007E0007C0000003E0
007E0007C0000003E0
007E0007C0000003E0
07C00000000000001F
07C00000000000001F
07C00000000000001F
07C00000000000001F
07C00000000000001F
07C00000000000001F
07C00000000000001F
07C00000000000001F
07C00000000000001F
07C00000000000001F
F8000000000000001F
F8000000000000001F
F8000000000000001F
F8000000000000001F
F8000000000000001F
07FFFFFFFFFFFFFFE0
07FFFFFFFFFFFFFFE0
07FFFFFFFFFFFFFFE0
07FFFFFFFFFFFFFFE0
ENDCHAR
STARTCHAR 0045
ENCODING 69
SWIDTH 947 0
DWIDTH 91 0
BBX 77 72 0 33
BITMAP
00000007C00000000000
00000007C00000000000
00000007C00000000000
00000007C00000000000
00000007C00000000000
07C00007C00007C00000
07C00007C00007C00000
07C00007C00007C00000
07C00007C00007C00000
07C00007C00007C00000
007E0007C000F8000000
007E0007C000F8000000
007E0007C000F8000000
007E0007C000F8000000
007E0007C000F8000000
0003E000001F00000000
0003E000001F00000000
0003E000001F00000000
0003E000001F00000000
0003E0FFFE1F00000000
000000FFFE0000000000
000000FFFE0000000000
000000FFFE0000000000
000000FFFE0000000000
FFFE1F0003E0FFFE0000
FFFE1F0003E0FFFE0000
FFFE1F0003E0FFFE0000
FFFE1F0003E0FFFE0000
FFFE1F0003E0FFFE0000
0003E000001F00000000
0003E000001F00000000
0003E000001F00000000
0003E000001F00000000
0003E000001F00000000
0003E00003FFF8000000
0003E00003FFF8000000
0003E00003FFF8000000
0003E00003FFF8000000
0003E00003FFF8000000
00001F007E0007FE0000
00001F007E0007FE0000
00001F007E0007FE0000
00001F007E0007FE0000
00001F007E0007FFE000
00001FFFC0000003E000
00001FFFC0000003E000
00001FFFC0000003E000
00001FFFC0000003E000
0003E0007E000003FF00
0003E0007E0000001F00
0003E0007E0000001F00
0003E0007E0000001F00
0003E0007E0000001F00
007E00000000000000F8
007E00000000000000F8
007E00000000000000F8
007E00000000000000F8
007E00000000000000F8
007E00000000000000F8
007E00000000000000F8
007E00000000000000F8
007E00000000000000F8
007E00000000000000F8
07C000000000000000F8
07C000000000000000F8
07C000000000000000F8
07C000000000000000F8
07C000000000000000F8
007FFFFFFFFFFFFFFF00
007FFFFFFFFFFFFFFF00
007FFFFFFFFFFFFFFF00
007FFFFFFFFFFFFFFF00
ENDCHAR
STARTCHAR 0046
ENCODING 70
SWIDTH 895 0
DWIDTH 86 0
BBX 72 72 0 0
BITMAP
000000007FFF000000
000000007FFF000000
000000007FFF000000
000000007FFF000000
000000007FFF000000
00000007C000FFC000
00000007C000FFC000
00000007C000FFC000
00000007C000FFC000
00000007C000FFFE00
0003FFF80000007E00
0003FFF80000007E00
0003FFF80000007E00
0003FFF80000007E00
007E0007C000007FE0
007E0007C0000003E0
007E0007C0000003E0
007E0007C0000003E0
007E0007C0000003E0
07C00000000000001F
07C00000000000001F
07C00000000000001F
07C00000000000001F
07C00000000000001F
07C00000000000001F
07C00000000000001F
07C00000000000001F
07C00000000000001F
07C00000000000001F
F8000000000000001F
F8000000000000001F
F8000000000000001F
F8000000000000001F
F8000000000000001F
07FFFFFFFFFFFFFFE0
07FFFFFFFFFFFFFFE0
07FFFFFFFFFFFFFFE0
07FFFFFFFFFFFFFFE0
07FFFFF80000F80000
000000F80000F80000
000000F80000F80000
000000F80000F80000
000000F80000F80000
000000F8001F000000
000000F8001F000000
000000F8001F000000
000000F8001F000000
000000F8001F000000
000000F803FFF80000
000000F803FFF80000
000000F803FFF80000
000000F803FFF80000
000000F803FFF80000
000000FFC01F000000
000000FFC01F000000
000000FFC01F000000
000000FFC01F000000
000000FFC01F000000
00000007C3E0000000
00000007C3E0000000
00000007C3E0000000
00000007C3E0000000
00000007FE00000000
00000007FE00000000
00000007FE00000000
00000007FE00000000
00000007FE00000000
00000007C000000000
00000007C000000000
00000007C000000000
00000007C000000000
00000007C000000000
ENDCHAR
STARTCHAR 0047
ENCODING 71
SWIDTH 697 0
DWIDTH 67 0
BBX 53 34 0 19
BITMAP
FFFFFFFFFFFFF8
FFFFFFFFFFFFF8
FFFFFFFFFFFFF8
FFFFFFFFFFFFF8
FFFFFFFFFFFFF8
00000000000000
00000000000000
00000000000000
00000000000000
00000000000000
FFFFFFFFFFFFF8
FFFFFFFFFFFFF8
FFFFFFFFFFFFF8
FFFFFFFFFFFFF8
FFFFFFFFFFFFF8
00000000000000
00000000000000
00000000000000
00000000000000
FFFFFFFFFFFFF8
FFFFFFFFFFFFF8
FFFFFFFFFFFFF8
FFFFFFFFFFFFF8
FFFFFFFFFFFFF8
00000000000000
00000000000000
00000000000000
00000000000000
00000000000000
FFFFFFFFFFFFF8
FFFFFFFFFFFFF8
FFFFFFFFFFFFF8
FFFFFFFFFFFFF8
FFFFFFFFFFFFF8
ENDCHAR
STARTCHAR 0048
ENCODING 72
SWIDTH 895 0
DWIDTH 86 0
BBX 72 72 0 0
BITMAP
000000007E00000000
000000007E00000000
000000007E00000000
000000007E00000000
000000007E00000000
07C000007E000003E0
07C000007E000003E0
07C000007E000003E0
07C000007E000003E0
07FE00007E000003E0
007E00000000007E00
007E00000000007E00
007E00000000007E00
007E00000000007E00
007E0007FFE0007E00
00000007FFE0000000
00000007FFE0000000
00000007FFE0000000
00000007FFE0000000
00001FF8001FF80000
00001FF8001FF80000
00001FF8001FF80000
00001FF8001FF80000
00001FF8001FF80000
00001F000000F80000
00001F000000F80000
00001F000000F80000
00001F000000F80000
00001F000000F80000
0003E000000007C000
0003E000000007C000
0003E000000007C000
0003E000000007C000
FFC3E000000007C3FF
FFC3E000000007C3FF
FFC3E000000007C3FF
FFC3E000000007C3FF
FFC3E000000007C3FF
FFC3E000000007C3FF
0003E000000007C000
0003E000000007C000
0003E000000007C000
0003E000000007C000
00001F000000F80000
00001F000000F80000
00001F000000F80000
00001F000000F80000
00001F000000F80000
00001FF8001FF80000
00001FF8001FF80000
00001FF8001FF80000
00001FF8001FF80000
00001FF8001FF80000
00000007FFE0000000
00000007FFE0000000
00000007FFE0000000
00000007FFE0000000
007E0007FFE0007E00
007E00000000007E00
007E00000000007E00
007E00000000007E00
007E00000000007E00
07C000007E00007FE0
07C000007E000003E0
07C000007E000003E0
07C000007E000003E0
07C000007E000003E0
000000007E00000000
000000007E00000000
000000007E00000000
000000007E00000000
000000007E00000000
ENDCHAR
STARTCHAR 0049
ENCODING 73
SWIDTH 750 0
DWIDTH 72 0
BBX 58 57 0 10
BITMAP
00001FFFFE000000
00001FFFFE000000
00001FFFFE000000
00001FFFFE000000
00001FFFFFFF0000
007FE00003FF0000
007FE00003FF0000
007FE00003FF0000
007FE00003FF0000
07C0000003FFF800
07C000000000F800
07C000000000F800
07C000000000F800
07C000000000F800
07C000000000F800
07C000000000F800
07C000000000F800
07C000000000F800
07C000000000F800
F8000000000007C0
F8000000000007C0
F8000000000007C0
F8000000000007C0
F8000000000007C0
F8000000000007C0
F8000000000007C0
F8000000000007C0
F8000000000007C0
F8000000000007C0
F8000000000007C0
F8000000000007C0
F8000000000007C0
F8000000000007C0
F8000000000007C0
F8000000000007C0
F8000000000007C0
F8000000000007C0
F8000000000007C0
07C000000000F800
07C000000000F800
07C000000000F800
07C000000000F800
07C000000000F800
07C000000000F800
07C000000000F800
07C000000000F800
07C000000000F800
07C000000000F800
007FE00003FF0000
007FE00003FF0000
007FE00003FF0000
007FE00003FF0000
007FE00003FF0000
00001FFFFE000000
00001FFFFE000000
00001FFFFE000000
00001FFFFE000000
ENDCHAR
STARTCHAR 004A
ENCODING 74
SWIDTH 645 0
DWIDTH 62 0
BBX 48 57 0 10
BITMAP
00001FFFFE00
00001FFFFE00
00001FFFFE00
00001FFFFE00
00001FFFFFFF
007FE00003FF
007FE00003FF
007FE00003FF
007FE00003FF
07C000007E00
07C000007E00
07C000007E00
07C000007E00
07C000007E00
07C000007E00
07C000007E00
07C000007E00
07C000007E00
07C000007E00
F8000007C000
F8000007C000
F8000007C000
F8000007C000
F8000007C000
F8000007C000
F8000007C000
F8000007C000
F8000007C000
F8000007C000
F8000007C000
F8000007C000
F8000007C000
F8000007C000
F8000007C000
F8000007C000
F8000007C000
F8000007C000
F8000007C000
07C000007E00
07C000007E00
07C000007E00
07C000007E00
07C000007E00
07C000007E00
07C000007E00
07C000007E00
07C000007E00
07C000007E00
007FE00003FF
007FE00003FF
007FE00003FF
007FE00003FF
007FE00003FF
00001FFFFE00
00001FFFFE00
00001FFFFE00
00001FFFFE00
ENDCHAR
STARTCHAR 004B
ENCODING 75
SWIDTH 500 0
DWIDTH 48 0
BBX 34 57 0 10
BITMAP
00001FFFC0
00001FFFC0
00001FFFC0
00001FFFC0
00001FFFC0
007FE007C0
007FE007C0
007FE007C0
007FE007C0
07C00007C0
07C00007C0
07C00007C0
07C00007C0
07C00007C0
07C00007C0
07C00007C0
07C00007C0
07C00007C0
07C00007C0
F8000007C0
F8000007C0
F8000007C0
F8000007C0
F8000007C0
F8000007C0
F8000007C0
F8000007C0
F8000007C0
F8000007C0
F8000007C0
F8000007C0
F8000007C0
F8000007C0
F8000007C0
F8000007C0
F8000007C0
F8000007C0
F8000007C0
07C00007C0
07C00007C0
07C00007C0
07C00007C0
07C00007C0
07C00007C0
07C00007C0
07C00007C0
07C00007C0
07C00007C0
007FE007C0
007FE007C0
007FE007C0
007FE007C0
007FE007C0
00001FFFC0
00001FFFC0
00001FFFC0
00001FFFC0
ENDCHAR
STARTCHAR 004C
ENCODING 76
SWIDTH 552 0
DWIDTH 53 0
BBX 38 57 0 10
BITMAP
00001FFFFC
00001FFFFC
00001FFFFC
00001FFFFC
00001FFFFC
007FE007C0
007FE007C0
007FE007C0
007FE007C0
07C000F800
07C000F800
07C000F800
07C000F800
07C000F800
07C000F800
07C000F800
07C000F800
07C000F800
07C000F800
F8001F0000
F8001F0000
F8001F0000
F8001F0000
F8001F0000
F8001F0000
F8001F0000
F8001F0000
F8001F0000
F8001F0000
F8001F0000
F8001F0000
F8001F0000
F8001F0000
F8001F0000
F8001F0000
F8001F0000
F8001F0000
F8001F0000
07C000F800
07C000F800
07C000F800
07C000F800
07C000F800
07C000F800
07C000F800
07C000F800
07C000F800
07C000F800
007FE007C0
007FE007C0
007FE007C0
007FE007C0
007FE007FC
00001FFFFC
00001FFFFC
00001FFFFC
00001FFFFC
ENDCHAR
STARTCHAR 004D
ENCODING 77
SWIDTH 697 0
DWIDTH 67 0
BBX 53 24 0 24
BITMAP
0000000003E000
0000000003E000
0000000003E000
0000000003E000
0000000003E000
F8000000001F00
F8000000001F00
F8000000001F00
F8000000001F00
F8000000001F00
FFFFFFFFFFFFF8
FFFFFFFFFFFFF8
FFFFFFFFFFFFF8
FFFFFFFFFFFFF8
00000000001F00
00000000001F00
00000000001F00
00000000001F00
00000000001F00
0000000003E000
0000000003E000
0000000003E000
0000000003E000
0000000003E000
ENDCHAR
STARTCHAR 004E
ENCODING 78
SWIDTH 697 0
DWIDTH 67 0
BBX 53 24 0 24
BITMAP
0000000003E000
0000000003E000
0000000003E000
0000000003E000
0000000003E000
F83C0000001F00
F83C0000001F00
F83C0000001F00
F83C0000001F00
F83C0000001F00
FFFFFFFFFFFFF8
FFFFFFFFFFFFF8
FFFFFFFFFFFFF8
FFFFFFFFFFFFF8
00000000001F00
00000000001F00
00000000001F00
00000000001F00
00000000001F00
0000000003E000
0000000003E000
0000000003E000
0000000003E000
0000000003E000
ENDCHAR
STARTCHAR 004F
ENCODING 79
SWIDTH 697 0
DWIDTH 67 0
BBX 53 24 0 24
BITMAP
0000000003E000
0000000003E000
0000000003E000
0000000003E000
0000000003E000
F83C1F00001F00
F83C1F00001F00
F83C1F00001F00
F83C1F00001F00
F83C1F00001F00
FFFFFFFFFFFFF8
FFFFFFFFFFFFF8
FFFFFFFFFFFFF8
FFFFFFFFFFFFF8
00000000001F00
00000000001F00
00000000001F00
00000000001F00
00000000001F00
0000000003E000
0000000003E000
0000000003E000
0000000003E000
0000000003E000
ENDCHAR
STARTCHAR 0050
ENCODING 80
SWIDTH 802 0
DWIDTH 77 0
BBX 62 48 0 15
BITMAP
000000FFFE000000
000000FFFE000000
000000FFFE000000
000000FFFE000000
00001F0003E00000
00001F0003E00000
00001F0003E00000
00001F0003E00000
00001F0003E00000
FFFFFFFFFFFFFFFC
FFFFFFFFFFFFFFFC
FFFFFFFFFFFFFFFC
FFFFFFFFFFFFFFFC
FFFFFFFFFFFFFFFC
F80000000000F87C
F80000000000F87C
F80000000000F87C
F80000000000F87C
F80000000000F87C
F80000000000F87C
F80000000000F87C
F80000000000F87C
F80000000000F87C
F80000000000F87C
F80000000000F87C
F80000000000F87C
F80000000000F87C
F80000000000F87C
F80000000000F87C
F80000000000F87C
F80000000000F87C
F80000000000F87C
F80000000000F87C
F80000000000F87C
F80000000000F87C
F80000000000F87C
F80000000000F87C
F80000000000F87C
F80000000000F87C
F80000000000F87C
F80000000000F87C
F80000000000F87C
F80000000000F87C
FFFFFFFFFFFFFFFC
FFFFFFFFFFFFFFFC
FFFFFFFFFFFFFFFC
FFFFFFFFFFFFFFFC
FFFFFFFFFFFFFFFC
ENDCHAR
STARTCHAR 0051
ENCODING 81
SWIDTH 802 0
DWIDTH 77 0
BBX 62 48 0 15
BITMAP
000000FFFE000000
000000FFFE000000
000000FFFE000000
000000FFFE000000
00001F0003E00000
00001F0003E00000
00001F0003E00000
00001F0003E00000
00001F0003E00000
FFFFFFFFFFFFFFFC
FFFFFFFFFFFFFFFC
FFFFFFFFFFFFFFFC
FFFFFFFFFFFFFFFC
FFFFFFFFFFFFFFFC
F80000000000F87C
F80000000000F87C
F80000000000F87C
F80000000000F87C
F80000000000F87C
F8001FFFC000F87C
F8001FFFC000F87C
F8001FFFC000F87C
F8001FFFC000F87C
F8001FFFC000F87C
F80000F80000F87C
F80000F80000F87C
F80000F80000F87C
F80000F80000F87C
F80000F80000F87C
F80000F80000F87C
F80000F80000F87C
F80000F80000F87C
F80000F80000F87C
F80000F80000F87C
F80000F80000F87C
F80000F80000F87C
F80000F80000F87C
F80000F80000F87C
F80000000000F87C
F80000000000F87C
F80000000000F87C
F80000000000F87C
F80000000000F87C
FFFFFFFFFFFFFFFC
FFFFFFFFFFFFFFFC
FFFFFFFFFFFFFFFC
FFFFFFFFFFFFFFFC
FFFFFFFFFFFFFFFC
ENDCHAR
STARTCHAR 0052
ENCODING 82
SWIDTH 802 0
DWIDTH 77 0
BBX 62 48 0 15
BITMAP
000000FFFE000000
000000FFFE000000
000000FFFE000000
000000FFFE000000
00001F0003E00000
00001F0003E00000
00001F0003E00000
00001F0003E00000
00001F0003E00000
FFFFFFFFFFFFFFFC
FFFFFFFFFFFFFFFC
FFFFFFFFFFFFFFFC
FFFFFFFFFFFFFFFC
FFFFFFFFFFFFFFFC
F80000000000F87C
F80000000000F87C
F80000000000F87C
F80000000000F87C
F80000000000F87C
F80000000000F87C
F80000000000F87C
F80000000000F87C
F80000000000F87C
F80000000000F87C
F80000000000F87C
F80000000000F87C
F80000000000F87C
F80000000000F87C
F80000000000F87C
F80000000000F87C
F80000000000F87C
F80000000000F87C
F80000000000F87C
F87E1F07C3E0F87C
F87E1F07C3E0F87C
F87E1F07C3E0F87C
F87E1F07C3E0F87C
F87E1F07C3E0F87C
F80000000000F87C
F80000000000F87C
F80000000000F87C
F80000000000F87C
F80000000000F87C
FFFFFFFFFFFFFFFC
FFFFFFFFFFFFFFFC
FFFFFFFFFFFFFFFC
FFFFFFFFFFFFFFFC
FFFFFFFFFFFFFFFC
ENDCHAR
STARTCHAR 0053
ENCODING 83
SWIDTH 802 0
DWIDTH 77 0
BBX 62 48 0 15
BITMAP
000000FFFE000000
000000FFFE000000
000000FFFE000000
000000FFFE000000
00001F0003E00000
00001F0003E00000
00001F0003E00000
00001F0003E00000
00001F0003E00000
FFFFFFFFFFFFFFFC
FFFFFFFFFFFFFFFC
FFFFFFFFFFFFFFFC
FFFFFFFFFFFFFFFC
FFFFFFFFFFFFFFFC
F80000000000F87C
F80000000000F87C
F80000000000F87C
F80000000000F87C
F80000000000F87C
F8001FFFC000F87C
F8001FFFC000F87C
F8001FFFC000F87C
F8001FFFC000F87C
F8001FFFC000F87C
F8001F07C000F87C
F8001F07C000F87C
F8001F07C000F87C
F8001F07C000F87C
F8001FFFC000F87C
F8001FFFC000F87C
F8001FFFC000F87C
F8001FFFC000F87C
F8001FFFC000F87C
F8001F000000F87C
F8001F000000F87C
F8001F000000F87C
F8001F000000F87C
F8001F000000F87C
F80000000000F87C
F80000000000F87C
F80000000000F87C
F80000000000F87C
F80000000000F87C
FFFFFFFFFFFFFFFC
FFFFFFFFFFFFFFFC
FFFFFFFFFFFFFFFC
FFFFFFFFFFFFFFFC
FFFFFFFFFFFFFFFC
ENDCHAR
STARTCHAR 0054
ENCODING 84
SWIDTH 947 0
DWIDTH 91 0
BBX 77 57 0 10
BITMAP
000000007FFF00000000
000000007FFF00000000
000000007FFF00000000
000000007FFF00000000
000000007FFFF8000000
00000007C000F8000000
00000007C000F8000000
00000007C000F8000000
00000007C000F8000000
0003FFFFFFFFFFFFFF00
0003FFFFFFFFFFFFFF00
0003FFFFFFFFFFFFFF00
0003FFFFFFFFFFFFFF00
0003FFFFFFFFFFFFFF00
007E00000000000000F8
007E00000000000000F8
007E00000000000000F8
007E00000000000000F8
007E00000000000000F8
07FFFFFFFFFFF80000F8
07FFFFFFFFFFF80000F8
07FFFFFFFFFFF80000F8
07FFFFFFFFFFF80000F8
07FFFFFFFFFFF80000F8
F8000000000007C000F8
F8000000000007C000F8
F8000000000007C000F8
F8000000000007C000F8
F8000000000007C000F8
F8000000000007C01FF8
F8000000000007C01FF8
F8000000000007C01FF8
F8000000000007C01FF8
FFC00000000007FE1F00
FFC00000000007FE1F00
FFC00000000007FE1F00
FFC00000000007FE1F00
FFC00000000007FE1F00
07C000000000007E1F00
07C000000000007E1F00
07C000000000007E1F00
07C000000000007E1F00
07C000000000007E1F00
07C000000000007E1F00
07C000000000007E1F00
07C000000000007E1F00
07C000000000007E1F00
07C000000000007E1F00
07FE00000000007E1F00
07FE00000000007E1F00
07FE00000000007E1F00
07FE00000000007E1F00
07FE00000000007E1F00
007FFFFFFFFFFFFFE000
007FFFFFFFFFFFFFE000
007FFFFFFFFFFFFFE000
007FFFFFFFFFFFFFE000
ENDCHAR
STARTCHAR 0055
ENCODING 85
SWIDTH 802 0
DWIDTH 77 0
BBX 62 77 0 0
BITMAP
00000007FFE00000
00000007FFE00000
00000007FFE00000
00000007FFE00000
00000007FFE00000
00001FFFC3FFF800
00001FFFC3FFF800
00001FFFC3FFF800
00001FFFC3FFF800
00001FFFC3FFF800
00001F07C3E0FFC0
00001F07C3E0FFC0
00001F07C3E0FFC0
00001F07C3E0FFC0
00001F07C3E0FFFC
00001F07C3E0F87C
00001F07C3E0F87C
00001F07C3E0F87C
00001F07C3E0F87C
FFFE1F07C3E0F87C
FFFE1F07C3E0F87C
FFFE1F07C3E0F87C
FFFE1F07C3E0F87C
FFFE1F07C3E0F87C
F803FF000000F87C
F803FF000000F87C
F803FF000000F87C
F803FF000000F87C
F803FF000000F87C
FFC000000000007C
FFC000000000007C
FFC000000000007C
FFC000000000007C
FFC000000000007C
07FE00000000007C
07FE00000000007C
07FE00000000007C
07FE00000000007C
07FFE0000000007C
007FE000000007FC
007FE000000007FC
007FE000000007FC
007FE000000007FC
007FFF000000FFC0
0003FF000000FFC0
0003FF000000FFC0
0003FF000000FFC0
0003FF000000FFC0
00001FFFFFFFF800
00001FFFFFFFF800
00001FFFFFFFF800
00001FFFFFFFF800
00001FFFFFFFF800
00001F007E00F800
00001F007E00F800
00001F007E00F800
00001F007E00F800
00001F007E00F800
0003E00003E007C0
0003E00003E007C0
0003E00003E007C0
0003E00003E007C0
0003E007C3E007C0
0003E007C3E007C0
0003E007C3E007C0
0003E007C3E007C0
0003E007C3E007C0
007E0007C3E007FC
007E000003E0007C
007E000003E0007C
007E000003E0007C
007E000003E0007C
007FFFFFFFFFFFFC
007FFFFFFFFFFFFC
007FFFFFFFFFFFFC
007FFFFFFFFFFFFC
007FFFFFFFFFFFFC
ENDCHAR
STARTCHAR 0056
ENCODING 86
SWIDTH 750 0
DWIDTH 72 0
BBX 58 72 0 0
BITMAP
00001F0000000000
00001F0000000000
00001F0000000000
00001F0000000000
00001F0000000000
0003E0F800000000
0003E0F800000000
0003E0F800000000
0003E0F800000000
0003E0F800000000
0003E0F800000000
0003E0F800000000
0003E0F800000000
0003E0F800000000
0003E0F800000000
0003E0F800000000
0003E0F800000000
0003E0F800000000
0003E0F800000000
0003E0F800000000
0003E0F800000000
0003E0F800000000
0003E0F800000000
0003E0F800000000
0003E0FFFFE00000
0003E0FFFFE00000
0003E0FFFFE00000
0003E0FFFFE00000
0003E0FFFFE00000
0003E0F87E1FF800
0003E0F87E1FF800
0003E0F87E1FF800
0003E0F87E1FF800
FFC3E0F87E1FFFC0
FFC3E0F87E1F07C0
FFC3E0F87E1F07C0
FFC3E0F87E1F07C0
FFC3E0F87E1F07C0
F87FE0F87E1F07C0
F87FE0F87E1F07C0
F87FE0F87E1F07C0
F87FE0F87E1F07C0
F87FE0F87E1F07C0
F803E0F87E1F07C0
F803E0F87E1F07C0
F803E0F87E1F07C0
F803E0F87E1F07C0
F803E0F87E1F07C0
07C01FFFFFFFFFC0
07C01FFFFFFFFFC0
07C01FFFFFFFFFC0
07C01FFFFFFFFFC0
07C01FFFFFFFFFC0
07C000F8000007C0
07C000F8000007C0
07C000F8000007C0
07C000F8000007C0
07FE00F8000007C0
007E0000000007C0
007E0000000007C0
007E0000000007C0
007E0000000007C0
007FE0000000F800
0003E0000000F800
0003E0000000F800
0003E0000000F800
0003E0000000F800
00001FFFFFFF0000
00001FFFFFFF0000
00001FFFFFFF0000
00001FFFFFFF0000
00001FFFFFFF0000
ENDCHAR
STARTCHAR 0057
ENCODING 87
SWIDTH 895 0
DWIDTH 86 0
BBX 72 57 0 10
BITMAP
000000FFFE00000000
000000FFFE00000000
000000FFFE00000000
000000FFFE00000000
000000FFFE00000000
0003FF007E00000000
0003FF007E00000000
0003FF007E00000000
0003FF007E00000000
007E0007C000000000
007E0007C000000000
007E0007C000000000
007E0007C000000000
007E0007C000000000
07C000FFFFFFFFFFE0
07C000FFFFFFFFFFE0
07C000FFFFFFFFFFE0
07C000FFFFFFFFFFE0
07C000FFFFFFFFFFE0
F8001F00000000001F
F8001F00000000001F
F8001F00000000001F
F8001F00000000001F
F8001F00000000001F
F803FFFFFFFFFFFFE0
F803FFFFFFFFFFFFE0
F803FFFFFFFFFFFFE0
F803FFFFFFFFFFFFE0
F803FFFFFFFFFFFFE0
F8001F00001F000000
F8001F00001F000000
F8001F00001F000000
F8001F00001F000000
F8001FFFFFFF000000
F8001FFFFFFF000000
F8001FFFFFFF000000
F8001FFFFFFF000000
F8001FFFFFFF000000
F8001F00001F000000
F8001F00001F000000
F8001F00001F000000
F8001F00001F000000
F8001F00001F000000
F8001FFFFFE0000000
F8001FFFFFE0000000
F8001FFFFFE0000000
F8001FFFFFE0000000
F8001FFFFFE0000000
07C01F0003E0000000
07C01F0003E0000000
07C01F0003E0000000
07C01F0003E0000000
07C01F0003E0000000
007FFFFFFE00000000
007FFFFFFE00000000
007FFFFFFE00000000
007FFFFFFE00000000
ENDCHAR
STARTCHAR 0058
ENCODING 88
SWIDTH 895 0
DWIDTH 86 0
BBX 72 57 0 10
BITMAP
000000007FFF000000
000000007FFF000000
000000007FFF000000
000000007FFF000000
000000007FFFFFC000
000000007E00FFC000
000000007E00FFC000
000000007E00FFC000
000000007E00FFC000
000000007FE0FFFE00
0000000003E0007E00
0000000003E0007E00
0000000003E0007E00
0000000003E0007E00
07FFFFFFFFFF0003E0
07FFFFFFFFFF0003E0
07FFFFFFFFFF0003E0
07FFFFFFFFFF0003E0
07FFFFFFFFFF0003E0
F80000000000F8001F
F80000000000F8001F
F80000000000F8001F
F80000000000F8001F
F80000000000F8001F
07FFFFFFFFFFFFC01F
07FFFFFFFFFFFFC01F
07FFFFFFFFFFFFC01F
07FFFFFFFFFFFFC01F
07FFFFFFFFFFFFC01F
000000F80000F8001F
000000F80000F8001F
000000F80000F8001F
000000F80000F8001F
000000FFFFFFF8001F
000000FFFFFFF8001F
000000FFFFFFF8001F
000000FFFFFFF8001F
000000FFFFFFF8001F
000000F80000F8001F
000000F80000F8001F
000000F80000F8001F
000000F80000F8001F
000000F80000F8001F
00000007FFFFF8001F
00000007FFFFF8001F
00000007FFFFF8001F
00000007FFFFF8001F
00000007FFFFF8001F
00000007C000F803E0
00000007C000F803E0
00000007C000F803E0
00000007C000F803E0
00000007C000F803E0
000000007FFFFFFE00
000000007FFFFFFE00
000000007FFFFFFE00
000000007FFFFFFE00
ENDCHAR
STARTCHAR 0059
ENCODING 89
SWIDTH 750 0
DWIDTH 72 0
BBX 58 72 0 0
BITMAP
00001FFFFFFF0000
00001FFFFFFF0000
00001FFFFFFF0000
00001FFFFFFF0000
00001FFFFFFF0000
0003E0000000F800
0003E0000000F800
0003E0000000F800
0003E0000000F800
0003E0000000FFC0
007E0000000007C0
007E0000000007C0
007E0000000007C0
007E0000000007C0
07C000F8000007C0
07C000F8000007C0
07C000F8000007C0
07C000F8000007C0
07C000F8000007C0
07C01FFFFFFFFFC0
07C01FFFFFFFFFC0
07C01FFFFFFFFFC0
07C01FFFFFFFFFC0
07C01FFFFFFFFFC0
F803E0F87E1F07C0
F803E0F87E1F07C0
F803E0F87E1F07C0
F803E0F87E1F07C0
F803E0F87E1F07C0
F87FE0F87E1F07C0
F87FE0F87E1F07C0
F87FE0F87E1F07C0
F87FE0F87E1F07C0
F87FE0F87E1F07C0
FFC3E0F87E1F07C0
FFC3E0F87E1F07C0
FFC3E0F87E1F07C0
FFC3E0F87E1F07C0
FFC3E0F87E1FF800
0003E0F87E1FF800
0003E0F87E1FF800
0003E0F87E1FF800
0003E0F87E1FF800
0003E0FFFFE00000
0003E0FFFFE00000
0003E0FFFFE00000
0003E0FFFFE00000
0003E0FFFFE00000
0003E0F800000000
0003E0F800000000
0003E0F800000000
0003E0F800000000
0003E0F800000000
0003E0F800000000
0003E0F800000000
0003E0F800000000
0003E0F800000000
0003E0F800000000
0003E0F800000000
0003E0F800000000
0003E0F800000000
0003E0F800000000
0003E0F800000000
0003E0F800000000
0003E0F800000000
0003E0F800000000
0003E0F800000000
00001F0000000000
00001F0000000000
00001F0000000000
00001F0000000000
00001F0000000000
ENDCHAR
STARTCHAR 005A
ENCODING 90
SWIDTH 947 0
DWIDTH 91 0
BBX 77 62 0 5
BITMAP
00000000001FFFC00000
00000000001FFFC00000
00000000001FFFC00000
00000000001FFFC00000
00000000001FFFFE1F00
0000000003E0007E1F00
0000000003E0007E1F00
0000000003E0007E1F00
0000000003E0007E1F00
0000000003E0007FFF00
0000000000000003FF00
0000000000000003FF00
0000000000000003FF00
0000000000000003FF00
07FFE0000000007FFF00
07FFE0000000007FFF00
07FFE0000000007FFF00
07FFE0000000007FFF00
07FFE0000000007FFF00
FFC3FFFFFFFFF8000000
FFC3FFFFFFFFF8000000
FFC3FFFFFFFFF8000000
FFC3FFFFFFFFF8000000
FFC3FFFFFFFFF8000000
F87E1F07C3E0F8000000
F87E1F07C3E0F8000000
F87E1F07C3E0F8000000
F87E1F07C3E0F8000000
F87E1F07C3E0F8000000
FFC3E0F87E1FF8000000
FFC3E0F87E1FF8000000
FFC3E0F87E1FF8000000
FFC3E0F87E1FF8000000
F87E1FFFFFFFFFFFFFF8
F87E1FFFFFFFFFFFFFF8
F87E1FFFFFFFFFFFFFF8
F87E1FFFFFFFFFFFFFF8
F87E1FFFFFFFFFFFFFF8
FFC3FFFFFFFFFFFFFF00
FFC3FFFFFFFFFFFFFF00
FFC3FFFFFFFFFFFFFF00
FFC3FFFFFFFFFFFFFF00
FFC3FFFFFFFFFFFFFF00
F87FFFFFFFFFFFFFE000
F87FFFFFFFFFFFFFE000
F87FFFFFFFFFFFFFE000
F87FFFFFFFFFFFFFE000
F87FFFFFFFFFFFFFE000
FFFFFFFFFFFFFFFE0000
FFFFFFFFFFFFFFFE0000
FFFFFFFFFFFFFFFE0000
FFFFFFFFFFFFFFFE0000
FFFFFFFFFFFFFFFE0000
FFFFFFFFFFFFFFC00000
FFFFFFFFFFFFFFC00000
FFFFFFFFFFFFFFC00000
FFFFFFFFFFFFFFC00000
FFFFFFFFFFFFF8000000
FFFFFFFFFFFFF8000000
FFFFFFFFFFFFF8000000
FFFFFFFFFFFFF8000000
FFFFFFFFFFFFF8000000
ENDCHAR
STARTCHAR 005B
ENCODING 91
SWIDTH 854 0
DWIDTH 82 0
BBX 67 67 0 4
BITMAP
0003FFFFC000000000
0003FFFFC000000000
0003FFFFC000000000
0003FFFFC000000000
0003FFFFC000000000
07FE00007FE0000000
07FE00007FE0000000
07FE00007FE0000000
07FE00007FE0000000
07FE00007FE0000000
07C0000003E0000000
07C0000003E0000000
07C0000003E0000000
07C0000003E0000000
F800000003FF000000
F8000000001F000000
F8000000001F000000
F8000000001F000000
F8000000001F000000
F8000000001F000000
F8000000001F000000
F8000000001F000000
F8000000001F000000
F8000000001F000000
F8000000001F000000
F8000000001F000000
F8000000001F000000
F8000000001F000000
F8000000001F000000
F8000000001F000000
F8000000001F000000
F8000000001F000000
F8000000001F000000
FFC00000001F000000
07C0000003E0000000
07C0000003E0000000
07C0000003E0000000
07C0000003E0000000
07FE00007FFF000000
07FE00007FFF000000
07FE00007FFF000000
07FE00007FFF000000
07FE00007FFF000000
0003FFFFC3FFF80000
0003FFFFC3FFF80000
0003FFFFC3FFF80000
0003FFFFC3FFF80000
0003FFFFC3FFF80000
00000000001FFFC000
00000000001FFFC000
00000000001FFFC000
00000000001FFFC000
00000000001FFFC000
000000000000FFFE00
000000000000FFFE00
000000000000FFFE00
000000000000FFFE00
000000000000FFFFE0
00000000000007FFE0
00000000000007FFE0
00000000000007FFE0
00000000000007FFE0
00000000000007FE00
000000000000007E00
000000000000007E00
000000000000007E00
000000000000007E00
ENDCHAR
STARTCHAR 005C
ENCODING 92
SWIDTH 854 0
DWIDTH 82 0
BBX 67 67 0 4
BITMAP
000000000000F80000
000000000000F80000
000000000000F80000
000000000000F80000
000000000000F80000
00000000001F07C000
00000000001F07C000
00000000001F07C000
00000000001F07C000
00000000001F07FE00
0000000003E0007E00
0000000003E0007E00
0000000003E0007E00
0000000003E0007E00
000000007E1F007FE0
000000007E1F0003E0
000000007E1F0003E0
000000007E1F0003E0
000000007E1F0003E0
00000007C000007E00
00000007C000007E00
00000007C000007E00
00000007C000007E00
00000007C000007E00
000000F87E0007C000
000000F87E0007C000
000000F87E0007C000
000000F87E0007C000
000000F87E0007C000
00001F000000F80000
00001F000000F80000
00001F000000F80000
00001F000000F80000
00001FF80000F80000
0003E0F8001F000000
0003E0F8001F000000
0003E0F8001F000000
0003E0F8001F000000
007E00F803E0000000
007E000003E0000000
007E000003E0000000
007E000003E0000000
007E000003E0000000
07C3E0007E00000000
07C3E0007E00000000
07C3E0007E00000000
07C3E0007E00000000
07C3E0007E00000000
F8000007C000000000
F8000007C000000000
F8000007C000000000
F8000007C000000000
F8000007C000000000
07C000F80000000000
07C000F80000000000
07C000F80000000000
07C000F80000000000
07FE00F80000000000
007E1F000000000000
007E1F000000000000
007E1F000000000000
007E1F000000000000
007FE0000000000000
0003E0000000000000
0003E0000000000000
0003E0000000000000
0003E0000000000000
ENDCHAR
STARTCHAR 005D
ENCODING 93
SWIDTH 854 0
DWIDTH 82 0
BBX 67 77 0 0
BITMAP
007E00F803E007C000
007E00F803E007C000
007E00F803E007C000
007E00F803E007C000
007E00F803E007C000
FFFFFFFFFFFFFFFFE0
FFFFFFFFFFFFFFFFE0
FFFFFFFFFFFFFFFFE0
FFFFFFFFFFFFFFFFE0
FFFFFFFFFFFFFFFFE0
F87E00F803E007C3E0
F87E00F803E007C3E0
F87E00F803E007C3E0
F87E00F803E007C3E0
F87E00F803E007C3E0
F800000000000003E0
F800000000000003E0
F800000000000003E0
F800000000000003E0
F800000000000003E0
F800000000000003E0
F800000000000003E0
F800000000000003E0
F800000000000003E0
FFFFFFFFFFFFFFFFE0
FFFFFFFFFFFFFFFFE0
FFFFFFFFFFFFFFFFE0
FFFFFFFFFFFFFFFFE0
FFFFFFFFFFFFFFFFE0
F800000000000003E0
F800000000000003E0
F800000000000003E0
F800000000000003E0
F800000000000003E0
FFFFFFFFFFFFFFFFE0
FFFFFFFFFFFFFFFFE0
FFFFFFFFFFFFFFFFE0
FFFFFFFFFFFFFFFFE0
FFFFFFFFFFFFFFFFE0
F800000000000003E0
F800000000000003E0
F800000000000003E0
F800000000000003E0
FFFFFFFFFFFFFFFFE0
FFFFFFFFFFFFFFFFE0
FFFFFFFFFFFFFFFFE0
FFFFFFFFFFFFFFFFE0
FFFFFFFFFFFFFFFFE0
F800000000000003E0
F800000000000003E0
F800000000000003E0
F800000000000003E0
F800000000000003E0
FFFFFF07FFFFFFFFE0
FFFFFF07FFFFFFFFE0
FFFFFF07FFFFFFFFE0
FFFFFF07FFFFFFFFE0
FFFFFF07FFFFFFFFE0
FFC01F0000000003E0
FFC01F0000000003E0
FFC01F0000000003E0
FFC01F0000000003E0
FFFE1F0000000003E0
F87E1F07FFFFFFFFE0
F87E1F07FFFFFFFFE0
F87E1F07FFFFFFFFE0
F87E1F07FFFFFFFFE0
F87FFF07FFFFFFFFE0
F803FF0000000003E0
F803FF0000000003E0
F803FF0000000003E0
F803FF0000000003E0
FFFFFFFFFFFFFFFFE0
FFFFFFFFFFFFFFFFE0
FFFFFFFFFFFFFFFFE0
FFFFFFFFFFFFFFFFE0
FFFFFFFFFFFFFFFFE0
ENDCHAR
STARTCHAR 005E
ENCODING 94
SWIDTH 854 0
DWIDTH 82 0
BBX 67 77 0 0
BITMAP
007E00F803E007C000
007E00F803E007C000
007E00F803E007C000
007E00F803E007C000
007E00F803E007C000
FFFFFFFFFFFFFFFFE0
FFFFFFFFFFFFFFFFE0
FFFFFFFFFFFFFFFFE0
FFFFFFFFFFFFFFFFE0
FFFFFFFFFFFFFFFFE0
F87E00F803E007C3E0
F87E00F803E007C3E0
F87E00F803E007C3E0
F87E00F803E007C3E0
F87E00F803E007C3E0
F800000000000003E0
F800000000000003E0
F800000000000003E0
F800000000000003E0
F800000000000003E0
F800000000000003E0
F800000000000003E0
F800000000000003E0
F800000000000003E0
F800000000000003E0
F800000000000003E0
F800000000000003E0
F800000000000003E0
F800000000000003E0
F800000000000003E0
F800000000000003E0
F800000000000003E0
F800000000000003E0
F800000000000003E0
F800000000000003E0
F800000000000003E0
F800000000000003E0
F800000000000003E0
F800000000000003E0
F800000000000003E0
F800000000000003E0
F800000000000003E0
F800000000000003E0
FFFFFF0000000003E0
FFFFFF0000000003E0
FFFFFF0000000003E0
FFFFFF0000000003E0
FFFFFF0000000003E0
FFC01F0000000003E0
FFC01F0000000003E0
FFC01F0000000003E0
FFC01F0000000003E0
FFC01F0000000003E0
F87E1F0000000003E0
F87E1F0000000003E0
F87E1F0000000003E0
F87E1F0000000003E0
F87E1F0000000003E0
F803FF0000000003E0
F803FF0000000003E0
F803FF0000000003E0
F803FF0000000003E0
F803FF0000000003E0
F8001FFFFFFFFFFFE0
F8001FFFFFFFFFFFE0
F8001FFFFFFFFFFFE0
F8001FFFFFFFFFFFE0
F8001FFFFFFFFFFFE0
F800000000000003E0
F800000000000003E0
F800000000000003E0
F800000000000003E0
FFFFFFFFFFFFFFFFE0
FFFFFFFFFFFFFFFFE0
FFFFFFFFFFFFFFFFE0
FFFFFFFFFFFFFFFFE0
FFFFFFFFFFFFFFFFE0
ENDCHAR
STARTCHAR 005F
ENCODING 95
SWIDTH 500 0
DWIDTH 48 0
BBX 34 67 0 4
BITMAP
FFFFFFFFC0
FFFFFFFFC0
FFFFFFFFC0
FFFFFFFFC0
FFFFFFFFC0
07FFFFF800
07FFFFF800
07FFFFF800
07FFFFF800
07FFFFF800
07FFFFF800
07FFFFF800
07FFFFF800
07FFFFF800
07C000F800
07C000F800
07C000F800
07C000F800
07C000F800
FFC000FFC0
FFC000FFC0
FFC000FFC0
FFC000FFC0
FFC000FFC0
F8000007C0
F8000007C0
F8000007C0
F8000007C0
F8000007C0
F803E007C0
F803E007C0
F803E007C0
F803E007C0
F803E007C0
F803E007C0
F803E007C0
F803E007C0
F803E007C0
FFC3E0F800
07C3E0F800
07C3E0F800
07C3E0F800
07C3E0F800
07C3E0F800
07C3E0F800
07C3E0F800
07C3E0F800
07C3E0F800
007E1F0000
007E1F0000
007E1F0000
007E1F0000
007E1F0000
007E1F0000
007E1F0000
007E1F0000
007E1F0000
007E1F0000
0003E00000
0003E00000
0003E00000
0003E00000
0003E00000
0003E00000
0003E00000
0003E00000
0003E00000
ENDCHAR
STARTCHAR 0060
ENCODING 96
SWIDTH 447 0
DWIDTH 43 0
BBX 29 52 0 10
BITMAP
F8000000
F8000000
F8000000
F8000000
FFC00000
FFC00000
FFC00000
FFC00000
FFC00000
F87E0000
F87E0000
F87E0000
F87E0000
F87E0000
F803E000
F803E000
F803E000
F803E000
F803E000
F8001F00
F8001F00
F8001F00
F8001F00
F8001FF8
F80000F8
F80000F8
F80000F8
F80000F8
F8001F00
F8001F00
F8001F00
F8001F00
F8001F00
F803E000
F803E000
F803E000
F803E000
F803E000
F87E0000
F87E0000
F87E0000
F87E0000
F87E0000
FFC00000
FFC00000
FFC00000
FFC00000
FFC00000
F8000000
F8000000
F8000000
F8000000
ENDCHAR
STARTCHAR 0061
ENCODING 97
SWIDTH 947 0
DWIDTH 91 0
BBX 77 39 0 19
BITMAP
0003FFFFFFFF00000000
0003FFFFFFFF00000000
0003FFFFFFFF00000000
0003FFFFFFFF00000000
0003FFFFFFFF00000000
007FFF000000F8000000
007FFF000000F8000000
007FFF000000F8000000
007FFF000000F8000000
007FFF000000F8000000
07FFE000000007C00000
07FFE000000007C00000
07FFE000000007C00000
07FFE000000007C00000
07FFE000000007C00000
FFFFFFFFFFFFFFFFFF00
FFFFFFFFFFFFFFFFFF00
FFFFFFFFFFFFFFFFFF00
FFFFFFFFFFFFFFFFFF00
FFFFFFFFFFFFFFFFFFF8
FFFFFFFFFFFFFFFFFFF8
FFFFFFFFFFFFFFFFFFF8
FFFFFFFFFFFFFFFFFFF8
FFFFFFFFFFFFFFFFFFF8
FFFFFFFFFFFFFFFFFFF8
FFFFFFFFFFFFFFFFFFF8
FFFFFFFFFFFFFFFFFFF8
FFFFFFFFFFFFFFFFFFF8
FFFFFFFFFFFFFFFFFFF8
07C01F000000F803E000
07C01F000000F803E000
07C01F000000F803E000
07C01F000000F803E000
07C01F000000F803E000
007FE000000007FE0000
007FE000000007FE0000
007FE000000007FE0000
007FE000000007FE0000
007FE000000007FE0000
ENDCHAR
STARTCHAR 0062
ENCODING 98
SWIDTH 854 0
DWIDTH 82 0
BBX 67 72 0 0
BITMAP
00000007FE00000000
00000007FE00000000
00000007FE00000000
00000007FE00000000
00000007FE00000000
00000007FE00000000
00000007FE00000000
00000007FE00000000
00000007FE00000000
00000007FE00000000
00000007FE00000000
00000007FE00000000
00000007FE00000000
00000007FE00000000
00000007FE00000000
00000007FE00000000
00000007FE00000000
00000007FE00000000
00000007FE00000000
00000007FE00000000
00000007FE00000000
00000007FE00000000
00000007FE00000000
00000007FE00000000
00000007FE00000000
00000007FE00000000
00000007FE00000000
00000007FE00000000
00000007FE00000000
000000FFFFE0000000
000000FFFFE0000000
000000FFFFE0000000
000000FFFFE0000000
007E00FFFFFF07C000
007E1FFFFFFF07C000
007E1FFFFFFF07C000
007E1FFFFFFF07C000
007E1FFFFFFF07C000
007FFFFFFFFFFFC000
007FFFFFFFFFFFC000
007FFFFFFFFFFFC000
007FFFFFFFFFFFC000
007FFFFFFFFFFFC000
07FFFF07FE1FFFFE00
07FFFF07FE1FFFFE00
07FFFF07FE1FFFFE00
07FFFF07FE1FFFFE00
07FFFF07FE1FFFFE00
FFFFE007FE00FFFFE0
FFFFE007FE00FFFFE0
FFFFE007FE00FFFFE0
FFFFE007FE00FFFFE0
FFFFE007FE00FFFFE0
FFC00007FE00007FE0
FFC00007FE00007FE0
FFC00007FE00007FE0
FFC00007FE00007FE0
FFC00007FE00007FE0
00000007FE00000000
00000007FE00000000
00000007FE00000000
00000007FE00000000
000000FFFFE0000000
000000FFFFE0000000
000000FFFFE0000000
000000FFFFE0000000
000000FFFFE0000000
00001FF803FF000000
00001FF803FF000000
00001FF803FF000000
00001FF803FF000000
00001FF803FF000000
ENDCHAR
STARTCHAR 0063
ENCODING 99
SWIDTH 895 0
DWIDTH 86 0
BBX 72 62 0 5
BITMAP
FFC000000000000000
FFC000000000000000
FFC000000000000000
FFC000000000000000
FFFE00000000000000
07FE00000000000000
07FE00000000000000
07FE00000000000000
07FE00000000000000
07FFFFFFFFFFFFFFFF
007FFFFFFFFFFFFFFF
007FFFFFFFFFFFFFFF
007FFFFFFFFFFFFFFF
007FFFFFFFFFFFFFFF
0003E00000000003E0
0003E00000000003E0
0003E00000000003E0
0003E00000000003E0
0003E00000000003E0
0003E00000000003E0
0003E00000000003E0
0003E00000000003E0
0003E00000000003E0
0003E00000000003E0
0003E0000000007FE0
0003E0000000007FE0
0003E0000000007FE0
0003E0000000007FE0
0003E0000000007FE0
0003E0000000007E00
0003E0000000007E00
0003E0000000007E00
0003E0000000007E00
0003FFFFFFFFFFFE00
0003FFFFFFFFFFFE00
0003FFFFFFFFFFFE00
0003FFFFFFFFFFFE00
0003FFFFFFFFFFFE00
0003E0000000000000
0003E0000000000000
0003E0000000000000
0003E0000000000000
0003E0000000000000
0003E0000000000000
0003E0000000000000
0003E0000000000000
0003E0000000000000
0003E0000000000000
0003FFFFFFFFFFFE00
0003FFFFFFFFFFFE00
0003FFFFFFFFFFFE00
0003FFFFFFFFFFFE00
0003FFFFFFFFFFFFE0
007E00F80000F803E0
007E00F80000F803E0
007E00F80000F803E0
007E00F80000F803E0
007FFF000000FFFE00
0003FF00000007FE00
0003FF00000007FE00
0003FF00000007FE00
0003FF00000007FE00
ENDCHAR
STARTCHAR 0064
ENCODING 100
SWIDTH 750 0
DWIDTH 72 0
BBX 58 77 0 0
BITMAP
00000000000007C0
00000000000007C0
00000000000007C0
00000000000007C0
00000000000007C0
00000000001FFFC0
00000000001FFFC0
00000000001FFFC0
00000000001FFFC0
00000000001FFFC0
00000007FFFFFFC0
00000007FFFFFFC0
00000007FFFFFFC0
00000007FFFFFFC0
00000007FFFFFFC0
00001FFFFFFFFFC0
00001FFFFFFFFFC0
00001FFFFFFFFFC0
00001FFFFFFFFFC0
00001FFFFFE007C0
00001FFFFFE007C0
00001FFFFFE007C0
00001FFFFFE007C0
00001FFFFFE007C0
00001FFFC00007C0
00001FFFC00007C0
00001FFFC00007C0
00001FFFC00007C0
00001FFFC00007C0
00001F00000007C0
00001F00000007C0
00001F00000007C0
00001F00000007C0
00001F00000007C0
00001F00000007C0
00001F00000007C0
00001F00000007C0
00001F00000007C0
00001F00000007C0
00001F00001F07C0
00001F00001F07C0
00001F00001F07C0
00001F00001F07C0
00001F0003FFFFC0
00001F0003FFFFC0
00001F0003FFFFC0
00001F0003FFFFC0
00001F0003FFFFC0
00001F003FFFFFC0
00001F003FFFFFC0
00001F003FFFFFC0
00001F003FFFFFC0
00001F003FFFFFC0
003C1F003FFFFFC0
003C1F003FFFFFC0
003C1F003FFFFFC0
003C1F003FFFFFC0
003C1F003FFFFFC0
07FFFF0003FFF800
07FFFF0003FFF800
07FFFF0003FFF800
07FFFF0003FFF800
07FFFF0003FFF800
FFFFFF0000000000
FFFFFF0000000000
FFFFFF0000000000
FFFFFF0000000000
FFFFFF0000000000
FFFFFF0000000000
FFFFFF0000000000
FFFFFF0000000000
FFFFFF0000000000
07FFE00000000000
07FFE00000000000
07FFE00000000000
07FFE00000000000
07FFE00000000000
ENDCHAR
STARTCHAR 0065
ENCODING 101
SWIDTH 895 0
DWIDTH 86 0
BBX 72 72 0 0
BITMAP
003FFFFFFFFFFFFC00
003FFFFFFFFFFFFC00
003FFFFFFFFFFFFC00
003FFFFFFFFFFFFC00
003FFFFFFFFFFFFC00
07FFFFFFFFFFFFFFE0
07FFFFFFFFFFFFFFE0
07FFFFFFFFFFFFFFE0
07FFFFFFFFFFFFFFE0
07FFFFFFFFFFFFFFE0
07FC00000000003FE0
07FC00000000003FE0
07FC00000000003FE0
07FC00000000003FE0
07FC00000000003FE0
07FC00000000003FE0
07FC00000000003FE0
07FC00000000003FE0
07FC00000000003FE0
07FC00000000003FE0
07FC00000000003FE0
07FC00000000003FE0
07FC00000000003FE0
07FC00000000003FE0
07FC00000000003FE0
07FC00000000003FE0
07FC00000000003FE0
07FC00000000003FE0
07FC00000000003FE0
07FC00000000003FE0
07FC00000000003FE0
07FC00000000003FE0
07FC00000000003FE0
07FC00000000003FE0
07FC00000000003FE0
07FC00000000003FE0
07FC00000000003FE0
07FC00000000003FE0
07FC00000000003FE0
07FC00000000003FE0
07FC00000000003FE0
07FC00000000003FE0
07FC00000000003FE0
07FFFFFFFFFFFFFFE0
07FFFFFFFFFFFFFFE0
07FFFFFFFFFFFFFFE0
07FFFFFFFFFFFFFFE0
07FFFFFFFFFFFFFFE0
003FFFFFFFFFFFFC00
003FFFFFFFFFFFFC00
003FFFFFFFFFFFFC00
003FFFFFFFFFFFFC00
003FFFFFFFFFFFFC00
000000000000000000
000000000000000000
000000000000000000
000000000000000000
000000000000000000
07FFFFFFFFFFFFFFE0
07FFFFFFFFFFFFFFE0
07FFFFFFFFFFFFFFE0
07FFFFFFFFFFFFFFE0
FFFC1F07C3FFFFFFFF
FFFC1F07C3FFFFFFFF
FFFC1F07C3FFFFFFFF
FFFC1F07C3FFFFFFFF
FFFC1F07C3FFFFFFFF
FFFFFFFFFFFFFFFFFF
FFFFFFFFFFFFFFFFFF
FFFFFFFFFFFFFFFFFF
FFFFFFFFFFFFFFFFFF
FFFFFFFFFFFFFFFFFF
ENDCHAR
STARTCHAR 0066
ENCODING 102
SWIDTH 802 0
DWIDTH 77 0
BBX 62 62 0 5
BITMAP
FFFFFFFFFFFFFFFC
FFFFFFFFFFFFFFFC
FFFFFFFFFFFFFFFC
FFFFFFFFFFFFFFFC
FFFFFFFFFFFFFFFC
07FFFFFFFFFFFFC0
07FFFFFFFFFFFFC0
07FFFFFFFFFFFFC0
07FFFFFFFFFFFFC0
003FFFFFFFFFF800
003FFFFFFFFFF800
003FFFFFFFFFF800
003FFFFFFFFFF800
003FFFFFFFFFF800
0003FFFFFFFF0000
0003FFFFFFFF0000
0003FFFFFFFF0000
0003FFFFFFFF0000
0003FFFFFFFF0000
00001FFFFFE00000
00001FFFFFE00000
00001FFFFFE00000
00001FFFFFE00000
00001FFFFFE00000
000000FFFC000000
000000FFFC000000
000000FFFC000000
000000FFFC000000
000000FFFC000000
00000007C0000000
00000007C0000000
00000007C0000000
00000007C0000000
00000007C0000000
00000007C0000000
00000007C0000000
00000007C0000000
00000007C0000000
00000007C0000000
00000007C0000000
00000007C0000000
00000007C0000000
00000007C0000000
00000007C0000000
00000007C0000000
00000007C0000000
00000007C0000000
00000007C0000000
00000007C0000000
00000007C0000000
00000007C0000000
00000007C0000000
00000007C0000000
000000FFFC000000
000000FFFC000000
000000FFFC000000
000000FFFC000000
0003FFFFFFFF0000
0003FFFFFFFF0000
0003FFFFFFFF0000
0003FFFFFFFF0000
0003FFFFFFFF0000
ENDCHAR
STARTCHAR 0067
ENCODING 103
SWIDTH 802 0
DWIDTH 77 0
BBX 62 57 0 10
BITMAP
00000007FFE00000
00000007FFE00000
00000007FFE00000
00000007FFE00000
00000007FFE00000
000000FFFFFF0000
000000FFFFFF0000
000000FFFFFF0000
000000FFFFFF0000
07FFE0FFFFFF0000
07FFE0FFFFFF0000
07FFE0FFFFFF0000
07FFE0FFFFFF0000
07FFE0FFFFFF0000
FFFFFFFFFFE00000
FFFFFFFFFFE00000
FFFFFFFFFFE00000
FFFFFFFFFFE00000
FFFFFFFFFFE00000
FFFFFFFFFFFFFFC0
FFFFFFFFFFFFFFC0
FFFFFFFFFFFFFFC0
FFFFFFFFFFFFFFC0
FFFFFFFFFFFFFFC0
07FFFF003FFFFFFC
07FFFF003FFFFFFC
07FFFF003FFFFFFC
07FFFF003FFFFFFC
07FFFF003FFFFFFC
003FFF003FFFFFFC
003FFF003FFFFFFC
003FFF003FFFFFFC
003FFF003FFFFFFC
07FFFFFFFFFFFFC0
07FFFFFFFFFFFFC0
07FFFFFFFFFFFFC0
07FFFFFFFFFFFFC0
07FFFFFFFFFFFFC0
FFFFFFFFFFFF0000
FFFFFFFFFFFF0000
FFFFFFFFFFFF0000
FFFFFFFFFFFF0000
FFFFFFFFFFFF0000
FFFFFF07FFFFF800
FFFFFF07FFFFF800
FFFFFF07FFFFF800
FFFFFF07FFFFF800
FFFFFF07FFFFF800
07FFE007FFFFF800
07FFE007FFFFF800
07FFE007FFFFF800
07FFE007FFFFF800
07FFE007FFFFF800
000000003FFF0000
000000003FFF0000
000000003FFF0000
000000003FFF0000
ENDCHAR
STARTCHAR 0068
ENCODING 104
SWIDTH 895 0
DWIDTH 86 0
BBX 72 57 0 10
BITMAP
00000007FFFF07FFE0
00000007FFFF07FFE0
00000007FFFF07FFE0
00000007FFFF07FFE0
00000007FFFF07FFFF
000000FFFFE0F8001F
000000FFFFE0F8001F
000000FFFFE0F8001F
000000FFFFE0F8001F
00001FFFFE1F07C01F
00001FFFFE1F07C01F
00001FFFFE1F07C01F
00001FFFFE1F07C01F
00001FFFFE1F07C01F
0003FFFFFFE0FFC3E0
0003FFFFFFE0FFC3E0
0003FFFFFFE0FFC3E0
0003FFFFFFE0FFC3E0
0003FFFFFFE0FFC3E0
007FFFFFFFFFFFC000
007FFFFFFFFFFFC000
007FFFFFFFFFFFC000
007FFFFFFFFFFFC000
007FFFFFFFFFFFC000
07FFFFFFFFFFFFC000
07FFFFFFFFFFFFC000
07FFFFFFFFFFFFC000
07FFFFFFFFFFFFC000
07FFFFFFFFFFFFC000
FFFFFFFFFFFFF80000
FFFFFFFFFFFFF80000
FFFFFFFFFFFFF80000
FFFFFFFFFFFFF80000
FFFFFFFFFFFF000000
FFFFFFFFFFFF000000
FFFFFFFFFFFF000000
FFFFFFFFFFFF000000
FFFFFFFFFFFF000000
07FFFFFFFFE0000000
07FFFFFFFFE0000000
07FFFFFFFFE0000000
07FFFFFFFFE0000000
07FFFFFFFFE0000000
007FFFFFFE00000000
007FFFFFFE00000000
007FFFFFFE00000000
007FFFFFFE00000000
007FFFFFFE00000000
0003FFFFC000000000
0003FFFFC000000000
0003FFFFC000000000
0003FFFFC000000000
0003FFFFC000000000
00001FF80000000000
00001FF80000000000
00001FF80000000000
00001FF80000000000
ENDCHAR
STARTCHAR 0069
ENCODING 105
SWIDTH 895 0
DWIDTH 86 0
BBX 72 62 0 5
BITMAP
0003FFF8001FFFC000
0003FFF8001FFFC000
0003FFF8001FFFC000
0003FFF8001FFFC000
0003FFF8001FFFC000
003FFFFFFFFFFFFC00
003FFFFFFFFFFFFC00
003FFFFFFFFFFFFC00
003FFFFFFFFFFFFC00
07FFFFFFFFFFFFFFE0
07FFFFFFFFFFFFFFE0
07FFFFFFFFFFFFFFE0
07FFFFFFFFFFFFFFE0
07FFFFFFFFFFFFFFE0
FFFFFFFFFFFFFFFFFF
FFFFFFFFFFFFFFFFFF
FFFFFFFFFFFFFFFFFF
FFFFFFFFFFFFFFFFFF
FFFFFFFFFFFFFFFFFF
07FFFFFFFFFFFFFFE0
07FFFFFFFFFFFFFFE0
07FFFFFFFFFFFFFFE0
07FFFFFFFFFFFFFFE0
07FFFFFFFFFFFFFFE0
003C1FFFFFFFF83C00
003C1FFFFFFFF83C00
003C1FFFFFFFF83C00
003C1FFFFFFFF83C00
003C1FFFFFFFF83C00
00001FFFFFFFF80000
00001FFFFFFFF80000
00001FFFFFFFF80000
00001FFFFFFFF80000
00001FFFFFFFF80000
00001FFFFFFFF80000
00001FFFFFFFF80000
00001FFFFFFFF80000
00001FFFFFFFF80000
00001FFFFFFFF80000
00001FFFFFFFF80000
00001FFFFFFFF80000
00001FFFFFFFF80000
00001FFFFFFFF80000
00001FFFFFFFF80000
00001FFFFFFFF80000
00001FFFFFFFF80000
00001FFFFFFFF80000
00001FFFFFFFF80000
00001FFFFFFFF80000
00001FFFFFFFF80000
00001FFFFFFFF80000
00001FFFFFFFF80000
00001FFFFFFFF80000
00001FFFFFFFF80000
00001FFFFFFFF80000
00001FFFFFFFF80000
00001FFFFFFFF80000
00001FFFFFFFF80000
00001FFFFFFFF80000
00001FFFFFFFF80000
00001FFFFFFFF80000
00001FFFFFFFF80000
ENDCHAR
STARTCHAR 006A
ENCODING 106
SWIDTH 854 0
DWIDTH 82 0
BBX 67 67 0 4
BITMAP
0003E000001F000000
0003E000001F000000
0003E000001F000000
0003E000001F000000
0003E000001F000000
00001F0003E0000000
00001F0003E0000000
00001F0003E0000000
00001F0003E0000000
00001FF803E0000000
000000F87E00000000
000000F87E00000000
000000F87E00000000
000000F87E00000000
000000FFC000000000
00000007C000000000
00000007C000000000
00000007C000000000
00000007C000000000
FFFFFFFFFFFFFFFE00
FFFFFFFFFFFFFFFE00
FFFFFFFFFFFFFFFE00
FFFFFFFFFFFFFFFE00
FFFFFFFFFFFFFFFE00
F8000000000007FFE0
F8000000000007FFE0
F8000000000007FFE0
F8000000000007FFE0
F8000000000007FFE0
F8000000000007C3E0
F8000000000007C3E0
F8000000000007C3E0
F8000000000007C3E0
F8000000000007C3E0
F8000000000007FFE0
F8000000000007FFE0
F8000000000007FFE0
F8000000000007FFE0
F8000000000007C3E0
F8000000000007C3E0
F8000000000007C3E0
F8000000000007C3E0
F8000000000007C3E0
F8000000000007FFE0
F8000000000007FFE0
F8000000000007FFE0
F8000000000007FFE0
F8000000000007FFE0
F8000000000007FFE0
F8000000000007FFE0
F8000000000007FFE0
F8000000000007FFE0
F8000000000007FFE0
F8000000000007FFE0
F8000000000007FFE0
F8000000000007FFE0
F8000000000007FFE0
F8000000000007FFE0
F8000000000007FFE0
F8000000000007FFE0
F8000000000007FFE0
F8000000000007FFE0
FFFFFFFFFFFFFFFFE0
FFFFFFFFFFFFFFFFE0
FFFFFFFFFFFFFFFFE0
FFFFFFFFFFFFFFFFE0
FFFFFFFFFFFFFFFFE0
ENDCHAR
STARTCHAR 006B
ENCODING 107
SWIDTH 697 0
DWIDTH 67 0
BBX 53 52 0 10
BITMAP
FFFFFFFFFFFFF8
FFFFFFFFFFFFF8
FFFFFFFFFFFFF8
FFFFFFFFFFFFF8
FFC00000001F00
07C00000001F00
07C00000001F00
07C00000001F00
07C00000001F00
07C00000001F00
07C00000001F00
07C00000001F00
07C00000001F00
07C00000001F00
07C00000001F00
07C00000001F00
07C00000001F00
07C00000001F00
07C00000001F00
07C00000001F00
07C00000001F00
07C00000001F00
07C00000001F00
07C00000001F00
07FFFFFFFFFF00
07FFFFFFFFFF00
07FFFFFFFFFF00
07FFFFFFFFFF00
07FFFFF8000000
000000F8000000
000000F8000000
000000F8000000
000000F8000000
000000F8000000
000000F8000000
000000F8000000
000000F8000000
000000F8000000
000000F8000000
000000F8000000
000000F8000000
000000F8000000
000000F8000000
0003FFFFFE0000
0003FFFFFE0000
0003FFFFFE0000
0003FFFFFE0000
0003FFFFFFE000
007E000003E000
007E000003E000
007E000003E000
007E000003E000
ENDCHAR
STARTCHAR 006C
ENCODING 108
SWIDTH 500 0
DWIDTH 48 0
BBX 34 62 0 9
BITMAP
00000007C0
00000007C0
00000007C0
00000007C0
00000007C0
00000007C0
00000007C0
00000007C0
00000007C0
00000007C0
07FFFFFFC0
07FFFFFFC0
07FFFFFFC0
07FFFFFFC0
F8000007C0
F8000007C0
F8000007C0
F8000007C0
F8000007C0
F87FFF07C0
F87FFF07C0
F87FFF07C0
F87FFF07C0
F87FFF07C0
F87FFF07C0
F87FFF07C0
F87FFF07C0
F87FFF07C0
F87FFF07C0
F8000007C0
F8000007C0
F8000007C0
F8000007C0
F8000007C0
F8000007C0
F8000007C0
F8000007C0
F8000007C0
F87E1F07C0
F87E1F07C0
F87E1F07C0
F87E1F07C0
F87E1F07C0
F8000007C0
F8000007C0
F8000007C0
F8000007C0
F8000007C0
F87E1F07C0
F87E1F07C0
F87E1F07C0
F87E1F07C0
F87E1F07C0
F8000007C0
F8000007C0
F8000007C0
F8000007C0
F8000007C0
07FFFFF800
07FFFFF800
07FFFFF800
07FFFFF800
ENDCHAR
STARTCHAR 006D
ENCODING 109
SWIDTH 947 0
DWIDTH 91 0
BBX 77 62 0 5
BITMAP
07FFFFFFFFFFFFFFFFF8
07FFFFFFFFFFFFFFFFF8
07FFFFFFFFFFFFFFFFF8
07FFFFFFFFFFFFFFFFF8
07FFFFFFFFFFFFFFFFF8
07C000000000000000F8
07C000000000000000F8
07C000000000000000F8
07C000000000000000F8
FFFE00000000000000F8
FFFE00000000000000F8
FFFE00000000000000F8
FFFE00000000000000F8
FFFE00000000000000F8
07C0000003FF000000F8
07C0000003FF000000F8
07C0000003FF000000F8
07C0000003FF000000F8
07C0000003FF000000F8
FFFE000003FF000000F8
FFFE000003FF000000F8
FFFE000003FF000000F8
FFFE000003FF000000F8
FFFE000003FF000000F8
07C000007E1FF80000F8
07C000007E1FF80000F8
07C000007E1FF80000F8
07C000007E1FF80000F8
07FE00007E1FF80000F8
FFFE00007E1FF80000F8
FFFE00007E1FF80000F8
FFFE00007E1FF80000F8
FFFE00007E1FF80000F8
FFC00007FFFFFFC000F8
07C00007FFFFFFC000F8
07C00007FFFFFFC000F8
07C00007FFFFFFC000F8
07C00007FFFFFFC000F8
FFFE0007C000FFC000F8
FFFE0007C000FFC000F8
FFFE0007C000FFC000F8
FFFE0007C000FFC000F8
FFFE0007C000FFC000F8
07C000FFFE1FFFFE00F8
07C000FFFE1FFFFE00F8
07C000FFFE1FFFFE00F8
07C000FFFE1FFFFE00F8
07C000FFFE1FFFFE00F8
FFFE00000000000000F8
FFFE00000000000000F8
FFFE00000000000000F8
FFFE00000000000000F8
FFFE00000000000000F8
07C000000000000000F8
07C000000000000000F8
07C000000000000000F8
07C000000000000000F8
07FFFFFFFFFFFFFFFFF8
07FFFFFFFFFFFFFFFFF8
07FFFFFFFFFFFFFFFFF8
07FFFFFFFFFFFFFFFFF8
07FFFFFFFFFFFFFFFFF8
ENDCHAR
STARTCHAR 006E
ENCODING 110
SWIDTH 947 0
DWIDTH 91 0
BBX 77 62 0 5
BITMAP
07FFFFFFFFFFFFFFFFF8
07FFFFFFFFFFFFFFFFF8
07FFFFFFFFFFFFFFFFF8
07FFFFFFFFFFFFFFFFF8
07FFFFFFFFFFFFFFFFF8
07C000000000000000F8
07C000000000000000F8
07C000000000000000F8
07C000000000000000F8
FFFC00000000000000F8
FFFC00000000000000F8
FFFC00000000000000F8
FFFC00000000000000F8
FFFC00000000000000F8
07C00007FFFFFFFC00F8
07C00007FFFFFFFC00F8
07C00007FFFFFFFC00F8
07C00007FFFFFFFC00F8
07C00007FFFFFFFC00F8
FFFC00000000000000F8
FFFC00000000000000F8
FFFC00000000000000F8
FFFC00000000000000F8
FFFC00000000000000F8
07C00007FFFFFFFC00F8
07C00007FFFFFFFC00F8
07C00007FFFFFFFC00F8
07C00007FFFFFFFC00F8
07C00007FFFFFFFC00F8
FFFC00000000000000F8
FFFC00000000000000F8
FFFC00000000000000F8
FFFC00000000000000F8
07C00007FFFFFFFC00F8
07C00007FFFFFFFC00F8
07C00007FFFFFFFC00F8
07C00007FFFFFFFC00F8
07C00007FFFFFFFC00F8
FFFC00000000000000F8
FFFC00000000000000F8
FFFC00000000000000F8
FFFC00000000000000F8
FFFC00000000000000F8
07C00007FFFFFFFC00F8
07C00007FFFFFFFC00F8
07C00007FFFFFFFC00F8
07C00007FFFFFFFC00F8
07C00007FFFFFFFC00F8
FFFC00000000000000F8
FFFC00000000000000F8
FFFC00000000000000F8
FFFC00000000000000F8
FFFC00000000000000F8
07C000000000000000F8
07C000000000000000F8
07C000000000000000F8
07C000000000000000F8
07FFFFFFFFFFFFFFFFF8
07FFFFFFFFFFFFFFFFF8
07FFFFFFFFFFFFFFFFF8
07FFFFFFFFFFFFFFFFF8
07FFFFFFFFFFFFFFFFF8
ENDCHAR
STARTCHAR 006F
ENCODING 111
SWIDTH 947 0
DWIDTH 91 0
BBX 77 62 0 5
BITMAP
07FFFFFFFFFFFFFFFFF8
07FFFFFFFFFFFFFFFFF8
07FFFFFFFFFFFFFFFFF8
07FFFFFFFFFFFFFFFFF8
07FFFFFFFFFFFFFFFFF8
07C000000000000000F8
07C000000000000000F8
07C000000000000000F8
07C000000000000000F8
FFFC00000000000000F8
FFFC00000000000000F8
FFFC00000000000000F8
FFFC00000000000000F8
FFFC00000000000000F8
07C00007FFFFF83C00F8
07C00007FFFFF83C00F8
07C00007FFFFF83C00F8
07C00007FFFFF83C00F8
07C00007FFFFF83C00F8
FFFC00000000000000F8
FFFC00000000000000F8
FFFC00000000000000F8
FFFC00000000000000F8
FFFC00000000000000F8
07C00007C3FFFFFC00F8
07C00007C3FFFFFC00F8
07C00007C3FFFFFC00F8
07C00007C3FFFFFC00F8
07C00007C3FFFFFC00F8
FFFC00000000000000F8
FFFC00000000000000F8
FFFC00000000000000F8
FFFC00000000000000F8
07C00007FFE0FFFC00F8
07C00007FFE0FFFC00F8
07C00007FFE0FFFC00F8
07C00007FFE0FFFC00F8
07C00007FFE0FFFC00F8
FFFC00000000000000F8
FFFC00000000000000F8
FFFC00000000000000F8
FFFC00000000000000F8
FFFC00000000000000F8
07C00007FC1F07FC00F8
07C00007FC1F07FC00F8
07C00007FC1F07FC00F8
07C00007FC1F07FC00F8
07C00007FC1F07FC00F8
FFFC00000000000000F8
FFFC00000000000000F8
FFFC00000000000000F8
FFFC00000000000000F8
FFFC00000000000000F8
07C000000000000000F8
07C000000000000000F8
07C000000000000000F8
07C000000000000000F8
07FFFFFFFFFFFFFFFFF8
07FFFFFFFFFFFFFFFFF8
07FFFFFFFFFFFFFFFFF8
07FFFFFFFFFFFFFFFFF8
07FFFFFFFFFFFFFFFFF8
ENDCHAR
STARTCHAR 0070
ENCODING 112
SWIDTH 947 0
DWIDTH 91 0
BBX 77 67 0 4
BITMAP
000000FFFFE000000000
000000FFFFE000000000
000000FFFFE000000000
000000FFFFE000000000
000000FFFFE000000000
07FFFFF803FFFFFE0000
07FFFFF803FFFFFE0000
07FFFFF803FFFFFE0000
07FFFFF803FFFFFE0000
07FFFFF803FFFFFFE000
F8001F07FE1F0003E000
F8001F07FE1F0003E000
F8001F07FE1F0003E000
F8001F07FE1F0003E000
F803E007FE1FF803E000
F803E0000000F803E000
F803E0000000F803E000
F803E0000000F803E000
F803E0000000F803E000
F803FFFFFFFFF803E000
F803FFFFFFFFF803E000
F803FFFFFFFFF803E000
F803FFFFFFFFF803E000
F803FFFFFFFFF803E000
F800000000000003E000
F800000000000003E000
F800000000000003E000
F800000000000003E000
F800000000000003E000
F8000007FFFFFFFFE000
F8000007FFFFFFFFE000
F8000007FFFFFFFFE000
F8000007FFFFFFFFE000
F8000007FFFFFFFFE000
F8000007C000007FE000
F8000007C000007FE000
F8000007C000007FE000
F8000007C000007FE000
F8000007C000007E1F00
F8000007C000007E1F00
F8000007C000007E1F00
F8000007C000007E1F00
F8000007C000007E1F00
F8000007C3FFF87FFFF8
F8000007C3FFF87FFFF8
F8000007C3FFF87FFFF8
F8000007C3FFF87FFFF8
F8000007C3FFF87FFFF8
F8000007C000000000F8
F8000007C000000000F8
F8000007C000000000F8
F8000007C000000000F8
F8000007C000000000F8
F8000007C3FFFFFFE0F8
F8000007C3FFFFFFE0F8
F8000007C3FFFFFFE0F8
F8000007C3FFFFFFE0F8
F8000007C3FFFFFFE0F8
07FFFFFFC000000000F8
07FFFFFFC000000000F8
07FFFFFFC000000000F8
07FFFFFFC000000000F8
07FFFFFFFFFFFFFFFFF8
00000007FFFFFFFFFFF8
00000007FFFFFFFFFFF8
00000007FFFFFFFFFFF8
00000007FFFFFFFFFFF8
ENDCHAR
STARTCHAR 0071
ENCODING 113
SWIDTH 895 0
DWIDTH 86 0
BBX 72 48 0 15
BITMAP
00001FFFFFFFFFFFFF
00001FFFFFFFFFFFFF
00001FFFFFFFFFFFFF
00001FFFFFFFFFFFFF
0003E00000000003FF
0003E00000000003FF
0003E00000000003FF
0003E00000000003FF
0003E00000000003FF
007E00000000007E1F
007E00000000007E1F
007E00000000007E1F
007E00000000007E1F
007E00000000007E1F
07C00000000007C01F
07C00000000007C01F
07C00000000007C01F
07C00000000007C01F
07C00000000007C01F
FFFFE00003FFFFC01F
FFFFE00003FFFFC01F
FFFFE00003FFFFC01F
FFFFE00003FFFFC01F
FFFFFF0003FFFFC01F
F8001F007E0007C01F
F8001F007E0007C01F
F8001F007E0007C01F
F8001F007E0007C01F
F8001FFFC00007C01F
F80000FFC00007C01F
F80000FFC00007C01F
F80000FFC00007C01F
F80000FFC00007C01F
F8000000000007C3E0
F8000000000007C3E0
F8000000000007C3E0
F8000000000007C3E0
F8000000000007C3E0
F8000000000007FE00
F8000000000007FE00
F8000000000007FE00
F8000000000007FE00
F8000000000007FE00
FFFFFFFFFFFFFFC000
FFFFFFFFFFFFFFC000
FFFFFFFFFFFFFFC000
FFFFFFFFFFFFFFC000
FFFFFFFFFFFFFFC000
ENDCHAR
STARTCHAR 0072
ENCODING 114
SWIDTH 697 0
DWIDTH 67 0
BBX 53 67 0 4
BITMAP
FFFFFFFFFFFFF8
FFFFFFFFFFFFF8
FFFFFFFFFFFFF8
FFFFFFFFFFFFF8
FFFFFFFFFFFFF8
F80000000000F8
F80000000000F8
F80000000000F8
F80000000000F8
F80000000000F8
F83FFFFFFFE0F8
F83FFFFFFFE0F8
F83FFFFFFFE0F8
F83FFFFFFFE0F8
F83C000003E0F8
F83C000003E0F8
F83C000003E0F8
F83C000003E0F8
F83C000003E0F8
F83C000003E0F8
F83C000003E0F8
F83C000003E0F8
F83C000003E0F8
F83C000003E0F8
F83FFFFFFFE0F8
F83FFFFFFFE0F8
F83FFFFFFFE0F8
F83FFFFFFFE0F8
F83FFFFFFFE0F8
F80000000000F8
F80000000000F8
F80000000000F8
F80000000000F8
F80000000000F8
F83C1F07C3E0F8
F83C1F07C3E0F8
F83C1F07C3E0F8
F83C1F07C3E0F8
F80000000000F8
F80000000000F8
F80000000000F8
F80000000000F8
F80000000000F8
F83C1F07C3E0F8
F83C1F07C3E0F8
F83C1F07C3E0F8
F83C1F07C3E0F8
F83C1F07C3E0F8
F800000003E0F8
F800000003E0F8
F800000003E0F8
F800000003E0F8
F800000003E0F8
F83C1F07C3E0F8
F83C1F07C3E0F8
F83C1F07C3E0F8
F83C1F07C3E0F8
F83C1F07C3E0F8
F80000000000F8
F80000000000F8
F80000000000F8
F80000000000F8
FFFFFFFFFFFFF8
FFFFFFFFFFFFF8
FFFFFFFFFFFFF8
FFFFFFFFFFFFF8
FFFFFFFFFFFFF8
ENDCHAR
STARTCHAR 0073
ENCODING 115
SWIDTH 895 0
DWIDTH 86 0
BBX 72 62 0 9
BITMAP
007FE0000000000000
007FE0000000000000
007FE0000000000000
007FE0000000000000
007FE0000000000000
07C01F000000000000
07C01F000000000000
07C01F000000000000
07C01F000000000000
07C01FFFFFFFFFFE00
F80000FFFFFFFFFE00
F80000FFFFFFFFFE00
F80000FFFFFFFFFE00
F80000FFFFFFFFFE00
F80000FFFFFFFFFFE0
F800000000000003E0
F800000000000003E0
F800000000000003E0
F800000000000003E0
F800000000000003E0
F800000000000003E0
F800000000000003E0
F800000000000003E0
F800000000000003E0
F800000000000003E0
F800000000000003E0
F800000000000003E0
F800000000000003E0
F800000000000003E0
F87FFFFFFFFFFFFFFF
F87FFFFFFFFFFFFFFF
F87FFFFFFFFFFFFFFF
F87FFFFFFFFFFFFFFF
F87FFFFFFFFFFFFFFF
F87E0000000000001F
F87E0000000000001F
F87E0000000000001F
F87E0000000000001F
F87E0000000000001F
F87E0000000000001F
F87E0000000000001F
F87E0000000000001F
F87E0000000000001F
FFC0000000000003E0
FFC0000000000003E0
FFC0000000000003E0
FFC0000000000003E0
FFC0000000000003E0
FFC0000000000003E0
FFC0000000000003E0
FFC0000000000003E0
FFC0000000000003E0
FFC0000000000003E0
F80000000000007E00
F80000000000007E00
F80000000000007E00
F80000000000007E00
F80000000000007E00
FFFFFFFFFFFFFFFE00
FFFFFFFFFFFFFFFE00
FFFFFFFFFFFFFFFE00
FFFFFFFFFFFFFFFE00
ENDCHAR
STARTCHAR 0074
ENCODING 116
SWIDTH 895 0
DWIDTH 86 0
BBX 72 48 0 9
BITMAP
07FFFF000000000000
07FFFF000000000000
07FFFF000000000000
07FFFF000000000000
07FFFF000000000000
F80000FFFFFFFFC000
F80000FFFFFFFFC000
F80000FFFFFFFFC000
F80000FFFFFFFFC000
F80000FFFFFFFFC000
F80000000000007C00
F80000000000007C00
F80000000000007C00
F80000000000007C00
F80000000000007C00
F8001FFFFFFFFFFFFF
F8001FFFFFFFFFFFFF
F8001FFFFFFFFFFFFF
F8001FFFFFFFFFFFFF
F8001FFFFFFFFFFFFF
F803E000000000001F
F803E000000000001F
F803E000000000001F
F803E000000000001F
F803E00000000003E0
F803E00000000003E0
F803E00000000003E0
F803E00000000003E0
F803E00000000003E0
F87E000000000003E0
F87E000000000003E0
F87E000000000003E0
F87E000000000003E0
F87E000000000003E0
F87E00000000007E00
F87E00000000007E00
F87E00000000007E00
F87E00000000007E00
F87E00000000007E00
FFC000000000007E00
FFC000000000007E00
FFC000000000007E00
FFC000000000007E00
FFC000000000007E00
FFFFFFFFFFFFFFC000
FFFFFFFFFFFFFFC000
FFFFFFFFFFFFFFC000
FFFFFFFFFFFFFFC000
ENDCHAR
STARTCHAR 0075
ENCODING 117
SWIDTH 895 0
DWIDTH 86 0
BBX 72 77 0 0
BITMAP
000000FFC000000000
000000FFC000000000
000000FFC000000000
000000FFC000000000
000000FFC000000000
00001F007E00000000
00001F007E00000000
00001F007E00000000
00001F007E00000000
00001F007E00000000
00001F007E00000000
00001F007E00000000
00001F007E00000000
00001F007E00000000
00001F007E00000000
00001F007E00000000
00001F007E00000000
00001F007E00000000
00001F007E00000000
00001F007FFFFFC000
00001F007FFFFFC000
00001F007FFFFFC000
00001F007FFFFFC000
00001F007FFFFFC000
00001F007E00F87FE0
00001F007E00F87FE0
00001F007E00F87FE0
00001F007E00F87FE0
00001F007E00F87FE0
07FE1F007E00F87E1F
07FE1F007E00F87E1F
07FE1F007E00F87E1F
07FE1F007E00F87E1F
07FE1F007E00F87E1F
F803FF00000000001F
F803FF00000000001F
F803FF00000000001F
F803FF00000000001F
F803FF00000000001F
F8001F00000000001F
F8001F00000000001F
F8001F00000000001F
F8001F00000000001F
FFC01F007E1F07C01F
07C000007E1F07C01F
07C000007E1F07C01F
07C000007E1F07C01F
07C000007E1F07C01F
007E00007E1F07C3FF
007E00007E1F07C3FF
007E00007E1F07C3FF
007E00007E1F07C3FF
007E00007E1F07C3FF
007E00007E1F07C3E0
007E00007E1F07C3E0
007E00007E1F07C3E0
007E00007E1F07C3E0
007E00007E1F07C3E0
0003E0007E1F07C3E0
0003E0007E1F07C3E0
0003E0007E1F07C3E0
0003E0007E1F07C3E0
0003FF007E1F07C3E0
00001F0000000003E0
00001F0000000003E0
00001F0000000003E0
00001F0000000003E0
00001FF80000007E00
000000F80000007E00
000000F80000007E00
000000F80000007E00
000000F80000007E00
000000FFFFFFFFFE00
000000FFFFFFFFFE00
000000FFFFFFFFFE00
000000FFFFFFFFFE00
000000FFFFFFFFFE00
ENDCHAR
STARTCHAR 0076
ENCODING 118
SWIDTH 750 0
DWIDTH 72 0
BBX 58 72 0 0
BITMAP
00001F0000000000
00001F0000000000
00001F0000000000
00001F0000000000
00001F0000000000
0003E0F800000000
0003E0F800000000
0003E0F800000000
0003E0F800000000
0003E0F800000000
0003E0F800000000
0003E0F800000000
0003E0F800000000
0003E0F800000000
0003E0F800000000
0003E0F800000000
0003E0F800000000
0003E0F800000000
0003E0F800000000
0003E0F800000000
0003E0F800000000
0003E0F800000000
0003E0F800000000
0003E0F800000000
0003E0F800000000
0003E0F800000000
0003E0F800000000
0003E0F800000000
0003E0F800000000
0003E0FFFFFFF800
0003E0FFFFFFF800
0003E0FFFFFFF800
0003E0FFFFFFF800
FFC3E0FFFFFFFFC0
FFC3E0F87E1F07C0
FFC3E0F87E1F07C0
FFC3E0F87E1F07C0
FFC3E0F87E1F07C0
F87FE0F87E1F07C0
F87FE0F87E1F07C0
F87FE0F87E1F07C0
F87FE0F87E1F07C0
F87FE0F87E1F07C0
F803E000000007C0
F803E000000007C0
F803E000000007C0
F803E000000007C0
F803E000000007C0
07C00000000007C0
07C00000000007C0
07C00000000007C0
07C00000000007C0
07C00000000007C0
07C00000000007C0
07C00000000007C0
07C00000000007C0
07C00000000007C0
07FE0000000007C0
007E0000000007C0
007E0000000007C0
007E0000000007C0
007E0000000007C0
007FE000000007C0
0003E000000007C0
0003E000000007C0
0003E000000007C0
0003E000000007C0
00001FFFFFFFF800
00001FFFFFFFF800
00001FFFFFFFF800
00001FFFFFFFF800
00001FFFFFFFF800
ENDCHAR
STARTCHAR 0077
ENCODING 119
SWIDTH 895 0
DWIDTH 86 0
BBX 72 57 0 10
BITMAP
000000FFFE00000000
000000FFFE00000000
000000FFFE00000000
000000FFFE00000000
000000FFFE00000000
0003FF007E00000000
0003FF007E00000000
0003FF007E00000000
0003FF007E00000000
007E0007C000000000
007E0007C000000000
007E0007C000000000
007E0007C000000000
007E0007C000000000
07C000FFFFFFFFFFE0
07C000FFFFFFFFFFE0
07C000FFFFFFFFFFE0
07C000FFFFFFFFFFE0
07C000FFFFFFFFFFE0
F8000000000000001F
F8000000000000001F
F8000000000000001F
F8000000000000001F
F8000000000000001F
F8000007FFFFFFFFE0
F8000007FFFFFFFFE0
F8000007FFFFFFFFE0
F8000007FFFFFFFFE0
F8000007FFFFFFFFE0
F800000003E0000000
F800000003E0000000
F800000003E0000000
F800000003E0000000
F8000007FFE0000000
F8000007FFE0000000
F8000007FFE0000000
F8000007FFE0000000
F8000007FFE0000000
F800000003E0000000
F800000003E0000000
F800000003E0000000
F800000003E0000000
F800000003E0000000
F8000007FFE0000000
F8000007FFE0000000
F8000007FFE0000000
F8000007FFE0000000
F8000007FFE0000000
F800000003E0000000
F800000003E0000000
F800000003E0000000
F800000003E0000000
F800000003E0000000
07FFFFFFFE00000000
07FFFFFFFE00000000
07FFFFFFFE00000000
07FFFFFFFE00000000
ENDCHAR
STARTCHAR 0078
ENCODING 120
SWIDTH 895 0
DWIDTH 86 0
BBX 72 57 0 10
BITMAP
000000007FFF000000
000000007FFF000000
000000007FFF000000
000000007FFF000000
000000007FFFFFC000
000000007E00FFC000
000000007E00FFC000
000000007E00FFC000
000000007E00FFC000
000000007FE0FFFE00
0000000003E0007E00
0000000003E0007E00
0000000003E0007E00
0000000003E0007E00
07FFFFFFFFFF0003E0
07FFFFFFFFFF0003E0
07FFFFFFFFFF0003E0
07FFFFFFFFFF0003E0
07FFFFFFFFFF0003E0
F8000000000000001F
F8000000000000001F
F8000000000000001F
F8000000000000001F
F8000000000000001F
07FFFFFFFFE000001F
07FFFFFFFFE000001F
07FFFFFFFFE000001F
07FFFFFFFFE000001F
07FFFFFFFFE000001F
00000007C00000001F
00000007C00000001F
00000007C00000001F
00000007C00000001F
00000007FFE000001F
00000007FFE000001F
00000007FFE000001F
00000007FFE000001F
00000007FFE000001F
00000007C00000001F
00000007C00000001F
00000007C00000001F
00000007C00000001F
00000007C00000001F
00000007FFE000001F
00000007FFE000001F
00000007FFE000001F
00000007FFE000001F
00000007FFE000001F
00000007C00000001F
00000007C00000001F
00000007C00000001F
00000007C00000001F
00000007C00000001F
000000007FFFFFFFE0
000000007FFFFFFFE0
000000007FFFFFFFE0
000000007FFFFFFFE0
ENDCHAR
STARTCHAR 0079
ENCODING 121
SWIDTH 750 0
DWIDTH 72 0
BBX 58 72 0 0
BITMAP
00001FFFFFFFF800
00001FFFFFFFF800
00001FFFFFFFF800
00001FFFFFFFF800
00001FFFFFFFF800
0003E000000007C0
0003E000000007C0
0003E000000007C0
0003E000000007C0
0003E000000007C0
007E0000000007C0
007E0000000007C0
007E0000000007C0
007E0000000007C0
07C00000000007C0
07C00000000007C0
07C00000000007C0
07C00000000007C0
07C00000000007C0
07C00000000007C0
07C00000000007C0
07C00000000007C0
07C00000000007C0
07C00000000007C0
F803E000000007C0
F803E000000007C0
F803E000000007C0
F803E000000007C0
F803E000000007C0
F87FE0F87E1F07C0
F87FE0F87E1F07C0
F87FE0F87E1F07C0
F87FE0F87E1F07C0
F87FE0F87E1F07C0
FFC3E0F87E1F07C0
FFC3E0F87E1F07C0
FFC3E0F87E1F07C0
FFC3E0F87E1F07C0
FFC3E0FFFFFFF800
0003E0FFFFFFF800
0003E0FFFFFFF800
0003E0FFFFFFF800
0003E0FFFFFFF800
0003E0F800000000
0003E0F800000000
0003E0F800000000
0003E0F800000000
0003E0F800000000
0003E0F800000000
0003E0F800000000
0003E0F800000000
0003E0F800000000
0003E0F800000000
0003E0F800000000
0003E0F800000000
0003E0F800000000
0003E0F800000000
0003E0F800000000
0003E0F800000000
0003E0F800000000
0003E0F800000000
0003E0F800000000
0003E0F800000000
0003E0F800000000
0003E0F800000000
0003E0F800000000
0003E0F800000000
00001F0000000000
00001F0000000000
00001F0000000000
00001F0000000000
00001F0000000000
ENDCHAR
STARTCHAR 007A
ENCODING 122
SWIDTH 947 0
DWIDTH 91 0
BBX 77 57 0 10
BITMAP
07FFFFFFFFFFFFFFFF00
07FFFFFFFFFFFFFFFF00
07FFFFFFFFFFFFFFFF00
07FFFFFFFFFFFFFFFF00
07FFFFFFFFFFFFFFFFF8
F80000000000000000F8
F80000000000000000F8
F80000000000000000F8
F80000000000000000F8
F80000000000000000F8
F80000000000000000F8
F80000000000000000F8
F80000000000000000F8
F80000000000000000F8
F8001FF80000FFC000F8
F8001FF80000FFC000F8
F8001FF80000FFC000F8
F8001FF80000FFC000F8
F8001FF80000FFC000F8
F803E007FFFF007E00F8
F803E007FFFF007E00F8
F803E007FFFF007E00F8
F803E007FFFF007E00F8
F803E007FFFF007E00F8
F803E007C01F007E00F8
F803E007C01F007E00F8
F803E007C01F007E00F8
F803E007C01F007E00F8
F803E007C01F007E00F8
F8001FFFFFFFFFC000F8
F8001FFFFFFFFFC000F8
F8001FFFFFFFFFC000F8
F8001FFFFFFFFFC000F8
F8001FFFFFFFFFC000F8
F80000000000000000F8
F80000000000000000F8
F80000000000000000F8
F80000000000000000F8
F803FFFFFFFFFFFE00F8
F803FFFFFFFFFFFE00F8
F803FFFFFFFFFFFE00F8
F803FFFFFFFFFFFE00F8
F803FFFFFFFFFFFE00F8
F87E000000000003E0F8
F87E000000000003E0F8
F87E000000000003E0F8
F87E000000000003E0F8
F87E000000000003E0F8
F87E1F00000007C3E0F8
F87E1F00000007C3E0F8
F87E1F00000007C3E0F8
F87E1F00000007C3E0F8
F87E1F00000007C3E0F8
07FFFFFFFFFFFFFFFF00
07FFFFFFFFFFFFFFFF00
07FFFFFFFFFFFFFFFF00
07FFFFFFFFFFFFFFFF00
ENDCHAR
STARTCHAR 007B
ENCODING 123
SWIDTH 697 0
DWIDTH 67 0
BBX 53 62 0 5
BITMAP
07FFFFFFFFFF00
07FFFFFFFFFF00
07FFFFFFFFFF00
07FFFFFFFFFF00
07FFFFFFFFFFF8
F80000000000F8
F80000000000F8
F80000000000F8
F80000000000F8
F87FFFFFFFE0F8
F87FFFFFFFE0F8
F87FFFFFFFE0F8
F87FFFFFFFE0F8
F87FFFFFFFE0F8
F87E000003E0F8
F87E000003E0F8
F87E000003E0F8
F87E000003E0F8
F87E000003E0F8
F87E000003E0F8
F87E000003E0F8
F87E000003E0F8
F87E000003E0F8
F87E000003E0F8
F87E000003E0F8
F87E000003E0F8
F87E000003E0F8
F87E000003E0F8
F87E000003E0F8
F87E000003E0F8
F87E000003E0F8
F87E000003E0F8
F87E000003E0F8
F87FFFFFFFE0F8
F87FFFFFFFE0F8
F87FFFFFFFE0F8
F87FFFFFFFE0F8
F87FFFFFFFE0F8
F80000000000F8
F80000000000F8
F80000000000F8
F80000000000F8
F80000000000F8
F87E00FFFFE0F8
F87E00FFFFE0F8
F87E00FFFFE0F8
F87E00FFFFE0F8
F87E00FFFFE0F8
F80000000000F8
F80000000000F8
F80000000000F8
F80000000000F8
F80000000000F8
07FFFFFFFFFF00
07FFFFFFFFFF00
07FFFFFFFFFF00
07FFFFFFFFFF00
07FFFFFFFFFF00
07FFFFFFFFFF00
07FFFFFFFFFF00
07FFFFFFFFFF00
07FFFFFFFFFF00
ENDCHAR
STARTCHAR 007C
ENCODING 124
SWIDTH 500 0
DWIDTH 48 0
BBX 34 52 0 10
BITMAP
0003FFF800
0003FFF800
0003FFF800
0003FFF800
007E0007C0
007E0007C0
007E0007C0
007E0007C0
007E0007C0
007E0007C0
007E0007C0
007E0007C0
007E0007C0
007E0007C0
F87E1F07C0
F87E1F07C0
F87E1F07C0
F87E1F07C0
F87E1F07C0
F87E1F07C0
F87E1F07C0
F87E1F07C0
F87E1F07C0
F87E1F07C0
F87E1F07C0
F87E1F07C0
F87E1F07C0
F87E1F07C0
F87E1F07C0
F87E1F07C0
F87E1F07C0
F87E1F07C0
F87E1F07C0
F87E1F07C0
F87E1F07C0
F87E1F07C0
F87E1F07C0
F87E1F07C0
F803E007C0
F803E007C0
F803E007C0
F803E007C0
F803E007C0
07C000F800
07C000F800
07C000F800
07C000F800
07C000F800
007FFF0000
007FFF0000
007FFF0000
007FFF0000
ENDCHAR
STARTCHAR 007D
ENCODING 125
SWIDTH 895 0
DWIDTH 86 0
BBX 72 72 0 0
BITMAP
000000FFFFFF000000
000000FFFFFF000000
000000FFFFFF000000
000000FFFFFF000000
000000FFFFFF000000
0003FFF87E1FFFC000
0003FFF87E1FFFC000
0003FFF87E1FFFC000
0003FFF87E1FFFC000
0003FFF87E1FFFFE00
007E1F007E00F87E00
007E1F007E00F87E00
007E1F007E00F87E00
007E1F007E00F87E00
07FFFFFFFFFFFFFFE0
07FFFFFFFFFFFFFFE0
07FFFFFFFFFFFFFFE0
07FFFFFFFFFFFFFFE0
07FFFFFFFFFFFFFFE0
07C3E0007E0007C3E0
07C3E0007E0007C3E0
07C3E0007E0007C3E0
07C3E0007E0007C3E0
07C3E0007E0007C3E0
F87E00007E00007E1F
F87E00007E00007E1F
F87E00007E00007E1F
F87E00007E00007E1F
F87E00007E00007E1F
F87E00007E00007E1F
F87E00007E00007E1F
F87E00007E00007E1F
F87E00007E00007E1F
F87E00007E00007E1F
FFFFFFFFFFFFFFFE1F
FFFFFFFFFFFFFFFE1F
FFFFFFFFFFFFFFFE1F
FFFFFFFFFFFFFFFE1F
F87E00007E00007E1F
F87E00007E00007E1F
F87E00007E00007E1F
F87E00007E00007E1F
F87E00007E00007E1F
F87E00007E00007E1F
F87E00007E00007E1F
F87E00007E00007E1F
F87E00007E00007E1F
F87E00007E00007E1F
07C3E0007E0007C3E0
07C3E0007E0007C3E0
07C3E0007E0007C3E0
07C3E0007E0007C3E0
07C3E0007E0007C3E0
07FFFFFFFFFFFFFFE0
07FFFFFFFFFFFFFFE0
07FFFFFFFFFFFFFFE0
07FFFFFFFFFFFFFFE0
07FFFFFFFFFFFFFFE0
007E1F007E00F87E00
007E1F007E00F87E00
007E1F007E00F87E00
007E1F007E00F87E00
007FFFF87E1FFFC000
0003FFF87E1FFFC000
0003FFF87E1FFFC000
0003FFF87E1FFFC000
0003FFF87E1FFFC000
000000FFFFFF000000
000000FFFFFF000000
000000FFFFFF000000
000000FFFFFF000000
000000FFFFFF000000
ENDCHAR
STARTCHAR 007E
ENCODING 126
SWIDTH 802 0
DWIDTH 77 0
BBX 62 62 0 9
BITMAP
00000000001F0000
00000000001F0000
00000000001F0000
00000000001F0000
00000000001F0000
000000007FE00000
000000007FE00000
000000007FE00000
000000007FE00000
000000007FFF0000
00000007C01F0000
00000007C01F0000
00000007C01F0000
00000007C01F0000
00000007FFE00000
000000007FE00000
000000007FE00000
000000007FE00000
000000007FE00000
00000007C0000000
00000007C0000000
00000007C0000000
00000007C0000000
00000007C0000000
007FFFFFFFFFF800
007FFFFFFFFFF800
007FFFFFFFFFF800
007FFFFFFFFFF800
007FFFFFFFFFF800
007E1F07C3E0F800
007E1F07C3E0F800
007E1F07C3E0F800
007E1F07C3E0F800
007E1F07C3E0FFC0
07FFFFFFFFFFFFC0
07FFFFFFFFFFFFC0
07FFFFFFFFFFFFC0
07FFFFFFFFFFFFC0
07C3E0F87E1F07C0
07C3E0F87E1F07C0
07C3E0F87E1F07C0
07C3E0F87E1F07C0
07C3E0F87E1F07C0
07FFE0F87E1FFFC0
07FFE0F87E1FFFC0
07FFE0F87E1FFFC0
07FFE0F87E1FFFC0
07FFE0F87E1FFFC0
07C3E0F87E1F07C0
07C3E0F87E1F07C0
07C3E0F87E1F07C0
07C3E0F87E1F07C0
07C3E0F87E1F07C0
07C3E0F87E1F07C0
07C3E0F87E1F07C0
07C3E0F87E1F07C0
07C3E0F87E1F07C0
07C3E0F87E1F07FC
FFFFFFFFFFFFFFFC
FFFFFFFFFFFFFFFC
FFFFFFFFFFFFFFFC
FFFFFFFFFFFFFFFC
ENDCHAR
STARTCHAR 00A0
ENCODING 160
SWIDTH 500 0
DWIDTH 48 0
BBX 0 0 0 0
BITMAP
ENDCHAR
STARTCHAR 00A1
ENCODING 161
SWIDTH 500 0
DWIDTH 48 0
BBX 34 77 0 0
BITMAP
003FFF0000
003FFF0000
003FFF0000
003FFF0000
003FFF0000
FFFFFFFFC0
FFFFFFFFC0
FFFFFFFFC0
FFFFFFFFC0
FFFFFFFFC0
F8000007C0
F8000007C0
F8000007C0
F8000007C0
F8000007C0
F803E007C0
F803E007C0
F803E007C0
F803E007C0
F83FFF07C0
F83FFF07C0
F83FFF07C0
F83FFF07C0
F83FFF07C0
F803E007C0
F803E007C0
F803E007C0
F803E007C0
F803E007C0
F8000007C0
F8000007C0
F8000007C0
F8000007C0
F8000007C0
F8000007C0
F8000007C0
F8000007C0
F8000007C0
F8000007C0
FFFFFFFFC0
FFFFFFFFC0
FFFFFFFFC0
FFFFFFFFC0
FFFFFFFFC0
FFFFFFFFC0
FFFFFFFFC0
FFFFFFFFC0
FFFFFFFFC0
FFFFFFFFC0
FFFFFFFFC0
FFFFFFFFC0
FFFFFFFFC0
FFFFFFFFC0
FFFFFFFFC0
FFFFFFFFC0
FFFFFFFFC0
FFFFFFFFC0
FFFFFFFFC0
FFC000FFC0
FFC000FFC0
FFC000FFC0
FFC000FFC0
FFC000FFC0
FFFFFFFFC0
FFFFFFFFC0
FFFFFFFFC0
FFFFFFFFC0
FFFFFFFFC0
FFFFFFFFC0
FFFFFFFFC0
FFFFFFFFC0
FFFFFFFFC0
07FFFFF800
07FFFFF800
07FFFFF800
07FFFFF800
07FFFFF800
ENDCHAR
STARTCHAR 00A2
ENCODING 162
SWIDTH 604 0
DWIDTH 58 0
BBX 43 44 0 14
BITMAP
007E00000000
007E00000000
007E00000000
007E00000000
007E00000000
07C000000000
07C000000000
07C000000000
07C000000000
07C000000000
FFFFFFFFFE00
FFFFFFFFFE00
FFFFFFFFFE00
FFFFFFFFFE00
FFFFFFFFFE00
07C000000000
07C000000000
07C000000000
07C000000000
07FE0007C000
007E0007C000
007E0007C000
007E0007C000
007E0007C000
007E0007FE00
000000007E00
000000007E00
000000007E00
000000007E00
07FFFFFFFFE0
07FFFFFFFFE0
07FFFFFFFFE0
07FFFFFFFFE0
07FFFFFFFFE0
000000007E00
000000007E00
000000007E00
000000007E00
000000007E00
00000007C000
00000007C000
00000007C000
00000007C000
00000007C000
ENDCHAR
STARTCHAR 00A3
ENCODING 163
SWIDTH 895 0
DWIDTH 86 0
BBX 72 52 0 10
BITMAP
00000007FFE0000000
00000007FFE0000000
00000007FFE0000000
00000007FFE0000000
000000F8001F000000
000000F8001F000000
000000F8001F000000
000000F8001F000000
000000F8001F000000
000000F8001F000000
000000F8001F000000
000000F8001F000000
000000F8001F000000
000000F8001F000000
00000007FE00000000
00000007FE00000000
00000007FE00000000
00000007FE00000000
00000007FE00000000
000000007E00000000
000000007E00000000
000000007E00000000
000000007E00000000
000000007FE0000000
00000007FFE0000000
00000007FFE0000000
00000007FFE0000000
00000007FFE0000000
00001FFFC3FFF80000
00001FFFC3FFF80000
00001FFFC3FFF80000
00001FFFC3FFF80000
00001FFFC3FFF80000
007FFF000000FFFE00
007FFF000000FFFE00
007FFF000000FFFE00
007FFF000000FFFE00
007FFF000000FFFE00
FFFE00000000007FFF
FFFE00000000007FFF
FFFE00000000007FFF
FFFE00000000007FFF
FFFE00000000007FFF
F8000000000000001F
F8000000000000001F
F8000000000000001F
F8000000000000001F
F8000000000000001F
FFFFFFFFFFFFFFFFFF
FFFFFFFFFFFFFFFFFF
FFFFFFFFFFFFFFFFFF
FFFFFFFFFFFFFFFFFF
ENDCHAR
STARTCHAR 00A4
ENCODING 164
SWIDTH 947 0
DWIDTH 91 0
BBX 77 72 0 0
BITMAP
000000F8000000000000
000000F8000000000000
000000F8000000000000
000000F8000000000000
000000F8000000000000
00001F07C00000000000
00001F07C00000000000
00001F07C00000000000
00001F07C00000000000
00001F07FE0000000000
0003E0007E0000000000
0003E0007E0000000000
0003E0007E0000000000
0003E0007E0000000000
007E1F007FE000000000
007E1F0003E000000000
007E1F0003E000000000
007E1F0003E000000000
007E1F0003E000000000
007E00F87E0000000000
007E00F87E0000000000
007E00F87E0000000000
007E00F87E0000000000
007E00F87E0000000000
0003E007C3E000000000
0003E007C3E000000000
0003E007C3E000000000
0003E007C3E000000000
0003E007C3E000000000
00001F007E1F00000000
00001F007E1F00000000
00001F007E1F00000000
00001F007E1F00000000
00001FF87E1FF87E0000
000000F803E0F87E0000
000000F803E0F87E0000
000000F803E0F87E0000
000000F803E0F87E0000
000000FFC3FF07C3E000
00000007C01F07C3E000
00000007C01F07C3E000
00000007C01F07C3E000
00000007C01F07C3E000
000000007E00F8001F00
000000007E00F8001F00
000000007E00F8001F00
000000007E00F8001F00
000000007E00F8001F00
0000000003E007C000F8
0000000003E007C000F8
0000000003E007C000F8
0000000003E007C000F8
0000000003E007C000F8
00000000001F007E1F00
00000000001F007E1F00
00000000001F007E1F00
00000000001F007E1F00
00000000001FF87E1F00
000000000000F803E000
000000000000F803E000
000000000000F803E000
000000000000F803E000
07C3E0F87E1F07FE0000
07C3E0F87E1F07FE0000
07C3E0F87E1F07FE0000
07C3E0F87E1F07FE0000
07C3E0F87E1F07FE0000
F87E1F07C3E000000000
F87E1F07C3E000000000
F87E1F07C3E000000000
F87E1F07C3E000000000
F87E1F07C3E000000000
ENDCHAR
STARTCHAR 00A5
ENCODING 165
SWIDTH 697 0
DWIDTH 67 0
BBX 53 48 0 15
BITMAP
00001FF8000000
00001FF8000000
00001FF8000000
00001FF8000000
00001F07C00000
00001F07C00000
00001F07C00000
00001F07C00000
00001F07C00000
0003E0F87E0000
0003E0F87E0000
0003E0F87E0000
0003E0F87E0000
0003E0F87E0000
0003E0F803E000
0003E0F803E000
0003E0F803E000
0003E0F803E000
0003E0F803E000
007E0007C01F00
007E0007C01F00
007E0007C01F00
007E0007C01F00
007E0007C01FF8
007E0007C000F8
007E0007C000F8
007E0007C000F8
007E0007C000F8
07C00007FE00F8
07C000007E0000
07C000007E0000
07C000007E0000
07C000007E0000
07C000007E00F8
07C000007E00F8
07C000007E00F8
07C000007E00F8
07C000007E00F8
F800000003E000
F800000003E000
F800000003E000
F800000003E000
F800000003E000
FFFFFFFFFFE0F8
FFFFFFFFFFE0F8
FFFFFFFFFFE0F8
FFFFFFFFFFE0F8
FFFFFFFFFFE0F8
ENDCHAR
STARTCHAR 00A6
ENCODING 166
SWIDTH 854 0
DWIDTH 82 0
BBX 67 67 0 4
BITMAP
FFFFFFFFFFFFFFFFE0
FFFFFFFFFFFFFFFFE0
FFFFFFFFFFFFFFFFE0
FFFFFFFFFFFFFFFFE0
FFFFFFFFFFFFFFFFE0
F800000000000003E0
F800000000000003E0
F800000000000003E0
F800000000000003E0
F87FFFFFFE1FFFC3E0
F87FFFFFFE1FFFC3E0
F87FFFFFFE1FFFC3E0
F87FFFFFFE1FFFC3E0
F87FFFFFFE1FFFC3E0
F87FFFFFFE1FFFC3E0
F800000000000003E0
F800000000000003E0
F800000000000003E0
F800000000000003E0
F87FE0FFFFFFFFC3E0
F87FE0FFFFFFFFC3E0
F87FE0FFFFFFFFC3E0
F87FE0FFFFFFFFC3E0
F87FE0FFFFFFFFC3E0
F800000000000003E0
F800000000000003E0
F800000000000003E0
F800000000000003E0
F800000000000003E0
F87FFFFFFFE0FFC3E0
F87FFFFFFFE0FFC3E0
F87FFFFFFFE0FFC3E0
F87FFFFFFFE0FFC3E0
F87FFFFFFFE0FFC3E0
F800000000000003E0
F800000000000003E0
F800000000000003E0
F800000000000003E0
F87FFF07FFFFFFC3E0
F87FFF07FFFFFFC3E0
F87FFF07FFFFFFC3E0
F87FFF07FFFFFFC3E0
F87FFF07FFFFFFC3E0
F800000000000003E0
F800000000000003E0
F800000000000003E0
F800000000000003E0
F800000000000003E0
FFC01FFFFFFFFFFFE0
FFC01FFFFFFFFFFFE0
FFC01FFFFFFFFFFFE0
FFC01FFFFFFFFFFFE0
FFC01FFFFFFFFFFFE0
07C3E0000000000000
07C3E0000000000000
07C3E0000000000000
07C3E0000000000000
07C3E0000000000000
07FE00000000000000
07FE00000000000000
07FE00000000000000
07FE00000000000000
07C000000000000000
07C000000000000000
07C000000000000000
07C000000000000000
07C000000000000000
ENDCHAR
STARTCHAR 00A7
ENCODING 167
SWIDTH 645 0
DWIDTH 62 0
BBX 48 77 0 0
BITMAP
F83C1F003FFF
F83C1F003FFF
F83C1F003FFF
F83C1F003FFF
F83C1F003FFF
F83C1F07FFFF
F83C1F07FFFF
F83C1F07FFFF
F83C1F07FFFF
F83C1F07FFFF
F83C1F07FFFF
F83C1F07FFFF
F83C1F07FFFF
F83C1F07FFFF
F83C1F07FFFF
F83C1F07FFFF
F83C1F07FFFF
F83C1F07FFFF
F83C1F07FFFF
FFFFFF07FFFF
FFFFFF07FFFF
FFFFFF07FFFF
FFFFFF07FFFF
FFFFFF07FFFF
FFFFFF07FFFF
FFFFFF07FFFF
FFFFFF07FFFF
FFFFFF07FFFF
FFFFFF07FFFF
07FFE007FFFF
07FFE007FFFF
07FFE007FFFF
07FFE007FFFF
07FFE007FFFF
07FFE007FFFF
07FFE007FFFF
07FFE007FFFF
07FFE007FFFF
07FFE007FFFF
07FFE007FFFF
07FFE007FFFF
07FFE007FFFF
07FFE007FFFF
07FFE007FFFF
07FFE007FFFF
07FFE007FFFF
07FFE007FFFF
07FFE007FFFF
07FFE0003FFF
07FFE0003FFF
07FFE0003FFF
07FFE0003FFF
07FFE0003FFF
07FFE0003FFF
07FFE0003FFF
07FFE0003FFF
07FFE0003FFF
07FFE0003FFF
07FFE0003FFF
07FFE0003FFF
07FFE0003FFF
07FFE0003FFF
07FFE0003FFF
07FFE0003FFF
07FFE0003FFF
07FFE0003FFF
07FFE0003FFF
07FFE0003FFF
07FFE0003FFF
07FFE0003FFF
07FFE0003FFF
07FFE0003FFF
07FFE0003FFF
07FFE0003FFF
07FFE0003FFF
07FFE0003FFF
07FFE0003FFF
ENDCHAR
STARTCHAR 00A8
ENCODING 168
SWIDTH 802 0
DWIDTH 77 0
BBX 62 44 0 14
BITMAP
0000000003E00000
0000000003E00000
0000000003E00000
0000000003E00000
0000000003E00000
000000007E000000
000000007E000000
000000007E000000
000000007E000000
000000007E000000
00000007FFFF0000
00000007FFFF0000
00000007FFFF0000
00000007FFFF0000
00000007FFFF0000
000000F87FE00000
000000F87FE00000
000000F87FE00000
000000F87FE00000
000000F87FFF0000
00001F007E1F0000
00001F007E1F0000
00001F007E1F0000
00001F007E1F0000
0003E0007E1FF800
0003E0000000F800
0003E0000000F800
0003E0000000F800
0003E0000000F800
007E00000000F800
007E00000000F800
007E00000000F800
007E00000000F800
007E00000000F800
07C0000000000000
07C0000000000000
07C0000000000000
07C0000000000000
07C0000000000000
FFFFFFFFFFFFFFFC
FFFFFFFFFFFFFFFC
FFFFFFFFFFFFFFFC
FFFFFFFFFFFFFFFC
FFFFFFFFFFFFFFFC
ENDCHAR
STARTCHAR 00A9
ENCODING 169
SWIDTH 947 0
DWIDTH 91 0
BBX 77 62 0 5
BITMAP
FFFFFFFFFFFFFFFFFFF8
FFFFFFFFFFFFFFFFFFF8
FFFFFFFFFFFFFFFFFFF8
FFFFFFFFFFFFFFFFFFF8
FFFFFFFFFFFFFFFFFFF8
07FFFFFFFFFFFFFFFF00
07FFFFFFFFFFFFFFFF00
07FFFFFFFFFFFFFFFF00
07FFFFFFFFFFFFFFFF00
07FFFFFFC00007FFE000
007FFFFFC00007FFE000
007FFFFFC00007FFE000
007FFFFFC00007FFE000
007FFFFFC00007FFE000
07FFFFFFC3FF07FFFF00
07FFFFFFC3FF07FFFF00
07FFFFFFC3FF07FFFF00
07FFFFFFC3FF07FFFF00
07FFFFFFC3FF07FFFF00
FFFFFFFFC3FF07FFFFF8
FFFFFFFFC3FF07FFFFF8
FFFFFFFFC3FF07FFFFF8
FFFFFFFFC3FF07FFFFF8
FFFFFFFFC3FF07FFFFF8
07FFE007C00007FFFF00
07FFE007C00007FFFF00
07FFE007C00007FFFF00
07FFE007C00007FFFF00
07FFE007C00007FFFF00
007E1FF87FFFFFFFE000
007E1FF87FFFFFFFE000
007E1FF87FFFFFFFE000
007E1FF87FFFFFFFE000
07FE1FF87FE0FFFFFF00
07FE1FF87FE0FFFFFF00
07FE1FF87FE0FFFFFF00
07FE1FF87FE0FFFFFF00
07FE1FF87FE0FFFFFF00
FFFFE007FE1F07FFFFF8
FFFFE007FE1F07FFFFF8
FFFFE007FE1F07FFFFF8
FFFFE007FE1F07FFFFF8
FFFFE007FE1F07FFFFF8
07FFFFFFC3FFF87FFF00
07FFFFFFC3FFF87FFF00
07FFFFFFC3FFF87FFF00
07FFFFFFC3FFF87FFF00
07FFFFFFC3FFF87FFF00
007FFFF800000003E000
007FFFF800000003E000
007FFFF800000003E000
007FFFF800000003E000
007FFFF800000003FF00
07FFFFFFFFFFFFFFFF00
07FFFFFFFFFFFFFFFF00
07FFFFFFFFFFFFFFFF00
07FFFFFFFFFFFFFFFF00
FFFFFFFFFFFFFFFFFFF8
FFFFFFFFFFFFFFFFFFF8
FFFFFFFFFFFFFFFFFFF8
FFFFFFFFFFFFFFFFFFF8
FFFFFFFFFFFFFFFFFFF8
ENDCHAR
STARTCHAR 00AA
ENCODING 170
SWIDTH 802 0
DWIDTH 77 0
BBX 62 62 0 5
BITMAP
00000007C0000000
00000007C0000000
00000007C0000000
00000007C0000000
00000007FE000000
000000F87E000000
000000F87E000000
000000F87E000000
000000F87E000000
00001F007FE00000
00001F0003E00000
00001F0003E00000
00001F0003E00000
00001F0003E00000
0003E000001F0000
0003E000001F0000
0003E000001F0000
0003E000001F0000
0003E000001F0000
007E00000000F800
007E00000000F800
007E00000000F800
007E00000000F800
007E00000000F800
07C00000000007C0
07C00000000007C0
07C00000000007C0
07C00000000007C0
07C00000000007FC
FFFFFFFFFFFFFFFC
FFFFFFFFFFFFFFFC
FFFFFFFFFFFFFFFC
FFFFFFFFFFFFFFFC
FFC00000000007C0
07C00000000007C0
07C00000000007C0
07C00000000007C0
07C00000000007C0
07C3FFF87FFF07C0
07C3FFF87FFF07C0
07C3FFF87FFF07C0
07C3FFF87FFF07C0
07C3FFF87FFF07C0
07C3E0F87E1F07C0
07C3E0F87E1F07C0
07C3E0F87E1F07C0
07C3E0F87E1F07C0
07C3E0F87E1F07C0
07C3E0F87FFF07C0
07C3E0F87FFF07C0
07C3E0F87FFF07C0
07C3E0F87FFF07C0
07C3E0F87FFF07C0
07C3E0F8000007C0
07C3E0F8000007C0
07C3E0F8000007C0
07C3E0F8000007C0
07FFE0FFFFFFFFC0
07FFE0FFFFFFFFC0
07FFE0FFFFFFFFC0
07FFE0FFFFFFFFC0
07FFE0FFFFFFFFC0
ENDCHAR
STARTCHAR 00AB
ENCODING 171
SWIDTH 802 0
DWIDTH 77 0
BBX 62 67 0 4
BITMAP
00000007C0000000
00000007C0000000
00000007C0000000
00000007C0000000
00000007C0000000
000000FFFC000000
000000FFFC000000
000000FFFC000000
000000FFFC000000
000000FFFC000000
00001FFFFFE00000
00001FFFFFE00000
00001FFFFFE00000
00001FFFFFE00000
00000007C0000000
00000007C0000000
00000007C0000000
00000007C0000000
00000007C0000000
0000000000000000
0000000000000000
0000000000000000
0000000000000000
0000000000000000
FFFFFFFFFFFFFFFC
FFFFFFFFFFFFFFFC
FFFFFFFFFFFFFFFC
FFFFFFFFFFFFFFFC
FFFFFFFFFFFFFFFC
0000000000000000
0000000000000000
0000000000000000
0000000000000000
0000000000000000
0000000000000000
0000000000000000
0000000000000000
0000000000000000
FFFFFFFFFFFFFFFC
FFFFFFFFFFFFFFFC
FFFFFFFFFFFFFFFC
FFFFFFFFFFFFFFFC
FFFFFFFFFFFFFFFC
0000000000000000
0000000000000000
0000000000000000
0000000000000000
0000000000000000
00000007C0000000
00000007C0000000
00000007C0000000
00000007C0000000
00000007C0000000
00001FFFFFE00000
00001FFFFFE00000
00001FFFFFE00000
00001FFFFFE00000
00001FFFFFE00000
000000FFFC000000
000000FFFC000000
000000FFFC000000
000000FFFC000000
00000007C0000000
00000007C0000000
00000007C0000000
00000007C0000000
00000007C0000000
ENDCHAR
STARTCHAR 00AC
ENCODING 172
SWIDTH 750 0
DWIDTH 72 0
BBX 58 77 0 0
BITMAP
007FFFFFFFFFFFC0
007FFFFFFFFFFFC0
007FFFFFFFFFFFC0
007FFFFFFFFFFFC0
007FFFFFFFFFFFC0
FFFFFF000000F800
FFFFFF000000F800
FFFFFF000000F800
FFFFFF000000F800
FFFFFF000000F800
F8001F00001F0000
F8001F00001F0000
F8001F00001F0000
F8001F00001F0000
F8001F00001F0000
F803E00003E00000
F803E00003E00000
F803E00003E00000
F803E00003E00000
F803E0007E000000
F803E0007E000000
F803E0007E000000
F803E0007E000000
F803E0007E000000
F87E0007FFFFFFC0
F87E0007FFFFFFC0
F87E0007FFFFFFC0
F87E0007FFFFFFC0
F87E0007FFFFFFC0
F87E00000000F800
F87E00000000F800
F87E00000000F800
F87E00000000F800
F87E00000000F800
FFFFFFF8001F0000
FFFFFFF8001F0000
FFFFFFF8001F0000
FFFFFFF8001F0000
FFFFFFF8001F0000
FFFFFF0003E00000
FFFFFF0003E00000
FFFFFF0003E00000
FFFFFF0003E00000
FFFFFF007E000000
FFFFFF007E000000
FFFFFF007E000000
FFFFFF007E000000
FFFFFF007E000000
FFFFE007C0000000
FFFFE007C0000000
FFFFE007C0000000
FFFFE007C0000000
FFFFE007C0000000
FFFFE0FFC0000000
FFFFE0FFC0000000
FFFFE0FFC0000000
FFFFE0FFC0000000
FFFFE0FFC0000000
FFFE1FFFC0000000
FFFE1FFFC0000000
FFFE1FFFC0000000
FFFE1FFFC0000000
FFFE1FFFC0000000
FFFFFFFFC0000000
FFFFFFFFC0000000
FFFFFFFFC0000000
FFFFFFFFC0000000
FFFFFFFFC0000000
FFFFFFFFC0000000
FFFFFFFFC0000000
FFFFFFFFC0000000
FFFFFFFFC0000000
07FFFFF800000000
07FFFFF800000000
07FFFFF800000000
07FFFFF800000000
07FFFFF800000000
ENDCHAR
STARTCHAR 00AE
ENCODING 174
SWIDTH 645 0
DWIDTH 62 0
BBX 48 44 0 14
BITMAP
00001FFFFE00
00001FFFFE00
00001FFFFE00
00001FFFFE00
00001FFFFE00
00001F007E00
00001F007E00
00001F007E00
00001F007E00
00001F007E00
00001F007E00
00001F007E00
00001F007E00
00001F007E00
00001F007E00
07FE1FFFFE00
07FE1FFFFE00
07FE1FFFFE00
07FE1FFFFE00
07FE1FFFFE00
F803E0000000
F803E0000000
F803E0000000
F803E0000000
F803E007C000
F803E007C000
F803E007C000
F803E007C000
F803E007C000
07FE00F87E00
07FE00F87E00
07FE00F87E00
07FE00F87E00
07FE00F87E00
00001F0003E0
00001F0003E0
00001F0003E0
00001F0003E0
00001F0003E0
0003FFFFFFFF
0003FFFFFFFF
0003FFFFFFFF
0003FFFFFFFF
0003FFFFFFFF
ENDCHAR
STARTCHAR 00AF
ENCODING 175
SWIDTH 1000 0
DWIDTH 96 0
BBX 82 77 0 0
BITMAP
07FFFFFFFFFFFFFFFFF800
07FFFFFFFFFFFFFFFFF800
07FFFFFFFFFFFFFFFFF800
07FFFFFFFFFFFFFFFFF800
07FFFFFFFFFFFFFFFFF800
FFFFFFFFFFFFFFFFFFFFC0
FFFFFFFFFFFFFFFFFFFFC0
FFFFFFFFFFFFFFFFFFFFC0
FFFFFFFFFFFFFFFFFFFFC0
FFFFFFFFFFFFFFFFFFFFC0
FFFFFFFFFFFFFFFFFFFFC0
FFFFFFFFFFFFFFFFFFFFC0
FFFFFFFFFFFFFFFFFFFFC0
FFFFFFFFFFFFFFFFFFFFC0
FFFFFFFFFFFFFFFFFFFFC0
FFFFFFFFFFFFFFFFFFFFC0
FFFFFFFFFFFFFFFFFFFFC0
FFFFFFFFFFFFFFFFFFFFC0
FFFFFFFFFFFFFFFFFFFFC0
FFC000FFC3FFFFC01FFFC0
FFC000FFC3FFFFC01FFFC0
FFC000FFC3FFFFC01FFFC0
FFC000FFC3FFFFC01FFFC0
FFC000FFC3FFFFC01FFFC0
FFC3FF07C3FFF87FE0FFC0
FFC3FF07C3FFF87FE0FFC0
FFC3FF07C3FFF87FE0FFC0
FFC3FF07C3FFF87FE0FFC0
FFC3FF07C3FFF87FE0FFC0
FFC000FFC3FFF80000FFC0
FFC000FFC3FFF80000FFC0
FFC000FFC3FFF80000FFC0
FFC000FFC3FFF80000FFC0
FFC000FFC3FFF80000FFC0
FFC3FF07C3FFF87FE0FFC0
FFC3FF07C3FFF87FE0FFC0
FFC3FF07C3FFF87FE0FFC0
FFC3FF07C3FFF87FE0FFC0
FFC3FF07C3FFF87FE0FFC0
FFC000FFC000F87FE0FFC0
FFC000FFC000F87FE0FFC0
FFC000FFC000F87FE0FFC0
FFC000FFC000F87FE0FFC0
FFFFFFFFFFFFFFFFFFFFC0
FFFFFFFFFFFFFFFFFFFFC0
FFFFFFFFFFFFFFFFFFFFC0
FFFFFFFFFFFFFFFFFFFFC0
FFFFFFFFFFFFFFFFFFFFC0
FFFFFFFFFFFFFFFFFFFFC0
FFFFFFFFFFFFFFFFFFFFC0
FFFFFFFFFFFFFFFFFFFFC0
FFFFFFFFFFFFFFFFFFFFC0
FFFFFFFFFFFFFFFFFFFFC0
FFFFFFFFFFFFFFFFFFFFC0
FFFFFFFFFFFFFFFFFFFFC0
FFFFFFFFFFFFFFFFFFFFC0
FFFFFFFFFFFFFFFFFFFFC0
FFFFFFFFFFFFFFFFFFFFC0
07FFFFFFFFFFFFFFFFF800
07FFFFFFFFFFFFFFFFF800
07FFFFFFFFFFFFFFFFF800
07FFFFFFFFFFFFFFFFF800
07FFFFFFFFFFFFFFFFF800
000000000000007FFF0000
000000000000007FFF0000
000000000000007FFF0000
000000000000007FFF0000
000000000000007FE00000
000000000000007FE00000
000000000000007FE00000
000000000000007FE00000
000000000000007FE00000
000000000000007E000000
000000000000007E000000
000000000000007E000000
000000000000007E000000
000000000000007E000000
ENDCHAR
STARTCHAR 00B0
ENCODING 176
SWIDTH 895 0
DWIDTH 86 0
BBX 72 57 0 10
BITMAP
00000007FFE0000000
00000007FFE0000000
00000007FFE0000000
00000007FFE0000000
00000007FFFFF80000
00001FF8001FF80000
00001FF8001FF80000
00001FF8001FF80000
00001FF8001FF80000
00001FF8001FFFC000
00000000000007C000
00000000000007C000
00000000000007C000
00000000000007C000
00000000000007C000
00000000000007C000
00000000000007C000
00000000000007C000
00000000000007C000
003E00000000007C00
003E00000000007C00
003E00000000007C00
003E00000000007C00
003E00000000007C00
07FFE0000000FFFFFF
07FFE0000000FFFFFF
07FFE0000000FFFFFF
07FFE0000000FFFFFF
07FFFF000000FFFFFF
FFFFFF00000007FFE0
FFFFFF00000007FFE0
FFFFFF00000007FFE0
FFFFFF00000007FFE0
FFFE0000000007FE00
007E00000000007E00
007E00000000007E00
007E00000000007E00
007E00000000007E00
0003E0000000000000
0003E0000000000000
0003E0000000000000
0003E0000000000000
0003E0000000000000
0003E0000000000000
0003E0000000000000
0003E0000000000000
0003E0000000000000
0003E0000000000000
00001FF8001FF80000
00001FF8001FF80000
00001FF8001FF80000
00001FF8001FF80000
00001FF8001FF80000
00000007FFE0000000
00000007FFE0000000
00000007FFE0000000
00000007FFE0000000
ENDCHAR
STARTCHAR 00B1
ENCODING 177
SWIDTH 895 0
DWIDTH 86 0
BBX 72 57 0 10
BITMAP
FFFFFFFFFFFFFFFFFF
FFFFFFFFFFFFFFFFFF
FFFFFFFFFFFFFFFFFF
FFFFFFFFFFFFFFFFFF
FFFFFFFFFFFFFFFFFF
F8001FFFFFE007C01F
F8001FFFFFE007C01F
F8001FFFFFE007C01F
F8001FFFFFE007C01F
F8001FFFFFFF07C3FF
F80000FFFFFF07C3FF
F80000FFFFFF07C3FF
F80000FFFFFF07C3FF
F80000FFFFFF07C3FF
F803E007FFFFF87FFF
F803E007FFFFF87FFF
F803E007FFFFF87FFF
F803E007FFFFF87FFF
F803E007FFFFF87FFF
F80000007FFF0003FF
F80000007FFF0003FF
F80000007FFF0003FF
F80000007FFF0003FF
F80000007FFF0003FF
F80000007FE000001F
F80000007FE000001F
F80000007FE000001F
F80000007FE000001F
F80000007FFFFFC01F
F80000007FFFFFC01F
F80000007FFFFFC01F
F80000007FFFFFC01F
F80000007FFFFFC01F
F87E00FFFFE000001F
F87E00FFFFE000001F
F87E00FFFFE000001F
F87E00FFFFE000001F
F87E00FFFFE000001F
F803FFFFFFFF0003FF
F803FFFFFFFF0003FF
F803FFFFFFFF0003FF
F803FFFFFFFF0003FF
F803FFFFFFFF0003FF
F8001FFFFFFFF87FFF
F8001FFFFFFFF87FFF
F8001FFFFFFFF87FFF
F8001FFFFFFFF87FFF
F8001FFFFFFFF87FFF
FFFFFFFFFFFF0003FF
FFFFFFFFFFFF0003FF
FFFFFFFFFFFF0003FF
FFFFFFFFFFFF0003FF
FFFFFFFFFFFF0003FF
FFFFFFFFFFFFFFFFFF
FFFFFFFFFFFFFFFFFF
FFFFFFFFFFFFFFFFFF
FFFFFFFFFFFFFFFFFF
ENDCHAR
STARTCHAR 00B2
ENCODING 178
SWIDTH 895 0
DWIDTH 86 0
BBX 72 52 0 10
BITMAP
FFFFFFFFFFFFFFFFFF
FFFFFFFFFFFFFFFFFF
FFFFFFFFFFFFFFFFFF
FFFFFFFFFFFFFFFFFF
F8001FFFFFFFF8001F
F8001FFFFFFFF8001F
F8001FFFFFFFF8001F
F8001FFFFFFFF8001F
F8001FFFFFFFF8001F
F80000FFFFFF00001F
F80000FFFFFF00001F
F80000FFFFFF00001F
F80000FFFFFF00001F
F80000FFFFFF00001F
F803E007FFE007C01F
F803E007FFE007C01F
F803E007FFE007C01F
F803E007FFE007C01F
F803E007FFE007C01F
F80000007E0000001F
F80000007E0000001F
F80000007E0000001F
F80000007E0000001F
F80000007E0000001F
F80000007E0000001F
F80000007E0000001F
F80000007E0000001F
F80000007E0000001F
F80000FFFFFF00001F
F80000FFFFFF00001F
F80000FFFFFF00001F
F80000FFFFFF00001F
F80000FFFFFF00001F
F87E00FFFFFF007E1F
F87E00FFFFFF007E1F
F87E00FFFFFF007E1F
F87E00FFFFFF007E1F
F87E00FFFFFF007E1F
F803FFFFFFFFFFC01F
F803FFFFFFFFFFC01F
F803FFFFFFFFFFC01F
F803FFFFFFFFFFC01F
F803FFFFFFFFFFC01F
F8001FFFFFFFF8001F
F8001FFFFFFFF8001F
F8001FFFFFFFF8001F
F8001FFFFFFFF8001F
F8001FFFFFFFF8001F
FFFFFFFFFFFFFFFFFF
FFFFFFFFFFFFFFFFFF
FFFFFFFFFFFFFFFFFF
FFFFFFFFFFFFFFFFFF
ENDCHAR
STARTCHAR 00B3
ENCODING 179
SWIDTH 802 0
DWIDTH 77 0
BBX 62 77 0 0
BITMAP
07FFFFFFFFFFFFC0
07FFFFFFFFFFFFC0
07FFFFFFFFFFFFC0
07FFFFFFFFFFFFC0
07FFFFFFFFFFFFC0
F80000000000007C
F80000000000007C
F80000000000007C
F80000000000007C
F80000000000007C
F80000000000007C
F80000000000007C
F80000000000007C
F80000000000007C
F80000FFFFE0007C
F80000FFFFE0007C
F80000FFFFE0007C
F80000FFFFE0007C
F80000FFFFE0007C
F8001FF803FF007C
F8001FF803FF007C
F8001FF803FF007C
F8001FF803FF007C
F8001FF803FF007C
F8001FF803FF007C
F8001FF803FF007C
F8001FF803FF007C
F8001FF803FF007C
F8001FF803FF007C
F80000007FFF007C
F80000007FFF007C
F80000007FFF007C
F80000007FFF007C
F80000007FFF007C
F8000007FE00007C
F8000007FE00007C
F8000007FE00007C
F8000007FE00007C
F8000007FE00007C
F8000007FE00007C
F8000007FE00007C
F8000007FE00007C
F8000007FE00007C
F8000007FE00007C
F80000000000007C
F80000000000007C
F80000000000007C
F80000000000007C
F8000007FE00007C
F8000007FE00007C
F8000007FE00007C
F8000007FE00007C
F8000007FE00007C
F80000000000007C
F80000000000007C
F80000000000007C
F80000000000007C
F80000000000007C
07FFFFFFFFE007C0
07FFFFFFFFE007C0
07FFFFFFFFE007C0
07FFFFFFFFE007C0
07FFFFFFFFE007C0
0000000003E0F800
0000000003E0F800
0000000003E0F800
0000000003E0F800
0000000003FF0000
0000000003FF0000
0000000003FF0000
0000000003FF0000
0000000003FF0000
0000000003E00000
0000000003E00000
0000000003E00000
0000000003E00000
0000000003E00000
ENDCHAR
STARTCHAR 00B4
ENCODING 180
SWIDTH 750 0
DWIDTH 72 0
BBX 58 57 0 10
BITMAP
000000FFC0000000
000000FFC0000000
000000FFC0000000
000000FFC0000000
000000FFFE000000
00001F007E000000
00001F007E000000
00001F007E000000
00001F007E000000
00001F007E000000
00001F007E000000
00001F007E000000
00001F007E000000
00001F007E000000
0003E00003E00000
0003E00003E00000
0003E00003E00000
0003E00003E00000
0003E00003E00000
0003E0FFC3E00000
0003E0FFC3E00000
0003E0FFC3E00000
0003E0FFC3E00000
0003E0FFC3E00000
007E00FFC01F0000
007E00FFC01F0000
007E00FFC01F0000
007E00FFC01F0000
007E00FFC01F0000
007E00FFC01F0000
007E00FFC01F0000
007E00FFC01F0000
007E00FFC01F0000
07C000FFC01FF800
07C000FFC000F800
07C000FFC000F800
07C000FFC000F800
07C000FFC000F800
07C000000000F800
07C000000000F800
07C000000000F800
07C000000000F800
07C000000000F800
F80000FFC00007C0
F80000FFC00007C0
F80000FFC00007C0
F80000FFC00007C0
F80000FFC00007C0
F8000000000007C0
F8000000000007C0
F8000000000007C0
F8000000000007C0
F8000000000007C0
FFFFFFFFFFFFFFC0
FFFFFFFFFFFFFFC0
FFFFFFFFFFFFFFC0
FFFFFFFFFFFFFFC0
ENDCHAR
STARTCHAR 00B5
ENCODING 181
SWIDTH 854 0
DWIDTH 82 0
BBX 67 62 0 5
BITMAP
000000007FFF000000
000000007FFF000000
000000007FFF000000
000000007FFF000000
07FFE0007FFFF80000
07FFE007C000F80000
07FFE007C000F80000
07FFE007C000F80000
07FFE007C000F80000
F8001F07C3E0F80000
F8001F07C3E0F80000
F8001F07C3E0F80000
F8001F07C3E0F80000
F8001F07C3E0F80000
F87E1F07C000F80000
F87E1F07C000F80000
F87E1F07C000F80000
F87E1F07C000F80000
F87E1F07C000F80000
F8001F007FFF000000
F8001F007FFF000000
F8001F007FFF000000
F8001F007FFF000000
F8001F007FFF000000
07FFE0000000000000
07FFE0000000000000
07FFE0000000000000
07FFE0000000000000
07FFFFFFFFFF0003E0
00001FFFFFFF0003E0
00001FFFFFFF0003E0
00001FFFFFFF0003E0
00001FFFFFFF0003E0
007FE0000000FFFFE0
007FE0000000FFFFE0
007FE0000000FFFFE0
007FE0000000FFFFE0
007FE0000000FFFFE0
07C00007C3E00003E0
07C00007C3E00003E0
07C00007C3E00003E0
07C00007C3E00003E0
07C00007C3E00003E0
07C000000000FFFFE0
07C000000000FFFFE0
07C000000000FFFFE0
07C000000000FFFFE0
07C000000000FFFFE0
07C3E0FFFFE0F803E0
07C3E0FFFFE0F803E0
07C3E0FFFFE0F803E0
07C3E0FFFFE0F803E0
07C3E0FFFFE0F803E0
07C000000000F80000
07C000000000F80000
07C000000000F80000
07C000000000F80000
07FFFFFFFFFF000000
007FFFFFFFFF000000
007FFFFFFFFF000000
007FFFFFFFFF000000
007FFFFFFFFF000000
ENDCHAR
STARTCHAR 00B6
ENCODING 182
SWIDTH 947 0
DWIDTH 91 0
BBX 77 67 0 4
BITMAP
00000007FFFF00000000
00000007FFFF00000000
00000007FFFF00000000
00000007FFFF00000000
00000007FFFF00000000
00000007FFFF00000000
00000007FFFF00000000
00000007FFFF00000000
00000007FFFF00000000
00000007FFFF00000000
0003FFFFFFFFFFFC0000
0003FFFFFFFFFFFC0000
0003FFFFFFFFFFFC0000
0003FFFFFFFFFFFC0000
0003E0000000003C0000
0003E0000000003C0000
0003E0000000003C0000
0003E0000000003C0000
0003E0000000003C0000
003FE0000000003FE000
003FE0000000003FE000
003FE0000000003FE000
003FE0000000003FE000
003FE0000000003FE000
003C000000000003E000
003C000000000003E000
003C000000000003E000
003C000000000003E000
003C000000000003E000
FFFFFFFFFFFFFFFFFFF8
FFFFFFFFFFFFFFFFFFF8
FFFFFFFFFFFFFFFFFFF8
FFFFFFFFFFFFFFFFFFF8
FFFFFFFFFFFFFFFFFFF8
F803FFFFFFFFFFFC00F8
F803FFFFFFFFFFFC00F8
F803FFFFFFFFFFFC00F8
F803FFFFFFFFFFFC00F8
F803FFFFFFFFFFFC00F8
F803FFFFFFFFFFFC00F8
F803FFFFFFFFFFFC00F8
F803FFFFFFFFFFFC00F8
F803FFFFFFFFFFFC00F8
FFFFFFFFFFFFFFFFFFF8
FFFFFFFFFFFFFFFFFFF8
FFFFFFFFFFFFFFFFFFF8
FFFFFFFFFFFFFFFFFFF8
FFFFFFFFFFFFFFFFFFF8
FFFFFFFFFFFFFFFFFFF8
FFFFFFFFFFFFFFFFFFF8
FFFFFFFFFFFFFFFFFFF8
FFFFFFFFFFFFFFFFFFF8
FFFFFFFFFFFFFFFFFFF8
07FC000000000003FF00
07FC000000000003FF00
07FC000000000003FF00
07FC000000000003FF00
07FC000000000003FF00
07FC000000000003FF00
07FC000000000003FF00
07FC000000000003FF00
07FC000000000003FF00
07FC000000000003FF00
07FC000000000003FF00
07FC000000000003FF00
07FC000000000003FF00
07FC000000000003FF00
ENDCHAR
STARTCHAR 00B7
ENCODING 183
SWIDTH 802 0
DWIDTH 77 0
BBX 62 62 0 5
BITMAP
FFFFFF0003FFFFFC
FFFFFF0003FFFFFC
FFFFFF0003FFFFFC
FFFFFF0003FFFFFC
FFFFFF0003FFFFFC
F8001F07C3E0003C
F8001F07C3E0003C
F8001F07C3E0003C
F8001F07C3E0003C
F83C1F0003E0F83C
F83C1F0003E0F83C
F83C1F0003E0F83C
F83C1F0003E0F83C
F83C1F0003E0F83C
F8000007C000003C
F8000007C000003C
F8000007C000003C
F8000007C000003C
F8000007C000003C
FFFC1F07C3E0FFFC
FFFC1F07C3E0FFFC
FFFC1F07C3E0FFFC
FFFC1F07C3E0FFFC
FFFC1F07C3E0FFFC
0000000000000000
0000000000000000
0000000000000000
0000000000000000
0000000000000000
07C3FF07C3FF07C0
07C3FF07C3FF07C0
07C3FF07C3FF07C0
07C3FF07C3FF07C0
0000000000000000
0000000000000000
0000000000000000
0000000000000000
0000000000000000
FFFC1F07C3E0FFFC
FFFC1F07C3E0FFFC
FFFC1F07C3E0FFFC
FFFC1F07C3E0FFFC
FFFC1F07C3E0FFFC
F8000007C000003C
F8000007C000003C
F8000007C000003C
F8000007C000003C
F8000007C000003C
F83C1F0003E0F83C
F83C1F0003E0F83C
F83C1F0003E0F83C
F83C1F0003E0F83C
F83C1F0003E0F83C
F8001F07C3E0003C
F8001F07C3E0003C
F8001F07C3E0003C
F8001F07C3E0003C
FFFFFF0003FFFFFC
FFFFFF0003FFFFFC
FFFFFF0003FFFFFC
FFFFFF0003FFFFFC
FFFFFF0003FFFFFC
ENDCHAR
STARTCHAR 00B8
ENCODING 184
SWIDTH 697 0
DWIDTH 67 0
BBX 53 57 0 10
BITMAP
000000F8000000
000000F8000000
000000F8000000
000000F8000000
000000FFC00000
00001F07C00000
00001F07C00000
00001F07C00000
00001F07C00000
0003E007FE0000
0003E0007E0000
0003E0007E0000
0003E0007E0000
0003E0007E0000
007E000003E000
007E000003E000
007E000003E000
007E000003E000
007E000003E000
07C00000001F00
07C00000001F00
07C00000001F00
07C00000001F00
07C00000001F00
FFFFFFFFFFFFF8
FFFFFFFFFFFFF8
FFFFFFFFFFFFF8
FFFFFFFFFFFFF8
FFFFFFFFFFFFF8
07C3E0F87E1F00
07C3E0F87E1F00
07C3E0F87E1F00
07C3E0F87E1F00
07C3E0F87E1F00
07C3E0F87E1F00
07C3E0F87E1F00
07C3E0F87E1F00
07C3E0F87E1F00
07C3E0F87E1F00
07C3E0F87E1F00
07C3E0F87E1F00
07C3E0F87E1F00
07C3E0F87E1F00
FFFFFFFFFFFFF8
FFFFFFFFFFFFF8
FFFFFFFFFFFFF8
FFFFFFFFFFFFF8
FFFFFFFFFFFFF8
00000000000000
00000000000000
00000000000000
00000000000000
FFFFFFFFFFFFF8
FFFFFFFFFFFFF8
FFFFFFFFFFFFF8
FFFFFFFFFFFFF8
FFFFFFFFFFFFF8
ENDCHAR
STARTCHAR 00B9
ENCODING 185
SWIDTH 895 0
DWIDTH 86 0
BBX 72 39 0 19
BITMAP
0003FFFFFFFFF8001F
0003FFFFFFFFF8001F
0003FFFFFFFFF8001F
0003FFFFFFFFF8001F
0003FFFFFFFFF8001F
FFFE0000000007FFFF
FFFE0000000007FFFF
FFFE0000000007FFFF
FFFE0000000007FFFF
FFFE0000000007FFFF
F8000000000000001F
F8000000000000001F
F8000000000000001F
F8000000000000001F
F8000000000000001F
FFFE00007E1F00001F
FFFE00007E1F00001F
FFFE00007E1F00001F
FFFE00007E1F00001F
FFFE00007E1F00001F
007E0000000007FFFF
007E0000000007FFFF
007E0000000007FFFF
007E0000000007FFFF
007E1F07FFFF07C01F
007E1F07FFFF07C01F
007E1F07FFFF07C01F
007E1F07FFFF07C01F
007E1F07FFFF07C01F
007E0000000007C000
007E0000000007C000
007E0000000007C000
007E0000000007C000
007E0000000007C000
0003FFFFFFFFF80000
0003FFFFFFFFF80000
0003FFFFFFFFF80000
0003FFFFFFFFF80000
0003FFFFFFFFF80000
ENDCHAR
STARTCHAR 00BA
ENCODING 186
SWIDTH 802 0
DWIDTH 77 0
BBX 62 62 0 5
BITMAP
00000007C0000000
00000007C0000000
00000007C0000000
00000007C0000000
00000007C0000000
000000FFFC000000
000000FFFC000000
000000FFFC000000
000000FFFC000000
00001FFFFFE00000
00001FFFFFE00000
00001FFFFFE00000
00001FFFFFE00000
00001FFFFFE00000
0003FFFFFFFF0000
0003FFFFFFFF0000
0003FFFFFFFF0000
0003FFFFFFFF0000
0003FFFFFFFF0000
003FFFFFFFFFF800
003FFFFFFFFFF800
003FFFFFFFFFF800
003FFFFFFFFFF800
003FFFFFFFFFF800
07FFFFFFFFFFFFC0
07FFFFFFFFFFFFC0
07FFFFFFFFFFFFC0
07FFFFFFFFFFFFC0
07FFFFFFFFFFFFC0
FFFFFFFFFFFFFFFC
FFFFFFFFFFFFFFFC
FFFFFFFFFFFFFFFC
FFFFFFFFFFFFFFFC
07C00000000007C0
07C00000000007C0
07C00000000007C0
07C00000000007C0
07C00000000007C0
07C3FFF83FFF07C0
07C3FFF83FFF07C0
07C3FFF83FFF07C0
07C3FFF83FFF07C0
07C3FFF83FFF07C0
07C3E0F83C1F07C0
07C3E0F83C1F07C0
07C3E0F83C1F07C0
07C3E0F83C1F07C0
07C3E0F83C1F07C0
07C3E0F83FFF07C0
07C3E0F83FFF07C0
07C3E0F83FFF07C0
07C3E0F83FFF07C0
07C3E0F83FFF07C0
07C3E0F8000007C0
07C3E0F8000007C0
07C3E0F8000007C0
07C3E0F8000007C0
07FFE0FFFFFFFFC0
07FFE0FFFFFFFFC0
07FFE0FFFFFFFFC0
07FFE0FFFFFFFFC0
07FFE0FFFFFFFFC0
ENDCHAR
STARTCHAR 00BB
ENCODING 187
SWIDTH 604 0
DWIDTH 58 0
BBX 43 48 0 15
BITMAP
0003FFF80000
0003FFF80000
0003FFF80000
0003FFF80000
FFFFFFFFFFE0
FFFFFFFFFFE0
FFFFFFFFFFE0
FFFFFFFFFFE0
FFFFFFFFFFE0
F800000003E0
F800000003E0
F800000003E0
F800000003E0
F800000003E0
FFFFFFFFFFE0
FFFFFFFFFFE0
FFFFFFFFFFE0
FFFFFFFFFFE0
FFFFFFFFFFE0
07C3E0F83C00
07C3E0F83C00
07C3E0F83C00
07C3E0F83C00
07C3E0F83C00
07C3E0F83C00
07C3E0F83C00
07C3E0F83C00
07C3E0F83C00
07C3E0F83C00
07C3E0F83C00
07C3E0F83C00
07C3E0F83C00
07C3E0F83C00
07C3E0F83C00
07C3E0F83C00
07C3E0F83C00
07C3E0F83C00
07C3E0F83C00
07C3E0F83C00
07C3E0F83C00
07C3E0F83C00
07C3E0F83C00
07C3E0F83C00
07FFFFFFFC00
07FFFFFFFC00
07FFFFFFFC00
07FFFFFFFC00
07FFFFFFFC00
ENDCHAR
STARTCHAR 00BC
ENCODING 188
SWIDTH 802 0
DWIDTH 77 0
BBX 62 57 0 10
BITMAP
07C01FF803FF0000
07C01FF803FF0000
07C01FF803FF0000
07C01FF803FF0000
07C01FF803FFF800
F87FE0FFFE1FF800
F87FE0FFFE1FF800
F87FE0FFFE1FF800
F87FE0FFFE1FF800
F87E00FFC01FF800
F87E0007C000F800
F87E0007C000F800
F87E0007C000F800
F87E0007C000F800
07C3E007FE00FFC0
07C3E007FE00FFC0
07C3E007FE00FFC0
07C3E007FE00FFC0
07C3E007FE00FFC0
07C3E0007E0007C0
07C3E0007E0007C0
07C3E0007E0007C0
07C3E0007E0007C0
07C3E0007E0007C0
007E1F07FFE0FFFC
007E1F07FFE0FFFC
007E1F07FFE0FFFC
007E1F07FFE0FFFC
007E1F07FFE0FFFC
007E1FF803FF007C
007E1FF803FF007C
007E1FF803FF007C
007E1FF803FF007C
007FE0F803FF007C
0003E0F800000000
0003E0F800000000
0003E0F800000000
0003E0F800000000
0003E0F800000000
0003E0F800000000
0003E0F800000000
0003E0F800000000
0003E0F800000000
00001F07C0000000
00001F07C0000000
00001F07C0000000
00001F07C0000000
00001F07C0000000
00001F07C0000000
00001F07C0000000
00001F07C0000000
00001F07C0000000
00001F07C0000000
000000F800000000
000000F800000000
000000F800000000
000000F800000000
ENDCHAR
STARTCHAR 00BD
ENCODING 189
SWIDTH 604 0
DWIDTH 58 0
BBX 43 48 0 15
BITMAP
FFFFFFFFFFE0
FFFFFFFFFFE0
FFFFFFFFFFE0
FFFFFFFFFFE0
F800000003E0
F800000003E0
F800000003E0
F800000003E0
F800000003E0
F800000003E0
F800000003E0
F800000003E0
F800000003E0
F800000003E0
F800000003E0
F800000003E0
F800000003E0
F800000003E0
F800000003E0
FFFFFFF803E0
FFFFFFF803E0
FFFFFFF803E0
FFFFFFF803E0
FFFFFFF803E0
FFC3E0F803E0
FFC3E0F803E0
FFC3E0F803E0
FFC3E0F803E0
F87E1FF803E0
F87E1FF803E0
F87E1FF803E0
F87E1FF803E0
F87E1FF803E0
F803E0F803E0
F803E0F803E0
F803E0F803E0
F803E0F803E0
F803E0F803E0
F8001FF803E0
F8001FF803E0
F8001FF803E0
F8001FF803E0
F8001FF803E0
FFFFFFFFFFE0
FFFFFFFFFFE0
FFFFFFFFFFE0
FFFFFFFFFFE0
FFFFFFFFFFE0
ENDCHAR
STARTCHAR 00BE
ENCODING 190
SWIDTH 697 0
DWIDTH 67 0
BBX 53 57 0 10
BITMAP
FFFE1F07C3E0F8
FFFE1F07C3E0F8
FFFE1F07C3E0F8
FFFE1F07C3E0F8
FFFE1F07C3E0F8
F87E0000000000
F87E0000000000
F87E0000000000
F87E0000000000
F87E0007C000F8
F87E0007C000F8
F87E0007C000F8
F87E0007C000F8
F87E0007C000F8
F87E00FFC01FF8
F87E00FFC01FF8
F87E00FFC01FF8
F87E00FFC01FF8
F87E00FFC01FF8
F87E1F07C3E0F8
F87E1F07C3E0F8
F87E1F07C3E0F8
F87E1F07C3E0F8
F87E1F07C3E0F8
F87FE007FE00F8
F87FE007FE00F8
F87FE007FE00F8
F87FE007FE00F8
F87FE007FE00F8
F87E0007C000F8
F87E0007C000F8
F87E0007C000F8
F87E0007C000F8
F87E0007C000F8
F80000000000F8
F80000000000F8
F80000000000F8
F80000000000F8
F87FFF07C3E0F8
F87FFF07C3E0F8
F87FFF07C3E0F8
F87FFF07C3E0F8
F87FFF07C3E0F8
F87E1F000000F8
F87E1F000000F8
F87E1F000000F8
F87E1F000000F8
F87E1F000000F8
F87E1F000000F8
F87E1F000000F8
F87E1F000000F8
F87E1F000000F8
F87E1F000000F8
FFFE1FFFFFFFF8
FFFE1FFFFFFFF8
FFFE1FFFFFFFF8
FFFE1FFFFFFFF8
ENDCHAR
STARTCHAR 00BF
ENCODING 191
SWIDTH 895 0
DWIDTH 86 0
BBX 72 67 0 4
BITMAP
FFFFFFFFFFFFFFFFFF
FFFFFFFFFFFFFFFFFF
FFFFFFFFFFFFFFFFFF
FFFFFFFFFFFFFFFFFF
FFFFFFFFFFFFFFFFFF
FFC3E0F87E1F07C3FF
FFC3E0F87E1F07C3FF
FFC3E0F87E1F07C3FF
FFC3E0F87E1F07C3FF
FFC3E0F87E1F07C3FF
F87E1F07C3E0F87E1F
F87E1F07C3E0F87E1F
F87E1F07C3E0F87E1F
F87E1F07C3E0F87E1F
FFFFFFFFFFFFFFFFFF
FFFFFFFFFFFFFFFFFF
FFFFFFFFFFFFFFFFFF
FFFFFFFFFFFFFFFFFF
FFFFFFFFFFFFFFFFFF
F8000000000000001F
F8000000000000001F
F8000000000000001F
F8000000000000001F
F8000000000000001F
F803E000000000001F
F803E000000000001F
F803E000000000001F
F803E000000000001F
F803E000000000001F
F87FFF07FFFFFFFE1F
F87FFF07FFFFFFFE1F
F87FFF07FFFFFFFE1F
F87FFF07FFFFFFFE1F
F87FFF07FFFFFFFE1F
F803E000000000001F
F803E000000000001F
F803E000000000001F
F803E000000000001F
F803E000000000001F
F8000000000000001F
F8000000000000001F
F8000000000000001F
F8000000000000001F
F803E000000000001F
F803E000000000001F
F803E000000000001F
F803E000000000001F
F803E000000000001F
F87FFF07FFFFFFFE1F
F87FFF07FFFFFFFE1F
F87FFF07FFFFFFFE1F
F87FFF07FFFFFFFE1F
F87FFF07FFFFFFFE1F
F803E000000000001F
F803E000000000001F
F803E000000000001F
F803E000000000001F
F803E000000000001F
F8000000000000001F
F8000000000000001F
F8000000000000001F
F8000000000000001F
FFFFFFFFFFFFFFFFFF
FFFFFFFFFFFFFFFFFF
FFFFFFFFFFFFFFFFFF
FFFFFFFFFFFFFFFFFF
FFFFFFFFFFFFFFFFFF
ENDCHAR
STARTCHAR 00C0
ENCODING 192
SWIDTH 947 0
DWIDTH 91 0
BBX 77 62 0 5
BITMAP
00000007FFE000000000
00000007FFE000000000
00000007FFE000000000
00000007FFE000000000
00000007FFFF00000000
000000F8001F00000000
000000F8001F00000000
000000F8001F00000000
000000F8001F00000000
007FFFFFFFFFFFFFFF00
007FFFFFFFFFFFFFFF00
007FFFFFFFFFFFFFFF00
007FFFFFFFFFFFFFFF00
007FFFFFFFFFFFFFFF00
07C000F8001F0003E0F8
07C000F8001F0003E0F8
07C000F8001F0003E0F8
07C000F8001F0003E0F8
07C000F8001F0003E0F8
F80000000000007E00F8
F80000000000007E00F8
F80000000000007E00F8
F80000000000007E00F8
F80000000000007E00F8
F80000000000007E1FF8
F80000000000007E1FF8
F80000000000007E1FF8
F80000000000007E1FF8
F803E000001F007E1FF8
F803E000001F007FE0F8
F803E000001F007FE0F8
F803E000001F007FE0F8
F803E000001F007FE0F8
FFFFFFFFFFFFFFFE00F8
FFFFFFFFFFFFFFFE00F8
FFFFFFFFFFFFFFFE00F8
FFFFFFFFFFFFFFFE00F8
FFFFFFFFFFFFFFFE00F8
F80000000000007E00F8
F80000000000007E00F8
F80000000000007E00F8
F80000000000007E00F8
F80000000000007E00F8
F80000000000007E00F8
F80000000000007E00F8
F80000000000007E00F8
F80000000000007E00F8
F80000000000007E00F8
F80000000000007E1F00
F80000000000007E1F00
F80000000000007E1F00
F80000000000007E1F00
F80000000000007E1F00
F80000000000007FE000
F80000000000007FE000
F80000000000007FE000
F80000000000007FE000
FFFFFFFFFFFFFFFE0000
FFFFFFFFFFFFFFFE0000
FFFFFFFFFFFFFFFE0000
FFFFFFFFFFFFFFFE0000
FFFFFFFFFFFFFFFE0000
ENDCHAR
STARTCHAR 00C1
ENCODING 193
SWIDTH 697 0
DWIDTH 67 0
BBX 53 52 0 10
BITMAP
F83C1F07C3E0F8
F83C1F07C3E0F8
F83C1F07C3E0F8
F83C1F07C3E0F8
00000000000000
00000000000000
00000000000000
00000000000000
00000000000000
F83C1F07C3E0F8
F83C1F07C3E0F8
F83C1F07C3E0F8
F83C1F07C3E0F8
F83C1F07C3E0F8
00000000000000
00000000000000
00000000000000
00000000000000
00000000000000
F83C1F07C3E0F8
F83C1F07C3E0F8
F83C1F07C3E0F8
F83C1F07C3E0F8
F83C1F07C3E0F8
00000000000000
00000000000000
00000000000000
00000000000000
F83C1F07C3E0F8
F83C1F07C3E0F8
F83C1F07C3E0F8
F83C1F07C3E0F8
F83C1F07C3E0F8
00000000000000
00000000000000
00000000000000
00000000000000
00000000000000
F83C1F07C3E0F8
F83C1F07C3E0F8
F83C1F07C3E0F8
F83C1F07C3E0F8
F83C1F07C3E0F8
00000000000000
00000000000000
00000000000000
00000000000000
00000000000000
F83C1F07C3E0F8
F83C1F07C3E0F8
F83C1F07C3E0F8
F83C1F07C3E0F8
ENDCHAR
STARTCHAR 00C2
ENCODING 194
SWIDTH 697 0
DWIDTH 67 0
BBX 53 52 0 10
BITMAP
FFFFFFFFFFFFF8
FFFFFFFFFFFFF8
FFFFFFFFFFFFF8
FFFFFFFFFFFFF8
00000000000000
00000000000000
00000000000000
00000000000000
00000000000000
FFFFFFFFFFFFF8
FFFFFFFFFFFFF8
FFFFFFFFFFFFF8
FFFFFFFFFFFFF8
FFFFFFFFFFFFF8
00000000000000
00000000000000
00000000000000
00000000000000
00000000000000
FFFFFFFFFFFFF8
FFFFFFFFFFFFF8
FFFFFFFFFFFFF8
FFFFFFFFFFFFF8
FFFFFFFFFFFFF8
00000000000000
00000000000000
00000000000000
00000000000000
FFFFFFFFFFFFF8
FFFFFFFFFFFFF8
FFFFFFFFFFFFF8
FFFFFFFFFFFFF8
FFFFFFFFFFFFF8
00000000000000
00000000000000
00000000000000
00000000000000
00000000000000
FFFFFFFFFFFFF8
FFFFFFFFFFFFF8
FFFFFFFFFFFFF8
FFFFFFFFFFFFF8
FFFFFFFFFFFFF8
00000000000000
00000000000000
00000000000000
00000000000000
00000000000000
FFFFFFFFFFFFF8
FFFFFFFFFFFFF8
FFFFFFFFFFFFF8
FFFFFFFFFFFFF8
ENDCHAR
STARTCHAR 00C3
ENCODING 195
SWIDTH 854 0
DWIDTH 82 0
BBX 67 62 0 5
BITMAP
007E1FF80000000000
007E1FF80000000000
007E1FF80000000000
007E1FF80000000000
007E1FF80000000000
007FE0F80000000000
007FE0F80000000000
007FE0F80000000000
007FE0F80000000000
007E1FF80000000000
007E1FF80000000000
007E1FF80000000000
007E1FF80000000000
007E1FF80000000000
007FE0F80000000000
007FE0F80000000000
007FE0F80000000000
007FE0F80000000000
007FE0F80000000000
007FFFFFFFFFFFC000
007FFFFFFFFFFFC000
007FFFFFFFFFFFC000
007FFFFFFFFFFFC000
007FFFFFFFFFFFC000
007FFFF80000007E00
007FFFF80000007E00
007FFFF80000007E00
007FFFF80000007E00
007FFFF8001FF87FE0
007FFFF8001FF803E0
007FFFF8001FF803E0
007FFFF8001FF803E0
007FFFF8001FF803E0
007FFFF8001FF87E00
007FFFF80000007E00
007FFFF80000007E00
007FFFF80000007E00
007FFFF80000007E00
007FFFFFFFFFFFC000
007FFFFFFFFFFFC000
007FFFFFFFFFFFC000
007FFFFFFFFFFFC000
007FFFFFFFFFFFC000
007E00F80000000000
007E00F80000000000
007E00F80000000000
007E00F80000000000
007E00F80000000000
07FFE0FFC000000000
07FFE0FFC000000000
07FFE0FFC000000000
07FFE0FFC000000000
07FFE0FFC000000000
07C00007C000000000
07C00007C000000000
07C00007C000000000
07C00007C000000000
FFFE00FFFE00000000
FFFE00FFFE00000000
FFFE00FFFE00000000
FFFE00FFFE00000000
FFFE00FFFE00000000
ENDCHAR
STARTCHAR 00C4
ENCODING 196
SWIDTH 854 0
DWIDTH 82 0
BBX 67 52 0 10
BITMAP
FFFFFFFFFFFFFFFFE0
FFFFFFFFFFFFFFFFE0
FFFFFFFFFFFFFFFFE0
FFFFFFFFFFFFFFFFE0
FFC000000000007FE0
FFC000000000007FE0
FFC000000000007FE0
FFC000000000007FE0
FFC000000000007FE0
F87E0000000007C3E0
F87E0000000007C3E0
F87E0000000007C3E0
F87E0000000007C3E0
F87E0000000007C3E0
F803E0000000F803E0
F803E0000000F803E0
F803E0000000F803E0
F803E0000000F803E0
F803E0000000F803E0
F8001F00001F0003E0
F8001F00001F0003E0
F8001F00001F0003E0
F8001F00001F0003E0
F8001FF8001F0003E0
F80000F803E00003E0
F80000F803E00003E0
F80000F803E00003E0
F80000F803E00003E0
F8001F07FE1F0003E0
F8001F07FE1F0003E0
F8001F07FE1F0003E0
F8001F07FE1F0003E0
F8001F07FE1F0003E0
F803E0000000F803E0
F803E0000000F803E0
F803E0000000F803E0
F803E0000000F803E0
F803E0000000F803E0
F87E0000000007C3E0
F87E0000000007C3E0
F87E0000000007C3E0
F87E0000000007C3E0
F87E0000000007C3E0
FFC000000000007FE0
FFC000000000007FE0
FFC000000000007FE0
FFC000000000007FE0
FFC000000000007FE0
FFFFFFFFFFFFFFFFE0
FFFFFFFFFFFFFFFFE0
FFFFFFFFFFFFFFFFE0
FFFFFFFFFFFFFFFFE0
ENDCHAR
STARTCHAR 00C5
ENCODING 197
SWIDTH 697 0
DWIDTH 67 0
BBX 53 62 0 5
BITMAP
07C3E0F83C1F00
07C3E0F83C1F00
07C3E0F83C1F00
07C3E0F83C1F00
07C3E0F83C1F00
FFFFFFFFFFFFF8
FFFFFFFFFFFFF8
FFFFFFFFFFFFF8
FFFFFFFFFFFFF8
07C00000001F00
07C00000001F00
07C00000001F00
07C00000001F00
07C00000001F00
FFC3FFFFFC1FF8
FFC3FFFFFC1FF8
FFC3FFFFFC1FF8
FFC3FFFFFC1FF8
FFC3FFFFFC1FF8
07C00000001F00
07C00000001F00
07C00000001F00
07C00000001F00
07C00000001F00
FFC3FFFFFC1FF8
FFC3FFFFFC1FF8
FFC3FFFFFC1FF8
FFC3FFFFFC1FF8
FFC3FFFFFC1FF8
07C00000001F00
07C00000001F00
07C00000001F00
07C00000001F00
FFC3FFFFFC1FF8
FFC3FFFFFC1FF8
FFC3FFFFFC1FF8
FFC3FFFFFC1FF8
FFC3FFFFFC1FF8
07C00000001F00
07C00000001F00
07C00000001F00
07C00000001F00
07C00000001F00
FFC3FFFFFC1FF8
FFC3FFFFFC1FF8
FFC3FFFFFC1FF8
FFC3FFFFFC1FF8
FFC3FFFFFC1FF8
07C00000001F00
07C00000001F00
07C00000001F00
07C00000001F00
07C00000001F00
FFFFFFFFFFFFF8
FFFFFFFFFFFFF8
FFFFFFFFFFFFF8
FFFFFFFFFFFFF8
07C3E0F83C1F00
07C3E0F83C1F00
07C3E0F83C1F00
07C3E0F83C1F00
07C3E0F83C1F00
ENDCHAR
STARTCHAR 00C6
ENCODING 198
SWIDTH 1250 0
DWIDTH 120 0
BBX 106 48 0 15
BITMAP
0003FFF800000000000000000000
0003FFF800000000000000000000
0003FFF800000000000000000000
0003FFF800000000000000000000
007E00F8001FFFFFFFFFFFFFFFC0
007E00F8001FFFFFFFFFFFFFFFC0
007E00F8001FFFFFFFFFFFFFFFC0
007E00F8001FFFFFFFFFFFFFFFC0
007E00F8001FFFFFFFFFFFFFFFC0
007E00F803FFFFFFFF07FFFFFFC0
007E00F803FFFFFFFF07FFFFFFC0
007E00F803FFFFFFFF07FFFFFFC0
007E00F803FFFFFFFF07FFFFFFC0
007E00F803FFFFFFFF07FFFFFFC0
FFFFFF007FFFFFFFE0007FFFFFC0
FFFFFF007FFFFFFFE0007FFFFFC0
FFFFFF007FFFFFFFE0007FFFFFC0
FFFFFF007FFFFFFFE0007FFFFFC0
FFFFFF007FFFFFFFE0007FFFFFC0
007E0007FFFFFFFE1FFFFFFFFFC0
007E0007FFFFFFFE1FFFFFFFFFC0
007E0007FFFFFFFE1FFFFFFFFFC0
007E0007FFFFFFFE1FFFFFFFFFC0
007E0007FFFFFFFE1FFFFFFFFFC0
0003FFFFC3FFFFFFE007FFFFFFC0
0003FFFFC3FFFFFFE007FFFFFFC0
0003FFFFC3FFFFFFE007FFFFFFC0
0003FFFFC3FFFFFFE007FFFFFFC0
0003FFFFFFFFFFFFFFF87FFFFFC0
00000007FFFFFFFFFFF87FFFFFC0
00000007FFFFFFFFFFF87FFFFFC0
00000007FFFFFFFFFFF87FFFFFC0
00000007FFFFFFFFFFF87FFFFFC0
000000007FFFFFFE0007FFFFFFC0
000000007FFFFFFE0007FFFFFFC0
000000007FFFFFFE0007FFFFFFC0
000000007FFFFFFE0007FFFFFFC0
000000007FFFFFFE0007FFFFFFC0
0000000003FFFFFFFF07FFFFFFC0
0000000003FFFFFFFF07FFFFFFC0
0000000003FFFFFFFF07FFFFFFC0
0000000003FFFFFFFF07FFFFFFC0
0000000003FFFFFFFF07FFFFFFC0
00000000001FFFFFFFFFFFFFFFC0
00000000001FFFFFFFFFFFFFFFC0
00000000001FFFFFFFFFFFFFFFC0
00000000001FFFFFFFFFFFFFFFC0
00000000001FFFFFFFFFFFFFFFC0
ENDCHAR
STARTCHAR 00C7
ENCODING 199
SWIDTH 604 0
DWIDTH 58 0
BBX 43 52 0 10
BITMAP
FFFFFFFFC000
FFFFFFFFC000
FFFFFFFFC000
FFFFFFFFC000
F8000007FC00
F8000007FC00
F8000007FC00
F8000007FC00
F8000007FC00
F83FFF07FFE0
F83FFF07FFE0
F83FFF07FFE0
F83FFF07FFE0
F83FFF07FFE0
F800000003E0
F800000003E0
F800000003E0
F800000003E0
F800000003E0
F83FFFFFC3E0
F83FFFFFC3E0
F83FFFFFC3E0
F83FFFFFC3E0
F83FFFFFC3E0
F800000003E0
F800000003E0
F800000003E0
F800000003E0
F83FFFFFC3E0
F83FFFFFC3E0
F83FFFFFC3E0
F83FFFFFC3E0
F83FFFFFC3E0
F800000003E0
F800000003E0
F800000003E0
F800000003E0
F800000003E0
F83FFFFFC3E0
F83FFFFFC3E0
F83FFFFFC3E0
F83FFFFFC3E0
F83FFFFFC3E0
F800000003E0
F800000003E0
F800000003E0
F800000003E0
F800000003E0
FFFFFFFFFFE0
FFFFFFFFFFE0
FFFFFFFFFFE0
FFFFFFFFFFE0
ENDCHAR
STARTCHAR 00C8
ENCODING 200
SWIDTH 854 0
DWIDTH 82 0
BBX 67 57 0 10
BITMAP
07FFFFFFFFFFFFFE00
07FFFFFFFFFFFFFE00
07FFFFFFFFFFFFFE00
07FFFFFFFFFFFFFE00
07FFFFFFFFFFFFFFE0
F800000000000003E0
F800000000000003E0
F800000000000003E0
F800000000000003E0
F800000000000003E0
F800000000000003E0
F800000000000003E0
F800000000000003E0
F800000000000003E0
FFFFFFFFFFFFFFFFE0
FFFFFFFFFFFFFFFFE0
FFFFFFFFFFFFFFFFE0
FFFFFFFFFFFFFFFFE0
FFFFFFFFFFFFFFFFE0
FFC3E0F87E1F07C3E0
FFC3E0F87E1F07C3E0
FFC3E0F87E1F07C3E0
FFC3E0F87E1F07C3E0
FFC3E0F87E1F07C3E0
F87E1F07C3E0F87FE0
F87E1F07C3E0F87FE0
F87E1F07C3E0F87FE0
F87E1F07C3E0F87FE0
F87E1F07C3E0F87FE0
FFC3E0F87E1F07C3E0
FFC3E0F87E1F07C3E0
FFC3E0F87E1F07C3E0
FFC3E0F87E1F07C3E0
F87E1F07C3E0F87FE0
F87E1F07C3E0F87FE0
F87E1F07C3E0F87FE0
F87E1F07C3E0F87FE0
F87E1F07C3E0F87FE0
FFC3E0F87E1F07C3E0
FFC3E0F87E1F07C3E0
FFC3E0F87E1F07C3E0
FFC3E0F87E1F07C3E0
FFC3E0F87E1F07C3E0
F87E1F07C3E0F87FE0
F87E1F07C3E0F87FE0
F87E1F07C3E0F87FE0
F87E1F07C3E0F87FE0
F87E1F07C3E0F87FE0
FFC3E0F87E1F07C3E0
FFC3E0F87E1F07C3E0
FFC3E0F87E1F07C3E0
FFC3E0F87E1F07C3E0
FFC3E0F87E1F07C3E0
07FFFFFFFFFFFFFE00
07FFFFFFFFFFFFFE00
07FFFFFFFFFFFFFE00
07FFFFFFFFFFFFFE00
ENDCHAR
STARTCHAR 00C9
ENCODING 201
SWIDTH 697 0
DWIDTH 67 0
BBX 53 52 0 10
BITMAP
007FFFFFFFE000
007FFFFFFFE000
007FFFFFFFE000
007FFFFFFFE000
007E000003FF00
007E000003FF00
007E000003FF00
007E000003FF00
007E000003FF00
F87E1FFFC3FFF8
F87E1FFFC3FFF8
F87E1FFFC3FFF8
F87E1FFFC3FFF8
F87E1FFFC3FFF8
FFC000000000F8
FFC000000000F8
FFC000000000F8
FFC000000000F8
FFC000000000F8
FFFE1FFFFFE0F8
FFFE1FFFFFE0F8
FFFE1FFFFFE0F8
FFFE1FFFFFE0F8
FFFE1FFFFFE0F8
FFFFE0000000F8
FFFFE0000000F8
FFFFE0000000F8
FFFFE0000000F8
FFFE1FFFFFE0F8
FFFE1FFFFFE0F8
FFFE1FFFFFE0F8
FFFE1FFFFFE0F8
FFFE1FFFFFE0F8
FFC000000000F8
FFC000000000F8
FFC000000000F8
FFC000000000F8
FFC000000000F8
F87E1FFFFFE0F8
F87E1FFFFFE0F8
F87E1FFFFFE0F8
F87E1FFFFFE0F8
F87E1FFFFFE0F8
007E00000000F8
007E00000000F8
007E00000000F8
007E00000000F8
007E00000000F8
007FFFFFFFFFF8
007FFFFFFFFFF8
007FFFFFFFFFF8
007FFFFFFFFFF8
ENDCHAR
STARTCHAR 00CA
ENCODING 202
SWIDTH 697 0
DWIDTH 67 0
BBX 53 52 0 10
BITMAP
F83C1F07C3E0F8
F83C1F07C3E0F8
F83C1F07C3E0F8
F83C1F07C3E0F8
F83C1F07C3E0F8
F83C1F07C3E0F8
F83C1F07C3E0F8
F83C1F07C3E0F8
F83C1F07C3E0F8
F83C1F07C3E0F8
F83C1F07C3E0F8
F83C1F07C3E0F8
F83C1F07C3E0F8
F83C1F07C3E0F8
F83C1F07C3E0F8
F83C1F07C3E0F8
F83C1F07C3E0F8
F83C1F07C3E0F8
F83C1F07C3E0F8
F83C1F07C3E0F8
F83C1F07C3E0F8
F83C1F07C3E0F8
F83C1F07C3E0F8
F83C1F07C3E0F8
F83C1F07C3E0F8
F83C1F07C3E0F8
F83C1F07C3E0F8
F83C1F07C3E0F8
F83C1F07C3E0F8
F83C1F07C3E0F8
F83C1F07C3E0F8
F83C1F07C3E0F8
F83C1F07C3E0F8
F83C1F07C3E0F8
F83C1F07C3E0F8
F83C1F07C3E0F8
F83C1F07C3E0F8
F83C1F07C3E0F8
F83C1F07C3E0F8
F83C1F07C3E0F8
F83C1F07C3E0F8
F83C1F07C3E0F8
F83C1F07C3E0F8
F83C1F07C3E0F8
F83C1F07C3E0F8
F83C1F07C3E0F8
F83C1F07C3E0F8
F83C1F07C3E0F8
F83C1F07C3E0F8
F83C1F07C3E0F8
F83C1F07C3E0F8
F83C1F07C3E0F8
ENDCHAR
STARTCHAR 00CB
ENCODING 203
SWIDTH 645 0
DWIDTH 62 0
BBX 48 34 0 19
BITMAP
000000007FE0
000000007FE0
000000007FE0
000000007FE0
000000007FE0
FFFE0007C01F
FFFE0007C01F
FFFE0007C01F
FFFE0007C01F
FFFE0007C01F
007FFF07FFE0
007FFF07FFE0
007FFF07FFE0
007FFF07FFE0
007FFF07FFE0
00001FFFC000
00001FFFC000
00001FFFC000
00001FFFC000
007FFF07FFE0
007FFF07FFE0
007FFF07FFE0
007FFF07FFE0
007FFF07FFE0
FFFE0007C01F
FFFE0007C01F
FFFE0007C01F
FFFE0007C01F
FFFE0007C01F
000000007FE0
000000007FE0
000000007FE0
000000007FE0
000000007FE0
ENDCHAR
STARTCHAR 00CC
ENCODING 204
SWIDTH 750 0
DWIDTH 72 0
BBX 58 48 0 15
BITMAP
00001FFFC0000000
00001FFFC0000000
00001FFFC0000000
00001FFFC0000000
0003FFF800000000
0003FFF800000000
0003FFF800000000
0003FFF800000000
0003FFF800000000
003FFF0000000000
003FFF0000000000
003FFF0000000000
003FFF0000000000
003FFF0000000000
07FFE00000000000
07FFE00000000000
07FFE00000000000
07FFE00000000000
07FFE00000000000
FFFFFFFFFFFFFFC0
FFFFFFFFFFFFFFC0
FFFFFFFFFFFFFFC0
FFFFFFFFFFFFFFC0
FFFFFFFFFFFFFFC0
FFFFFFFFFFFFFFC0
FFFFFFFFFFFFFFC0
FFFFFFFFFFFFFFC0
FFFFFFFFFFFFFFC0
07FFE00000000000
07FFE00000000000
07FFE00000000000
07FFE00000000000
07FFE00000000000
003FFF0000000000
003FFF0000000000
003FFF0000000000
003FFF0000000000
003FFF0000000000
0003FFF800000000
0003FFF800000000
0003FFF800000000
0003FFF800000000
0003FFF800000000
00001FFFC0000000
00001FFFC0000000
00001FFFC0000000
00001FFFC0000000
00001FFFC0000000
ENDCHAR
STARTCHAR 00CD
ENCODING 205
SWIDTH 895 0
DWIDTH 86 0
BBX 72 62 0 5
BITMAP
FFC000000000000000
FFC000000000000000
FFC000000000000000
FFC000000000000000
FFFE00000000000000
07FE00000000000000
07FE00000000000000
07FE00000000000000
07FE00000000000000
07FFFFFFFFFFFFFFFF
007FFFFFFFFFFFFFFF
007FFFFFFFFFFFFFFF
007FFFFFFFFFFFFFFF
007FFFFFFFFFFFFFFF
0003FF07C3E0F87FE0
0003FF07C3E0F87FE0
0003FF07C3E0F87FE0
0003FF07C3E0F87FE0
0003FF07C3E0F87FE0
0003E0F87E1F07C3E0
0003E0F87E1F07C3E0
0003E0F87E1F07C3E0
0003E0F87E1F07C3E0
0003E0F87E1F07C3E0
0003FF07C3E0F87FE0
0003FF07C3E0F87FE0
0003FF07C3E0F87FE0
0003FF07C3E0F87FE0
0003FF07C3E0F87FE0
0003E0F87E1F07FE00
0003E0F87E1F07FE00
0003E0F87E1F07FE00
0003E0F87E1F07FE00
0003FFFFFFFFFFFE00
0003FFFFFFFFFFFE00
0003FFFFFFFFFFFE00
0003FFFFFFFFFFFE00
0003FFFFFFFFFFFE00
0003E0000000000000
0003E0000000000000
0003E0000000000000
0003E0000000000000
0003E0000000000000
0003E0000000000000
0003E0000000000000
0003E0000000000000
0003E0000000000000
0003E0000000000000
0003FFFFFFFFFFFE00
0003FFFFFFFFFFFE00
0003FFFFFFFFFFFE00
0003FFFFFFFFFFFE00
0003FFFFFFFFFFFFE0
007E00F80000F803E0
007E00F80000F803E0
007E00F80000F803E0
007E00F80000F803E0
007FFF000000FFFE00
0003FF00000007FE00
0003FF00000007FE00
0003FF00000007FE00
0003FF00000007FE00
ENDCHAR
STARTCHAR 00CE
ENCODING 206
SWIDTH 1000 0
DWIDTH 96 0
BBX 82 77 0 0
BITMAP
07FFFFFFFFFFFFFFFFF800
07FFFFFFFFFFFFFFFFF800
07FFFFFFFFFFFFFFFFF800
07FFFFFFFFFFFFFFFFF800
07FFFFFFFFFFFFFFFFF800
F8000000000000000007C0
F8000000000000000007C0
F8000000000000000007C0
F8000000000000000007C0
F8000000000000000007C0
F8000000000000000007C0
F8000000000000000007C0
F8000000000000000007C0
F8000000000000000007C0
F8000000000000000007C0
F8000000000000000007C0
F8000000000000000007C0
F8000000000000000007C0
F8000000000000000007C0
F83FFF003C00003FE007C0
F83FFF003C00003FE007C0
F83FFF003C00003FE007C0
F83FFF003C00003FE007C0
F83FFF003C00003FE007C0
F83C00F83C0007C01F07C0
F83C00F83C0007C01F07C0
F83C00F83C0007C01F07C0
F83C00F83C0007C01F07C0
F83C00F83C0007C01F07C0
F83FFF003C0007FFFF07C0
F83FFF003C0007FFFF07C0
F83FFF003C0007FFFF07C0
F83FFF003C0007FFFF07C0
F83FFF003C0007FFFF07C0
F83C00F83C0007C01F07C0
F83C00F83C0007C01F07C0
F83C00F83C0007C01F07C0
F83C00F83C0007C01F07C0
F83C00F83C0007C01F07C0
F83FFF003FFF07C01F07C0
F83FFF003FFF07C01F07C0
F83FFF003FFF07C01F07C0
F83FFF003FFF07C01F07C0
F8000000000000000007C0
F8000000000000000007C0
F8000000000000000007C0
F8000000000000000007C0
F8000000000000000007C0
F8000000000000000007C0
F8000000000000000007C0
F8000000000000000007C0
F8000000000000000007C0
F8000000000000000007C0
F8000000000000000007C0
F8000000000000000007C0
F8000000000000000007C0
F8000000000000000007C0
F8000000000000000007C0
07FFFFFFFFFFFFC000F800
07FFFFFFFFFFFFC000F800
07FFFFFFFFFFFFC000F800
07FFFFFFFFFFFFC000F800
07FFFFFFFFFFFFC000F800
000000000000003C1F0000
000000000000003C1F0000
000000000000003C1F0000
000000000000003C1F0000
000000000000003FE00000
000000000000003FE00000
000000000000003FE00000
000000000000003FE00000
000000000000003FE00000
000000000000003C000000
000000000000003C000000
000000000000003C000000
000000000000003C000000
000000000000003C000000
ENDCHAR
STARTCHAR 00CF
ENCODING 207
SWIDTH 750 0
DWIDTH 72 0
BBX 58 48 0 15
BITMAP
000000FFFC000000
000000FFFC000000
000000FFFC000000
000000FFFC000000
00000007FFE00000
00000007FFE00000
00000007FFE00000
00000007FFE00000
00000007FFE00000
000000003FFF0000
000000003FFF0000
000000003FFF0000
000000003FFF0000
000000003FFF0000
0000000003FFF800
0000000003FFF800
0000000003FFF800
0000000003FFF800
0000000003FFF800
FFFFFFFFFFFFFFC0
FFFFFFFFFFFFFFC0
FFFFFFFFFFFFFFC0
FFFFFFFFFFFFFFC0
FFFFFFFFFFFFFFC0
FFFFFFFFFFFFFFC0
FFFFFFFFFFFFFFC0
FFFFFFFFFFFFFFC0
FFFFFFFFFFFFFFC0
0000000003FFF800
0000000003FFF800
0000000003FFF800
0000000003FFF800
0000000003FFF800
000000003FFF0000
000000003FFF0000
000000003FFF0000
000000003FFF0000
000000003FFF0000
00000007FFE00000
00000007FFE00000
00000007FFE00000
00000007FFE00000
00000007FFE00000
000000FFFC000000
000000FFFC000000
000000FFFC000000
000000FFFC000000
000000FFFC000000
ENDCHAR
STARTCHAR 00D0
ENCODING 208
SWIDTH 697 0
DWIDTH 67 0
BBX 53 52 0 10
BITMAP
000000F8000000
000000F8000000
000000F8000000
000000F8000000
07C3E0F87E1F00
07C3E0007E1F00
07C3E0007E1F00
07C3E0007E1F00
07C3E0007E1F00
000000F8000000
000000F8000000
000000F8000000
000000F8000000
000000F8000000
07C3E0007E1F00
07C3E0007E1F00
07C3E0007E1F00
07C3E0007E1F00
07C3E0007E1F00
000000F8000000
000000F8000000
000000F8000000
000000F8000000
F87E00FFC3E0F8
F87E1F07C3E0F8
F87E1F07C3E0F8
F87E1F07C3E0F8
F87E1F07C3E0F8
F87E1FF803E0F8
000000F8000000
000000F8000000
000000F8000000
000000F8000000
07C3E0007E1F00
07C3E0007E1F00
07C3E0007E1F00
07C3E0007E1F00
07C3E0007E1F00
000000F8000000
000000F8000000
000000F8000000
000000F8000000
000000F8000000
07C3E0007E1F00
07C3E0007E1F00
07C3E0007E1F00
07C3E0007E1F00
07C3E0F87E1F00
000000F8000000
000000F8000000
000000F8000000
000000F8000000
ENDCHAR
STARTCHAR 00D1
ENCODING 209
SWIDTH 604 0
DWIDTH 58 0
BBX 43 67 0 4
BITMAP
007E0007C000
007E0007C000
007E0007C000
007E0007C000
007E0007C000
007E0007C000
007E0007C000
007E0007C000
007E0007C000
007E0007C000
007E0007C000
007E0007C000
007E0007C000
007E0007C000
007FE0FFC000
007FE0FFC000
007FE0FFC000
007FE0FFC000
007FE0FFC000
0003E0F80000
0003E0F80000
0003E0F80000
0003E0F80000
0003E0F80000
0003FFF80000
0003FFF80000
0003FFF80000
0003FFF80000
0003FFF80000
00001F000000
00001F000000
00001F000000
00001F000000
00001FF80000
0003FFF80000
0003FFF80000
0003FFF80000
0003FFF80000
0003E0FFFE00
0003E0FFFE00
0003E0FFFE00
0003E0FFFE00
0003E0FFFE00
07FFE0F803E0
07FFE0F803E0
07FFE0F803E0
07FFE0F803E0
07FFE0F803E0
F803E0F803E0
F803E0F803E0
F803E0F803E0
F803E0F803E0
F803E0F803E0
F803E0F803E0
F803E0F803E0
F803E0F803E0
F803E0F803E0
F803E0F803E0
F803E007FE00
F803E007FE00
F803E007FE00
F803E007FE00
FFFE0007FE00
07FE00000000
07FE00000000
07FE00000000
07FE00000000
ENDCHAR
STARTCHAR 00D2
ENCODING 210
SWIDTH 697 0
DWIDTH 67 0
BBX 53 52 0 10
BITMAP
FFFFFF07FFFFF8
FFFFFF07FFFFF8
FFFFFF07FFFFF8
FFFFFF07FFFFF8
F87E1FFFC3E0F8
F87E1FFFC3E0F8
F87E1FFFC3E0F8
F87E1FFFC3E0F8
F87E1FFFC3E0F8
FFFFFF07FFFFF8
FFFFFF07FFFFF8
FFFFFF07FFFFF8
FFFFFF07FFFFF8
FFFFFF07FFFFF8
F87E1FFFC3E0F8
F87E1FFFC3E0F8
F87E1FFFC3E0F8
F87E1FFFC3E0F8
F87E1FFFC3E0F8
FFFFFF07FFFFF8
FFFFFF07FFFFF8
FFFFFF07FFFFF8
FFFFFF07FFFFF8
FFFFFF07FFFFF8
07C3E0F87E1F00
07C3E0F87E1F00
07C3E0F87E1F00
07C3E0F87E1F00
FFFFFF07FFFFF8
FFFFFF07FFFFF8
FFFFFF07FFFFF8
FFFFFF07FFFFF8
FFFFFF07FFFFF8
F87E1FFFC3E0F8
F87E1FFFC3E0F8
F87E1FFFC3E0F8
F87E1FFFC3E0F8
F87E1FFFC3E0F8
FFFFFF07FFFFF8
FFFFFF07FFFFF8
FFFFFF07FFFFF8
FFFFFF07FFFFF8
FFFFFF07FFFFF8
F87E1FFFC3E0F8
F87E1FFFC3E0F8
F87E1FFFC3E0F8
F87E1FFFC3E0F8
F87E1FFFC3E0F8
FFFFFF07FFFFF8
FFFFFF07FFFFF8
FFFFFF07FFFFF8
FFFFFF07FFFFF8
ENDCHAR
STARTCHAR 00D3
ENCODING 211
SWIDTH 645 0
DWIDTH 62 0
BBX 48 57 0 10
BITMAP
00001FF80000
00001FF80000
00001FF80000
00001FF80000
00001FF80000
0003FFFFC000
0003FFFFC000
0003FFFFC000
0003FFFFC000
003FFFFFFC00
003FFFFFFC00
003FFFFFFC00
003FFFFFFC00
003FFFFFFC00
07FFFFFFFFE0
07FFFFFFFFE0
07FFFFFFFFE0
07FFFFFFFFE0
07FFFFFFFFE0
FFFC1FF83FFF
FFFC1FF83FFF
FFFC1FF83FFF
FFFC1FF83FFF
FFFC1FF83FFF
FFC01FF803FF
FFC01FF803FF
FFC01FF803FF
FFC01FF803FF
FFC01FF803FF
F8001FF8001F
F8001FF8001F
F8001FF8001F
F8001FF8001F
00001FF80000
00001FF80000
00001FF80000
00001FF80000
00001FF80000
00001FF80000
00001FF80000
00001FF80000
00001FF80000
00001FF80000
00001FF80000
00001FF80000
00001FF80000
00001FF80000
00001FF80000
00001FF80000
00001FF80000
00001FF80000
00001FF80000
00001FF80000
00001FF80000
00001FF80000
00001FF80000
00001FF80000
ENDCHAR
STARTCHAR 00D4
ENCODING 212
SWIDTH 645 0
DWIDTH 62 0
BBX 48 57 0 10
BITMAP
00001FF80000
00001FF80000
00001FF80000
00001FF80000
00001FF80000
00001FF80000
00001FF80000
00001FF80000
00001FF80000
00001FF80000
00001FF80000
00001FF80000
00001FF80000
00001FF80000
00001FF80000
00001FF80000
00001FF80000
00001FF80000
00001FF80000
00001FF80000
00001FF80000
00001FF80000
00001FF80000
00001FF80000
F8001FF8001F
F8001FF8001F
F8001FF8001F
F8001FF8001F
F8001FF8001F
FFC01FF803FF
FFC01FF803FF
FFC01FF803FF
FFC01FF803FF
FFFC1FF83FFF
FFFC1FF83FFF
FFFC1FF83FFF
FFFC1FF83FFF
FFFC1FF83FFF
07FFFFFFFFE0
07FFFFFFFFE0
07FFFFFFFFE0
07FFFFFFFFE0
07FFFFFFFFE0
003FFFFFFC00
003FFFFFFC00
003FFFFFFC00
003FFFFFFC00
003FFFFFFC00
0003FFFFC000
0003FFFFC000
0003FFFFC000
0003FFFFC000
0003FFFFC000
00001FF80000
00001FF80000
00001FF80000
00001FF80000
ENDCHAR
STARTCHAR 00D5
ENCODING 213
SWIDTH 802 0
DWIDTH 77 0
BBX 62 72 0 0
BITMAP
00000007C0000000
00000007C0000000
00000007C0000000
00000007C0000000
00000007C0000000
000000FFC0000000
000000FFC0000000
000000FFC0000000
000000FFC0000000
000000FFFFE00000
00001FFFFFE00000
00001FFFFFE00000
00001FFFFFE00000
00001FFFFFE00000
00001FFFC01FF800
000000FFC01FF800
000000FFC01FF800
000000FFC01FF800
000000FFC01FF800
00000007C00007C0
00000007C00007C0
00000007C00007C0
00000007C00007C0
00000007C00007C0
00000000000007C0
00000000000007C0
00000000000007C0
00000000000007C0
00000000000007C0
000000000000007C
000000000000007C
000000000000007C
000000000000007C
000000000000007C
000000000000007C
000000000000007C
000000000000007C
000000000000007C
000000000000007C
000000000000007C
000000000000007C
000000000000007C
000000000000007C
F80000000000007C
F80000000000007C
F80000000000007C
F80000000000007C
F80000000000007C
F80000000000007C
F80000000000007C
F80000000000007C
F80000000000007C
F80000000000007C
07C00000000007C0
07C00000000007C0
07C00000000007C0
07C00000000007C0
07C00000000007C0
07C00000000007C0
07C00000000007C0
07C00000000007C0
07C00000000007C0
07FFE000001FF800
007FE000001FF800
007FE000001FF800
007FE000001FF800
007FE000001FF800
00001FFFFFE00000
00001FFFFFE00000
00001FFFFFE00000
00001FFFFFE00000
00001FFFFFE00000
ENDCHAR
STARTCHAR 00D6
ENCODING 214
SWIDTH 697 0
DWIDTH 67 0
BBX 53 62 0 9
BITMAP
000000F8000000
000000F8000000
000000F8000000
000000F8000000
000000F8000000
07FFFFFFFFFF00
07FFFFFFFFFF00
07FFFFFFFFFF00
07FFFFFFFFFF00
07FFFFFFFFFFF8
F80000000000F8
F80000000000F8
F80000000000F8
F80000000000F8
FFFFFFFFFFFF00
07FFFFFFFFFF00
07FFFFFFFFFF00
07FFFFFFFFFF00
07FFFFFFFFFF00
07C00000001F00
07C00000001F00
07C00000001F00
07C00000001F00
07C00000001F00
07C3E0F87E1F00
07C3E0F87E1F00
07C3E0F87E1F00
07C3E0F87E1F00
07C3E0F87E1F00
07C3E0F87E1F00
07C3E0F87E1F00
07C3E0F87E1F00
07C3E0F87E1F00
07C3E0F87E1F00
07C3E0F87E1F00
07C3E0F87E1F00
07C3E0F87E1F00
07C3E0F87E1F00
07C3E0F87E1F00
07C3E0F87E1F00
07C3E0F87E1F00
07C3E0F87E1F00
07C3E0F87E1F00
07C3E0F87E1F00
07C3E0F87E1F00
07C3E0F87E1F00
07C3E0F87E1F00
07C3E0F87E1F00
07C3E0F87E1F00
07C3E0F87E1F00
07C3E0F87E1F00
07C3E0F87E1F00
07C3E0F87E1F00
07C00000001F00
07C00000001F00
07C00000001F00
07C00000001F00
07C00000001F00
007FFFFFFFE000
007FFFFFFFE000
007FFFFFFFE000
007FFFFFFFE000
ENDCHAR
STARTCHAR 00D7
ENCODING 215
SWIDTH 750 0
DWIDTH 72 0
BBX 58 57 0 10
BITMAP
0003FFF800000000
0003FFF800000000
0003FFF800000000
0003FFF800000000
0003FFFFC0000000
007E0007C0000000
007E0007C0000000
007E0007C0000000
007E0007C0000000
007E1F07C0000000
007E1F07C0000000
007E1F07C0000000
007E1F07C0000000
007E1F07C0000000
007E0007C3FFF800
007E0007C3FFF800
007E0007C3FFF800
007E0007C3FFF800
007E0007C3FFF800
0003FFF87E0007C0
0003FFF87E0007C0
0003FFF87E0007C0
0003FFF87E0007C0
0003FFF87E0007C0
000000007E1F07C0
000000007E1F07C0
000000007E1F07C0
000000007E1F07C0
007E1F007E1F07C0
007E1F007E0007C0
007E1F007E0007C0
007E1F007E0007C0
007E1F007E0007C0
007E1F007FFFF800
0000000003FFF800
0000000003FFF800
0000000003FFF800
0000000003FFF800
07C3E00000000000
07C3E00000000000
07C3E00000000000
07C3E00000000000
07C3E00000000000
0000000003E0F800
0000000003E0F800
0000000003E0F800
0000000003E0F800
0000000003E0F800
F87E000000000000
F87E000000000000
F87E000000000000
F87E000000000000
F87E000003E0F800
0000000003E0F800
0000000003E0F800
0000000003E0F800
0000000003E0F800
ENDCHAR
STARTCHAR 00D8
ENCODING 216
SWIDTH 802 0
DWIDTH 77 0
BBX 62 48 0 15
BITMAP
00001FFFFFFF0000
00001FFFFFFF0000
00001FFFFFFF0000
00001FFFFFFF0000
007FE0000000FFC0
007FE0000000FFC0
007FE0000000FFC0
007FE0000000FFC0
007FE0000000FFC0
07C000000000007C
07C000000000007C
07C000000000007C
07C000000000007C
07C000000000007C
F80000000000007C
F80000000000007C
F80000000000007C
F80000000000007C
F80000000000007C
F80000000000007C
F80000000000007C
F80000000000007C
F80000000000007C
FFC000000000007C
07C00000000007C0
07C00000000007C0
07C00000000007C0
07C00000000007C0
07FFE0000000F800
007FE0000000F800
007FE0000000F800
007FE0000000F800
007FE0000000F800
00001FFFFE00F800
00001FFFFE00F800
00001FFFFE00F800
00001FFFFE00F800
00001FFFFE00F800
0000000003E007C0
0000000003E007C0
0000000003E007C0
0000000003E007C0
0000000003E007C0
00000000001FFFFC
00000000001FFFFC
00000000001FFFFC
00000000001FFFFC
00000000001FFFFC
ENDCHAR
STARTCHAR 00D9
ENCODING 217
SWIDTH 802 0
DWIDTH 77 0
BBX 62 62 0 9
BITMAP
00001FFFFFE00000
00001FFFFFE00000
00001FFFFFE00000
00001FFFFFE00000
00001FFFFFE00000
007FE000001FF800
007FE000001FF800
007FE000001FF800
007FE000001FF800
007FE007C01FFFC0
07C00007C00007C0
07C00007C00007C0
07C00007C00007C0
07C00007C00007C0
07C00007C00007C0
07C00007C00007C0
07C00007C00007C0
07C00007C00007C0
07C00007C00007C0
F8000007C000007C
F8000007C000007C
F8000007C000007C
F8000007C000007C
F8000007C000007C
F8000007C000007C
F8000007C000007C
F8000007C000007C
F8000007C000007C
F8000007C000007C
F87E0007C000F87C
F87E0007C000F87C
F87E0007C000F87C
F87E0007C000F87C
F87E0007FE00F87C
F80000007E00007C
F80000007E00007C
F80000007E00007C
F80000007E00007C
F80000007FE0007C
F800000003E0007C
F800000003E0007C
F800000003E0007C
F800000003E0007C
07C00000000007C0
07C00000000007C0
07C00000000007C0
07C00000000007C0
07C00000000007C0
07C00007C00007C0
07C00007C00007C0
07C00007C00007C0
07C00007C00007C0
07C00007C00007C0
007FE000001FF800
007FE000001FF800
007FE000001FF800
007FE000001FF800
007FE000001FF800
00001FFFFFE00000
00001FFFFFE00000
00001FFFFFE00000
00001FFFFFE00000
ENDCHAR
STARTCHAR 00DA
ENCODING 218
SWIDTH 947 0
DWIDTH 91 0
BBX 77 77 0 0
BITMAP
FFFFFFFFFFE000000000
FFFFFFFFFFE000000000
FFFFFFFFFFE000000000
FFFFFFFFFFE000000000
FFFFFFFFFFE000000000
FFC3E0F87FE000000000
FFC3E0F87FE000000000
FFC3E0F87FE000000000
FFC3E0F87FE000000000
FFC3E0F87FE000000000
F87E1F07C3E000000000
F87E1F07C3E000000000
F87E1F07C3E000000000
F87E1F07C3E000000000
F87E1F07C3FFFFFFE000
FFFFFFFFFFFFFFFFE000
FFFFFFFFFFFFFFFFE000
FFFFFFFFFFFFFFFFE000
FFFFFFFFFFFFFFFFE000
F800000000000003E000
F800000000000003E000
F800000000000003E000
F800000000000003E000
F800000000000003E000
F87FFFFFFFFFFFC3E000
F87FFFFFFFFFFFC3E000
F87FFFFFFFFFFFC3E000
F87FFFFFFFFFFFC3E000
F87FFFFFFFFFFFC3E000
F800000000000003E000
F800000000000003E000
F800000000000003E000
F800000000000003E000
F800000000000003E000
F8000000000007C3E000
F8000000000007C3E000
F8000000000007C3E000
F8000000000007C3E000
F87FFFFFFFFF07C3E000
F87FFFFFFFFF07FE0000
F87FFFFFFFFF07FE0000
F87FFFFFFFFF07FE0000
F87FFFFFFFFF07FE0000
F87FFFFFFFFF07FFE000
F8000000000007FFE000
F8000000000007FFE000
F8000000000007FFE000
F8000000000007FFE000
F8000000000007FFFF00
F8000000000007FFFF00
F8000000000007FFFF00
F8000000000007FFFF00
F8000000000007FFFF00
F87FFFFFFFFF07FFFFF8
F87FFFFFFFFF07FFFFF8
F87FFFFFFFFF07FFFFF8
F87FFFFFFFFF07FFFFF8
F87FFFFFFFFF07FFFFF8
F8000000000007FFFF00
F8000000000007FFFF00
F8000000000007FFFF00
F8000000000007FFFF00
FFFFFFFFFFFF07FFFF00
FFFFFFFFFFFF07C3FF00
FFFFFFFFFFFF07C3FF00
FFFFFFFFFFFF07C3FF00
FFFFFFFFFFFF07C3FF00
FFFFFFFFFFFF07C3FFF8
00000000000000001FF8
00000000000000001FF8
00000000000000001FF8
00000000000000001FF8
00000000000000001FF8
00000000000000001FF8
00000000000000001FF8
00000000000000001FF8
00000000000000001FF8
ENDCHAR
STARTCHAR 00DB
ENCODING 219
SWIDTH 697 0
DWIDTH 67 0
BBX 53 29 0 24
BITMAP
FFFFFFFFFFFFF8
FFFFFFFFFFFFF8
FFFFFFFFFFFFF8
FFFFFFFFFFFFF8
FFFFFFFFFFFFF8
07C00000001F00
07C00000001F00
07C00000001F00
07C00000001F00
07C00000001F00
007E000003E000
007E000003E000
007E000003E000
007E000003E000
007FE00003E000
0003E0007E0000
0003E0007E0000
0003E0007E0000
0003E0007E0000
0003FF07C00000
00001F07C00000
00001F07C00000
00001F07C00000
00001F07C00000
000000F8000000
000000F8000000
000000F8000000
000000F8000000
000000F8000000
ENDCHAR
STARTCHAR 00DC
ENCODING 220
SWIDTH 552 0
DWIDTH 53 0
BBX 38 67 0 4
BITMAP
F800000000
F800000000
F800000000
F800000000
F800000000
FFC0000000
FFC0000000
FFC0000000
FFC0000000
FFC0000000
FFFC000000
FFFC000000
FFFC000000
FFFC000000
FFFFE00000
FFFFE00000
FFFFE00000
FFFFE00000
FFFFE00000
FFFFFF0000
FFFFFF0000
FFFFFF0000
FFFFFF0000
FFFFFF0000
FFFFFFF800
FFFFFFF800
FFFFFFF800
FFFFFFF800
FFFFFFF800
FFFFFFFFC0
FFFFFFFFC0
FFFFFFFFC0
FFFFFFFFC0
FFFFFFFFC0
FFFFFFFFFC
FFFFFFFFFC
FFFFFFFFFC
FFFFFFFFFC
FFFFFF0000
FFFFFF0000
FFFFFF0000
FFFFFF0000
FFFFFF0000
FFC3FF0000
FFC3FF0000
FFC3FF0000
FFC3FF0000
FFC3FF0000
F8001FF800
F8001FF800
F8001FF800
F8001FF800
F8001FF800
00001FF800
00001FF800
00001FF800
00001FF800
00001FF800
000000FFC0
000000FFC0
000000FFC0
000000FFC0
000000FFC0
000000FFC0
000000FFC0
000000FFC0
000000FFC0
ENDCHAR
STARTCHAR 00DD
ENCODING 221
SWIDTH 500 0
DWIDTH 48 0
BBX 34 34 0 19
BITMAP
FFFFFFFFC0
FFFFFFFFC0
FFFFFFFFC0
FFFFFFFFC0
FFFFFFFFC0
F8000007C0
F8000007C0
F8000007C0
F8000007C0
F8000007C0
F83FFF07C0
F83FFF07C0
F83FFF07C0
F83FFF07C0
F83FFF07C0
F83C1F07C0
F83C1F07C0
F83C1F07C0
F83C1F07C0
F83FFF07C0
F83FFF07C0
F83FFF07C0
F83FFF07C0
F83FFF07C0
F8000007C0
F8000007C0
F8000007C0
F8000007C0
F8000007C0
FFFFFFFFC0
FFFFFFFFC0
FFFFFFFFC0
FFFFFFFFC0
FFFFFFFFC0
ENDCHAR
STARTCHAR 00DE
ENCODING 222
SWIDTH 750 0
DWIDTH 72 0
BBX 58 52 0 10
BITMAP
FFC3FFFFFFFFFFC0
FFC3FFFFFFFFFFC0
FFC3FFFFFFFFFFC0
FFC3FFFFFFFFFFC0
0003E000000007C0
0003E000000007C0
0003E000000007C0
0003E000000007C0
0003E000000007C0
FFC3E0FFFFFF07C0
FFC3E0FFFFFF07C0
FFC3E0FFFFFF07C0
FFC3E0FFFFFF07C0
FFC3E0FFFFFF07C0
0003E000000007C0
0003E000000007C0
0003E000000007C0
0003E000000007C0
0003E000000007C0
0003E0F83FFF07C0
0003E0F83FFF07C0
0003E0F83FFF07C0
0003E0F83FFF07C0
0003E0F83FFF07C0
0003E000000007C0
0003E000000007C0
0003E000000007C0
0003E000000007C0
0003E0FFFC1F07C0
0003E0FFFC1F07C0
0003E0FFFC1F07C0
0003E0FFFC1F07C0
0003E0FFFC1F07C0
0003E000000007C0
0003E000000007C0
0003E000000007C0
0003E000000007C0
0003E000000007C0
0003E0FFC3FF07C0
0003E0FFC3FF07C0
0003E0FFC3FF07C0
0003E0FFC3FF07C0
0003E0FFC3FF07C0
0003E000000007C0
0003E000000007C0
0003E000000007C0
0003E000000007C0
0003E000000007C0
0003FFFFFFFFFFC0
0003FFFFFFFFFFC0
0003FFFFFFFFFFC0
0003FFFFFFFFFFC0
ENDCHAR
STARTCHAR 00DF
ENCODING 223
SWIDTH 802 0
DWIDTH 77 0
BBX 62 62 0 5
BITMAP
F83C00000000F83C
F83C00000000F83C
F83C00000000F83C
F83C00000000F83C
F83C00000000F83C
FFFFFFFFFFFFFFFC
FFFFFFFFFFFFFFFC
FFFFFFFFFFFFFFFC
FFFFFFFFFFFFFFFC
F83C00000000F83C
F83C00000000F83C
F83C00000000F83C
F83C00000000F83C
F83C00000000F83C
FFFC00000000FFFC
FFFC00000000FFFC
FFFC00000000FFFC
FFFC00000000FFFC
FFFC00000000FFFC
F83C00000000F83C
F83C00000000F83C
F83C00000000F83C
F83C00000000F83C
F83C00000000F83C
FFFC00000000FFFC
FFFC00000000FFFC
FFFC00000000FFFC
FFFC00000000FFFC
FFFC00000000FFFC
F83FFFFFFFFFF83C
F83FFFFFFFFFF83C
F83FFFFFFFFFF83C
F83FFFFFFFFFF83C
FFFC00000000FFFC
FFFC00000000FFFC
FFFC00000000FFFC
FFFC00000000FFFC
FFFC00000000FFFC
F83C00000000F83C
F83C00000000F83C
F83C00000000F83C
F83C00000000F83C
F83C00000000F83C
FFFC00000000FFFC
FFFC00000000FFFC
FFFC00000000FFFC
FFFC00000000FFFC
FFFC00000000FFFC
F83C00000000F83C
F83C00000000F83C
F83C00000000F83C
F83C00000000F83C
F83C00000000F83C
FFFFFFFFFFFFFFFC
FFFFFFFFFFFFFFFC
FFFFFFFFFFFFFFFC
FFFFFFFFFFFFFFFC
F83C00000000F83C
F83C00000000F83C
F83C00000000F83C
F83C00000000F83C
F83C00000000F83C
ENDCHAR
STARTCHAR 00E0
ENCODING 224
SWIDTH 895 0
DWIDTH 86 0
BBX 72 62 0 5
BITMAP
007FFFF80000000000
007FFFF80000000000
007FFFF80000000000
007FFFF80000000000
007FFFFFC000000000
07C00007C000000000
07C00007C000000000
07C00007C000000000
07C00007C000000000
F8000007FFFFFFFFE0
F80000007FFFFFFFE0
F80000007FFFFFFFE0
F80000007FFFFFFFE0
F80000007FFFFFFFE0
F8000000000000001F
F8000000000000001F
F8000000000000001F
F8000000000000001F
F8000000000000001F
F8000000000000001F
F8000000000000001F
F8000000000000001F
F8000000000000001F
F8000000000000001F
F8000000000000001F
F8000000000000001F
F8000000000000001F
F8000000000000001F
F8000000000000001F
F8000000000000001F
F8000000000000001F
F8000000000000001F
F8000000000000001F
F8000000000000001F
F8000000000000001F
F8000000000000001F
F8000000000000001F
F8000000000000001F
F8000000000000001F
F8000000000000001F
F8000000000000001F
F8000000000000001F
F8000000000000001F
F8000000000000001F
F8000000000000001F
F8000000000000001F
F8000000000000001F
F8000000000000001F
F8000000000000001F
F8000000000000001F
F8000000000000001F
F8000000000000001F
F8000000000000001F
F8000000000000001F
F8000000000000001F
F8000000000000001F
F8000000000000001F
FFFFFFFFFFFFFFFFFF
FFFFFFFFFFFFFFFFFF
FFFFFFFFFFFFFFFFFF
FFFFFFFFFFFFFFFFFF
FFFFFFFFFFFFFFFFFF
ENDCHAR
STARTCHAR 00E1
ENCODING 225
SWIDTH 895 0
DWIDTH 86 0
BBX 72 72 0 0
BITMAP
000000FFFFFF000000
000000FFFFFF000000
000000FFFFFF000000
000000FFFFFF000000
000000FFFFFF000000
0003FF007FFFFFC000
0003FF007FFFFFC000
0003FF007FFFFFC000
0003FF007FFFFFC000
0003FF007FFFFFFE00
007E00007FFFFFFE00
007E00007FFFFFFE00
007E00007FFFFFFE00
007E00007FFFFFFE00
07C000007FFFFFFFE0
07C000007FFFFFFFE0
07C000007FFFFFFFE0
07C000007FFFFFFFE0
07C000007FFFFFFFE0
07C000007FFFFFFFE0
07C000007FFFFFFFE0
07C000007FFFFFFFE0
07C000007FFFFFFFE0
07C000007FFFFFFFE0
F80000007FFFFFFFFF
F80000007FFFFFFFFF
F80000007FFFFFFFFF
F80000007FFFFFFFFF
F80000007FFFFFFFFF
F80000007FFFFFFFFF
F80000007FFFFFFFFF
F80000007FFFFFFFFF
F80000007FFFFFFFFF
F80000007FFFFFFFFF
FFFFFFFFFFFFFFFFFF
FFFFFFFFFFFFFFFFFF
FFFFFFFFFFFFFFFFFF
FFFFFFFFFFFFFFFFFF
FFFFFFFFFE0000001F
FFFFFFFFFE0000001F
FFFFFFFFFE0000001F
FFFFFFFFFE0000001F
FFFFFFFFFE0000001F
FFFFFFFFFE0000001F
FFFFFFFFFE0000001F
FFFFFFFFFE0000001F
FFFFFFFFFE0000001F
FFFFFFFFFE0000001F
07FFFFFFFE000003E0
07FFFFFFFE000003E0
07FFFFFFFE000003E0
07FFFFFFFE000003E0
07FFFFFFFE000003E0
07FFFFFFFE000003E0
07FFFFFFFE000003E0
07FFFFFFFE000003E0
07FFFFFFFE000003E0
07FFFFFFFE000003E0
007FFFFFFE00007E00
007FFFFFFE00007E00
007FFFFFFE00007E00
007FFFFFFE00007E00
007FFFFFFE00FFC000
0003FFFFFE00FFC000
0003FFFFFE00FFC000
0003FFFFFE00FFC000
0003FFFFFE00FFC000
000000FFFFFF000000
000000FFFFFF000000
000000FFFFFF000000
000000FFFFFF000000
000000FFFFFF000000
ENDCHAR
STARTCHAR 00E2
ENCODING 226
SWIDTH 895 0
DWIDTH 86 0
BBX 72 62 0 5
BITMAP
007FFFF80000000000
007FFFF80000000000
007FFFF80000000000
007FFFF80000000000
007FFFFFC000000000
07C00007C000000000
07C00007C000000000
07C00007C000000000
07C00007C000000000
F8000007FFFFFFFFE0
F80000007FFFFFFFE0
F80000007FFFFFFFE0
F80000007FFFFFFFE0
F80000007FFFFFFFE0
F8000000000000001F
F8000000000000001F
F8000000000000001F
F8000000000000001F
F8000000000000001F
F8000000000000001F
F8000000000000001F
F8000000000000001F
F8000000000000001F
F8000000000000001F
F8001F07FFFFFFC01F
F8001F07FFFFFFC01F
F8001F07FFFFFFC01F
F8001F07FFFFFFC01F
F8001F07FFFFFFC01F
F8000000000000001F
F8000000000000001F
F8000000000000001F
F8000000000000001F
F8001F07FFFFFFC01F
F8001F07FFFFFFC01F
F8001F07FFFFFFC01F
F8001F07FFFFFFC01F
F8001F07FFFFFFC01F
F8000000000000001F
F8000000000000001F
F8000000000000001F
F8000000000000001F
F8000000000000001F
F8001F07FFFFFFC01F
F8001F07FFFFFFC01F
F8001F07FFFFFFC01F
F8001F07FFFFFFC01F
F8001F07FFFFFFC01F
F8000000000000001F
F8000000000000001F
F8000000000000001F
F8000000000000001F
F8000000000000001F
F8000000000000001F
F8000000000000001F
F8000000000000001F
F8000000000000001F
FFFFFFFFFFFFFFFFFF
FFFFFFFFFFFFFFFFFF
FFFFFFFFFFFFFFFFFF
FFFFFFFFFFFFFFFFFF
FFFFFFFFFFFFFFFFFF
ENDCHAR
STARTCHAR 00E3
ENCODING 227
SWIDTH 802 0
DWIDTH 77 0
BBX 62 57 0 10
BITMAP
FFFFFFFFFFFFFFFC
FFFFFFFFFFFFFFFC
FFFFFFFFFFFFFFFC
FFFFFFFFFFFFFFFC
FFFFFFFFFFFFFFFC
F8000007FFFFFFFC
F8000007FFFFFFFC
F8000007FFFFFFFC
F8000007FFFFFFFC
F8000007FFFFFFFC
F8000007FFFFFFFC
F8000007FFFFFFFC
F8000007FFFFFFFC
F8000007FFFFFFFC
F83C1F07FC1F07FC
F83C1F07FC1F07FC
F83C1F07FC1F07FC
F83C1F07FC1F07FC
F83C1F07FC1F07FC
F8000007FFFFFFFC
F8000007FFFFFFFC
F8000007FFFFFFFC
F8000007FFFFFFFC
F8000007FFFFFFFC
F8001FFFFFE0FFFC
F8001FFFFFE0FFFC
F8001FFFFFE0FFFC
F8001FFFFFE0FFFC
F8001FFFFFE0FFFC
F80000FFFFFFFFFC
F80000FFFFFFFFFC
F80000FFFFFFFFFC
F80000FFFFFFFFFC
F83C00FFFC0007FC
F83C00FFFC0007FC
F83C00FFFC0007FC
F83C00FFFC0007FC
F83C00FFFC0007FC
F83FFFFFFC1F07FC
F83FFFFFFC1F07FC
F83FFFFFFC1F07FC
F83FFFFFFC1F07FC
F83FFFFFFC1F07FC
F80000FFFC0007FC
F80000FFFC0007FC
F80000FFFC0007FC
F80000FFFC0007FC
F80000FFFC0007FC
F80000FFFFFFFFFC
F80000FFFFFFFFFC
F80000FFFFFFFFFC
F80000FFFFFFFFFC
F80000FFFFFFFFFC
FFFFFFFFFFFFFFFC
FFFFFFFFFFFFFFFC
FFFFFFFFFFFFFFFC
FFFFFFFFFFFFFFFC
ENDCHAR
STARTCHAR 00E4
ENCODING 228
SWIDTH 802 0
DWIDTH 77 0
BBX 62 57 0 10
BITMAP
FFFFFFFFFFFFFFFC
FFFFFFFFFFFFFFFC
FFFFFFFFFFFFFFFC
FFFFFFFFFFFFFFFC
FFFFFFFFFFFFFFFC
F8000007C000003C
F8000007C000003C
F8000007C000003C
F8000007C000003C
F8000007C000003C
F8000007C000003C
F8000007C000003C
F8000007C000003C
F8000007C000003C
F83C1F07C3E0F83C
F83C1F07C3E0F83C
F83C1F07C3E0F83C
F83C1F07C3E0F83C
F83C1F07C3E0F83C
F8000007C000003C
F8000007C000003C
F8000007C000003C
F8000007C000003C
F8000007C000003C
F8001FFFC01F003C
F8001FFFC01F003C
F8001FFFC01F003C
F8001FFFC01F003C
F8001FFFC01F003C
F80000F80000003C
F80000F80000003C
F80000F80000003C
F80000F80000003C
F83C00F80000F83C
F83C00F80000F83C
F83C00F80000F83C
F83C00F80000F83C
F83C00F80000F83C
F83FFFF83FFFF83C
F83FFFF83FFFF83C
F83FFFF83FFFF83C
F83FFFF83FFFF83C
F83FFFF83FFFF83C
F80000F80000003C
F80000F80000003C
F80000F80000003C
F80000F80000003C
F80000F80000003C
F80000F80000003C
F80000F80000003C
F80000F80000003C
F80000F80000003C
F80000F80000003C
FFFFFFFFFFFFFFFC
FFFFFFFFFFFFFFFC
FFFFFFFFFFFFFFFC
FFFFFFFFFFFFFFFC
ENDCHAR
STARTCHAR 00E5
ENCODING 229
SWIDTH 802 0
DWIDTH 77 0
BBX 62 57 0 10
BITMAP
FFFFFFFFFFFFFFFC
FFFFFFFFFFFFFFFC
FFFFFFFFFFFFFFFC
FFFFFFFFFFFFFFFC
FFFFFFFFFFFFFFFC
F8000007FFFFFFFC
F8000007FFFFFFFC
F8000007FFFFFFFC
F8000007FFFFFFFC
F8000007FFFFFFFC
F8000007FFFFFFFC
F8000007FFFFFFFC
F8000007FFFFFFFC
F8000007FFFFFFFC
F83C1F07FC1F07FC
F83C1F07FC1F07FC
F83C1F07FC1F07FC
F83C1F07FC1F07FC
F83C1F07FC1F07FC
F8000007FFFFFFFC
F8000007FFFFFFFC
F8000007FFFFFFFC
F8000007FFFFFFFC
F8000007FFFFFFFC
F8000007FFFFFFFC
F8000007FFFFFFFC
F8000007FFFFFFFC
F8000007FFFFFFFC
F8000007FFFFFFFC
F803E007FFE0FFFC
F803E007FFE0FFFC
F803E007FFE0FFFC
F803E007FFE0FFFC
F8000007FFFFFFFC
F8000007FFFFFFFC
F8000007FFFFFFFC
F8000007FFFFFFFC
F8000007FFFFFFFC
F8000007FFFFFFFC
F8000007FFFFFFFC
F8000007FFFFFFFC
F8000007FFFFFFFC
F8000007FFFFFFFC
F83FFF07FC0007FC
F83FFF07FC0007FC
F83FFF07FC0007FC
F83FFF07FC0007FC
F83FFF07FC0007FC
F8000007FFFFFFFC
F8000007FFFFFFFC
F8000007FFFFFFFC
F8000007FFFFFFFC
F8000007FFFFFFFC
FFFFFFFFFFFFFFFC
FFFFFFFFFFFFFFFC
FFFFFFFFFFFFFFFC
FFFFFFFFFFFFFFFC
ENDCHAR
STARTCHAR 00E6
ENCODING 230
SWIDTH 697 0
DWIDTH 67 0
BBX 53 52 0 10
BITMAP
FFFFFFFFFFFFF8
FFFFFFFFFFFFF8
FFFFFFFFFFFFF8
FFFFFFFFFFFFF8
FFFFFFFFFFFFF8
FFFFFFFFFFFFF8
FFFFFFFFFFFFF8
FFFFFFFFFFFFF8
FFFFFFFFFFFFF8
FFC00000001FF8
FFC00000001FF8
FFC00000001FF8
FFC00000001FF8
FFC00000001FF8
FFC00000001FF8
FFC00000001FF8
FFC00000001FF8
FFC00000001FF8
FFC00000001FF8
FFC01FFFC01FF8
FFC01FFFC01FF8
FFC01FFFC01FF8
FFC01FFFC01FF8
FFC01FFFC01FF8
FFC01FFFC01FF8
FFC01FFFC01FF8
FFC01FFFC01FF8
FFC01FFFC01FF8
FFC01FFFC01FF8
FFC01FFFC01FF8
FFC01FFFC01FF8
FFC01FFFC01FF8
FFC01FFFC01FF8
FFC00000001FF8
FFC00000001FF8
FFC00000001FF8
FFC00000001FF8
FFC00000001FF8
FFC00000001FF8
FFC00000001FF8
FFC00000001FF8
FFC00000001FF8
FFC00000001FF8
FFFFFFFFFFFFF8
FFFFFFFFFFFFF8
FFFFFFFFFFFFF8
FFFFFFFFFFFFF8
FFFFFFFFFFFFF8
FFFFFFFFFFFFF8
FFFFFFFFFFFFF8
FFFFFFFFFFFFF8
FFFFFFFFFFFFF8
ENDCHAR
STARTCHAR 00E7
ENCODING 231
SWIDTH 802 0
DWIDTH 77 0
BBX 62 57 0 10
BITMAP
FFFFFFFFFFFFFFFC
FFFFFFFFFFFFFFFC
FFFFFFFFFFFFFFFC
FFFFFFFFFFFFFFFC
FFFFFFFFFFFFFFFC
F8000007C000007C
F8000007C000007C
F8000007C000007C
F8000007C000007C
F8000007C000007C
F8000007C000007C
F8000007C000007C
F8000007C000007C
F8000007C000007C
F87E1F07C3E0F87C
F87E1F07C3E0F87C
F87E1F07C3E0F87C
F87E1F07C3E0F87C
F87E1F07C3E0F87C
F8000007C000007C
F8000007C000007C
F8000007C000007C
F8000007C000007C
F8000007C000007C
F803E007C01F007C
F803E007C01F007C
F803E007C01F007C
F803E007C01F007C
F803E007C01F007C
F8000007C000007C
F8000007C000007C
F8000007C000007C
F8000007C000007C
F8000007C000F87C
F8000007C000F87C
F8000007C000F87C
F8000007C000F87C
F8000007C000F87C
F803FFFFFFFF007C
F803FFFFFFFF007C
F803FFFFFFFF007C
F803FFFFFFFF007C
F803FFFFFFFF007C
F87E0007C000007C
F87E0007C000007C
F87E0007C000007C
F87E0007C000007C
F87E0007C000007C
F8000007C000007C
F8000007C000007C
F8000007C000007C
F8000007C000007C
F8000007C000007C
FFFFFFFFFFFFFFFC
FFFFFFFFFFFFFFFC
FFFFFFFFFFFFFFFC
FFFFFFFFFFFFFFFC
ENDCHAR
STARTCHAR 00E8
ENCODING 232
SWIDTH 895 0
DWIDTH 86 0
BBX 72 62 0 5
BITMAP
007FFFF80000000000
007FFFF80000000000
007FFFF80000000000
007FFFF80000000000
007FFFFFC000000000
07C00007C000000000
07C00007C000000000
07C00007C000000000
07C00007C000000000
F8000007FFFFFFFFE0
F80000007FFFFFFFE0
F80000007FFFFFFFE0
F80000007FFFFFFFE0
F80000007FFFFFFFE0
F8000000000000001F
F8000000000000001F
F8000000000000001F
F8000000000000001F
F8000000000000001F
F803E000000000001F
F803E000000000001F
F803E000000000001F
F803E000000000001F
F803E000000000001F
F87E1F07FFFFFFFE1F
F87E1F07FFFFFFFE1F
F87E1F07FFFFFFFE1F
F87E1F07FFFFFFFE1F
F87E1F07FFFFFFFE1F
F803E000000000001F
F803E000000000001F
F803E000000000001F
F803E000000000001F
F803E000000000001F
F8000000000000001F
F8000000000000001F
F8000000000000001F
F8000000000000001F
F803E000000000001F
F803E000000000001F
F803E000000000001F
F803E000000000001F
F803E000000000001F
F87E1F07C3E0F87E1F
F87E1F07C3E0F87E1F
F87E1F07C3E0F87E1F
F87E1F07C3E0F87E1F
F87E1F07C3E0F87E1F
F803E000000000001F
F803E000000000001F
F803E000000000001F
F803E000000000001F
F803E000000000001F
F8000000000000001F
F8000000000000001F
F8000000000000001F
F8000000000000001F
FFFFFFFFFFFFFFFFFF
FFFFFFFFFFFFFFFFFF
FFFFFFFFFFFFFFFFFF
FFFFFFFFFFFFFFFFFF
FFFFFFFFFFFFFFFFFF
ENDCHAR
STARTCHAR 00E9
ENCODING 233
SWIDTH 895 0
DWIDTH 86 0
BBX 72 62 0 5
BITMAP
007FFFF80000000000
007FFFF80000000000
007FFFF80000000000
007FFFF80000000000
007FFFFFC000000000
07C00007C000000000
07C00007C000000000
07C00007C000000000
07C00007C000000000
F8000007FFFFFFFFE0
F80000007FFFFFFFE0
F80000007FFFFFFFE0
F80000007FFFFFFFE0
F80000007FFFFFFFE0
F8000000000000001F
F8000000000000001F
F8000000000000001F
F8000000000000001F
F8000000000000001F
F80000007E0000001F
F80000007E0000001F
F80000007E0000001F
F80000007E0000001F
F80000007E0000001F
F80000F87E1F00001F
F80000F87E1F00001F
F80000F87E1F00001F
F80000F87E1F00001F
F80000F87E1F00001F
F8000007FFE000001F
F8000007FFE000001F
F8000007FFE000001F
F8000007FFE000001F
F8001FFFC3FFF8001F
F8001FFFC3FFF8001F
F8001FFFC3FFF8001F
F8001FFFC3FFF8001F
F8001FFFC3FFF8001F
F8000007FFE000001F
F8000007FFE000001F
F8000007FFE000001F
F8000007FFE000001F
F8000007FFE000001F
F80000F87E1F00001F
F80000F87E1F00001F
F80000F87E1F00001F
F80000F87E1F00001F
F80000F87E1F00001F
F80000007E0000001F
F80000007E0000001F
F80000007E0000001F
F80000007E0000001F
F80000007E0000001F
F8000000000000001F
F8000000000000001F
F8000000000000001F
F8000000000000001F
FFFFFFFFFFFFFFFFFF
FFFFFFFFFFFFFFFFFF
FFFFFFFFFFFFFFFFFF
FFFFFFFFFFFFFFFFFF
FFFFFFFFFFFFFFFFFF
ENDCHAR
STARTCHAR 00EA
ENCODING 234
SWIDTH 802 0
DWIDTH 77 0
BBX 62 77 0 0
BITMAP
00000000001F007C
00000000001F007C
00000000001F007C
00000000001F007C
00000000001F007C
00000000001F007C
00000000001F007C
00000000001F007C
00000000001F007C
00000000001F007C
0000000003E007C0
0000000003E007C0
0000000003E007C0
0000000003E007C0
0000000003E007C0
0000000003E007C0
0000000003E007C0
0000000003E007C0
0000000003E007C0
000000007E00F800
000000007E00F800
000000007E00F800
000000007E00F800
000000007E00F800
000000007E00F800
000000007E00F800
000000007E00F800
000000007E00F800
000000007E00F800
00000007C01F0000
00000007C01F0000
00000007C01F0000
00000007C01F0000
00000007C01F0000
00000007C01F0000
00000007C01F0000
00000007C01F0000
00000007C01F0000
00000007C01F0000
000000FFFFE00000
000000FFFFE00000
000000FFFFE00000
000000FFFFE00000
00001F007FE00000
00001F007FE00000
00001F007FE00000
00001F007FE00000
00001F007FE00000
0003E0007FE00000
0003E0007FE00000
0003E0007FE00000
0003E0007FE00000
0003E0007FE00000
0003E007FFE00000
0003E007FFE00000
0003E007FFE00000
0003E007FFE00000
0003E007FFE00000
007E00FFFE000000
007E00FFFE000000
007E00FFFE000000
007E00FFFE000000
007E00FFFE000000
007E1FFFC0000000
007E1FFFC0000000
007E1FFFC0000000
007E1FFFC0000000
07C3FFF800000000
07C3FFF800000000
07C3FFF800000000
07C3FFF800000000
07C3FFF800000000
FFFFE00000000000
FFFFE00000000000
FFFFE00000000000
FFFFE00000000000
FFFFE00000000000
ENDCHAR
STARTCHAR 00EB
ENCODING 235
SWIDTH 895 0
DWIDTH 86 0
BBX 72 77 0 0
BITMAP
00000007FFE0000000
00000007FFE0000000
00000007FFE0000000
00000007FFE0000000
00000007FFE0000000
000000F8001F000000
000000F8001F000000
000000F8001F000000
000000F8001F000000
000000F8001F000000
00001F07FFE0F80000
00001F07FFE0F80000
00001F07FFE0F80000
00001F07FFE0F80000
00001F07FFE0F80000
00001F000000F80000
00001F000000F80000
00001F000000F80000
00001F000000F80000
00001F000000F80000
00001F000000F80000
00001F000000F80000
00001F000000F80000
00001F000000F80000
000000F8001F000000
000000F8001F000000
000000F8001F000000
000000F8001F000000
000000F8001F000000
00000007FFE0000000
00000007FFE0000000
00000007FFE0000000
00000007FFE0000000
00000007FFE0000000
00000007C3E0000000
00000007C3E0000000
00000007C3E0000000
00000007C3E0000000
007FFFFFC3FFFFFE00
007FFFFFC3FFFFFE00
007FFFFFC3FFFFFE00
007FFFFFC3FFFFFE00
007FFFFFC3FFFFFE00
07C00007FFE00003E0
07C00007FFE00003E0
07C00007FFE00003E0
07C00007FFE00003E0
07C00007FFE00003E0
F8000000000000001F
F8000000000000001F
F8000000000000001F
F8000000000000001F
F8000000000000001F
FFFFFFFFFFFFFFFFFF
FFFFFFFFFFFFFFFFFF
FFFFFFFFFFFFFFFFFF
FFFFFFFFFFFFFFFFFF
FFFFFFFFFFFFFFFFFF
F8000000000000001F
F8000000000000001F
F8000000000000001F
F8000000000000001F
F8001F07C3E0F8001F
F8001F07C3E0F8001F
F8001F07C3E0F8001F
F8001F07C3E0F8001F
F8001F07C3E0F8001F
F8001F07C3E0F8001F
F8000000000000001F
F8000000000000001F
F8000000000000001F
F8000000000000001F
07FFFFFFFFFFFFFFE0
07FFFFFFFFFFFFFFE0
07FFFFFFFFFFFFFFE0
07FFFFFFFFFFFFFFE0
07FFFFFFFFFFFFFFE0
ENDCHAR
STARTCHAR 00EC
ENCODING 236
SWIDTH 500 0
DWIDTH 48 0
BBX 34 57 0 10
BITMAP
FFFFFFFFC0
FFFFFFFFC0
FFFFFFFFC0
FFFFFFFFC0
FFFFFFFFC0
F8000007C0
F8000007C0
F8000007C0
F8000007C0
F8000007C0
F8000007C0
F8000007C0
F8000007C0
F8000007C0
F83C1F07C0
F83C1F07C0
F83C1F07C0
F83C1F07C0
F83C1F07C0
F8000007C0
F8000007C0
F8000007C0
F8000007C0
F8000007C0
F803E007C0
F803E007C0
F803E007C0
F803E007C0
F803E007C0
F8000007C0
F8000007C0
F8000007C0
F8000007C0
F8001F07C0
F8001F07C0
F8001F07C0
F8001F07C0
F8001F07C0
F83FFF07C0
F83FFF07C0
F83FFF07C0
F83FFF07C0
F83FFF07C0
F8000007C0
F8000007C0
F8000007C0
F8000007C0
F8000007C0
F8000007C0
F8000007C0
F8000007C0
F8000007C0
F8000007C0
FFFFFFFFC0
FFFFFFFFC0
FFFFFFFFC0
FFFFFFFFC0
ENDCHAR
STARTCHAR 00ED
ENCODING 237
SWIDTH 500 0
DWIDTH 48 0
BBX 34 57 0 10
BITMAP
FFFFFFFFC0
FFFFFFFFC0
FFFFFFFFC0
FFFFFFFFC0
FFFFFFFFC0
FFFFFFFFC0
FFFFFFFFC0
FFFFFFFFC0
FFFFFFFFC0
FFFFFFFFC0
FFFFFFFFC0
FFFFFFFFC0
FFFFFFFFC0
FFFFFFFFC0
FFC3E0FFC0
FFC3E0FFC0
FFC3E0FFC0
FFC3E0FFC0
FFC3E0FFC0
FFFFFFFFC0
FFFFFFFFC0
FFFFFFFFC0
FFFFFFFFC0
FFFFFFFFC0
FFFC1FFFC0
FFFC1FFFC0
FFFC1FFFC0
FFFC1FFFC0
FFFC1FFFC0
FFFFFFFFC0
FFFFFFFFC0
FFFFFFFFC0
FFFFFFFFC0
FFC000FFC0
FFC000FFC0
FFC000FFC0
FFC000FFC0
FFC000FFC0
FFC3E0FFC0
FFC3E0FFC0
FFC3E0FFC0
FFC3E0FFC0
FFC3E0FFC0
FFC000FFC0
FFC000FFC0
FFC000FFC0
FFC000FFC0
FFC000FFC0
FFFFFFFFC0
FFFFFFFFC0
FFFFFFFFC0
FFFFFFFFC0
FFFFFFFFC0
FFFFFFFFC0
FFFFFFFFC0
FFFFFFFFC0
FFFFFFFFC0
ENDCHAR
STARTCHAR 00EE
ENCODING 238
SWIDTH 500 0
DWIDTH 48 0
BBX 34 57 0 10
BITMAP
FFFFFFFFC0
FFFFFFFFC0
FFFFFFFFC0
FFFFFFFFC0
FFFFFFFFC0
F8000007C0
F8000007C0
F8000007C0
F8000007C0
F8000007C0
F8000007C0
F8000007C0
F8000007C0
F8000007C0
F83C1F07C0
F83C1F07C0
F83C1F07C0
F83C1F07C0
F83C1F07C0
F8000007C0
F8000007C0
F8000007C0
F8000007C0
F8000007C0
F8001FFFC0
F8001FFFC0
F8001FFFC0
F8001FFFC0
F8001FFFC0
F80000F800
F80000F800
F80000F800
F80000F800
F83FFFF800
F83FFFF800
F83FFFF800
F83FFFF800
F83FFFF800
F83C00F800
F83C00F800
F83C00F800
F83C00F800
F83C00F800
F80000F800
F80000F800
F80000F800
F80000F800
F80000F800
F80000F800
F80000F800
F80000F800
F80000F800
F80000F800
FFFFFFF800
FFFFFFF800
FFFFFFF800
FFFFFFF800
ENDCHAR
STARTCHAR 00EF
ENCODING 239
SWIDTH 500 0
DWIDTH 48 0
BBX 34 57 0 10
BITMAP
FFFFFFFFC0
FFFFFFFFC0
FFFFFFFFC0
FFFFFFFFC0
FFFFFFFFC0
F8000007C0
F8000007C0
F8000007C0
F8000007C0
F8000007C0
F8000007C0
F8000007C0
F8000007C0
F8000007C0
F83C1F07C0
F83C1F07C0
F83C1F07C0
F83C1F07C0
F83C1F07C0
F8000007C0
F8000007C0
F8000007C0
F8000007C0
F8000007C0
F803E007C0
F803E007C0
F803E007C0
F803E007C0
F803E007C0
F8000007C0
F8000007C0
F8000007C0
F8000007C0
F83FFF07C0
F83FFF07C0
F83FFF07C0
F83FFF07C0
F83FFF07C0
F83C1F07C0
F83C1F07C0
F83C1F07C0
F83C1F07C0
F83C1F07C0
F83FFF07C0
F83FFF07C0
F83FFF07C0
F83FFF07C0
F83FFF07C0
F8000007C0
F8000007C0
F8000007C0
F8000007C0
F8000007C0
FFFFFFFFC0
FFFFFFFFC0
FFFFFFFFC0
FFFFFFFFC0
ENDCHAR
STARTCHAR 00F1
ENCODING 241
SWIDTH 854 0
DWIDTH 82 0
BBX 67 67 0 4
BITMAP
07FFFFFFFFFFFFFC00
07FFFFFFFFFFFFFC00
07FFFFFFFFFFFFFC00
07FFFFFFFFFFFFFC00
07FFFFFFFFFFFFFC00
FFFC0000000007FFE0
FFFC0000000007FFE0
FFFC0000000007FFE0
FFFC0000000007FFE0
FFFC0000000007FFE0
FFFFFFFFFFFFFFFFE0
FFFFFFFFFFFFFFFFE0
FFFFFFFFFFFFFFFFE0
FFFFFFFFFFFFFFFFE0
F800000000000003E0
F800000000000003E0
F800000000000003E0
F800000000000003E0
F800000000000003E0
F800000000000003E0
F800000000000003E0
F800000000000003E0
F800000000000003E0
F800000000000003E0
F800000000000003E0
F800000000000003E0
F800000000000003E0
F800000000000003E0
F800000000000003E0
F800000000000003E0
F800000000000003E0
F800000000000003E0
F800000000000003E0
F800000000000003E0
FFFFFFFFFFFFFFFFE0
FFFFFFFFFFFFFFFFE0
FFFFFFFFFFFFFFFFE0
FFFFFFFFFFFFFFFFE0
F803FFFFFFFFF803E0
F803FFFFFFFFF803E0
F803FFFFFFFFF803E0
F803FFFFFFFFF803E0
F803FFFFFFFFF803E0
F803FFFFFFFFF803E0
F803FFFFFFFFF803E0
F803FFFFFFFFF803E0
F803FFFFFFFFF803E0
F803FFFFFFFFF803E0
FFFFFFFFFFFFFFFFE0
FFFFFFFFFFFFFFFFE0
FFFFFFFFFFFFFFFFE0
FFFFFFFFFFFFFFFFE0
FFFFFFFFFFFFFFFFE0
FFFFFFFFFFFFFFFFE0
FFFFFFFFFFFFFFFFE0
FFFFFFFFFFFFFFFFE0
FFFFFFFFFFFFFFFFE0
FFFFFFFFFFFFFFFFE0
07FFFFFFFC0007FC00
07FFFFFFFC0007FC00
07FFFFFFFC0007FC00
07FFFFFFFC0007FC00
07FC0000000007FC00
07FC0000000007FC00
07FC0000000007FC00
07FC0000000007FC00
07FC0000000007FC00
ENDCHAR
STARTCHAR 00F2
ENCODING 242
SWIDTH 697 0
DWIDTH 67 0
BBX 53 52 0 10
BITMAP
FFFFFFFFFFFFF8
FFFFFFFFFFFFF8
FFFFFFFFFFFFF8
FFFFFFFFFFFFF8
F80000000000F8
F80000000000F8
F80000000000F8
F80000000000F8
F80000000000F8
F80000F80000F8
F80000F80000F8
F80000F80000F8
F80000F80000F8
F80000F80000F8
F8001FFFC000F8
F8001FFFC000F8
F8001FFFC000F8
F8001FFFC000F8
F8001FFFC000F8
F803E0F87E00F8
F803E0F87E00F8
F803E0F87E00F8
F803E0F87E00F8
F803E0F87FE0F8
F87E00F803E0F8
F87E00F803E0F8
F87E00F803E0F8
F87E00F803E0F8
F87E00F803E0F8
F80000F80000F8
F80000F80000F8
F80000F80000F8
F80000F80000F8
F80000F80000F8
F80000F80000F8
F80000F80000F8
F80000F80000F8
F80000F80000F8
F80000F80000F8
F80000F80000F8
F80000F80000F8
F80000F80000F8
F80000F80000F8
F80000000000F8
F80000000000F8
F80000000000F8
F80000000000F8
F80000000000F8
FFFFFFFFFFFFF8
FFFFFFFFFFFFF8
FFFFFFFFFFFFF8
FFFFFFFFFFFFF8
ENDCHAR
STARTCHAR 00F3
ENCODING 243
SWIDTH 697 0
DWIDTH 67 0
BBX 53 52 0 10
BITMAP
FFFFFFFFFFFFF8
FFFFFFFFFFFFF8
FFFFFFFFFFFFF8
FFFFFFFFFFFFF8
F80000000000F8
F80000000000F8
F80000000000F8
F80000000000F8
F80000000000F8
F80000F80000F8
F80000F80000F8
F80000F80000F8
F80000F80000F8
F80000F80000F8
F80000F80000F8
F80000F80000F8
F80000F80000F8
F80000F80000F8
F80000F80000F8
F80000F80000F8
F80000F80000F8
F80000F80000F8
F80000F80000F8
F87E00F803E0F8
F87E00F803E0F8
F87E00F803E0F8
F87E00F803E0F8
F87E00F803E0F8
F87FE0F87E00F8
F803E0F87E00F8
F803E0F87E00F8
F803E0F87E00F8
F803E0F87E00F8
F8001FFFC000F8
F8001FFFC000F8
F8001FFFC000F8
F8001FFFC000F8
F8001FFFC000F8
F80000F80000F8
F80000F80000F8
F80000F80000F8
F80000F80000F8
F80000F80000F8
F80000000000F8
F80000000000F8
F80000000000F8
F80000000000F8
F80000000000F8
FFFFFFFFFFFFF8
FFFFFFFFFFFFF8
FFFFFFFFFFFFF8
FFFFFFFFFFFFF8
ENDCHAR
STARTCHAR 00F4
ENCODING 244
SWIDTH 697 0
DWIDTH 67 0
BBX 53 52 0 10
BITMAP
FFFFFFFFFFFFF8
FFFFFFFFFFFFF8
FFFFFFFFFFFFF8
FFFFFFFFFFFFF8
F80000000000F8
F80000000000F8
F80000000000F8
F80000000000F8
F80000000000F8
F80000F80000F8
F80000F80000F8
F80000F80000F8
F80000F80000F8
F80000F80000F8
F8001F000000F8
F8001F000000F8
F8001F000000F8
F8001F000000F8
F8001F000000F8
F803E0000000F8
F803E0000000F8
F803E0000000F8
F803E0000000F8
F803FFFFFFE0F8
F87FFFFFFFE0F8
F87FFFFFFFE0F8
F87FFFFFFFE0F8
F87FFFFFFFE0F8
F87FE0000000F8
F803E0000000F8
F803E0000000F8
F803E0000000F8
F803E0000000F8
F8001F000000F8
F8001F000000F8
F8001F000000F8
F8001F000000F8
F8001F000000F8
F80000F80000F8
F80000F80000F8
F80000F80000F8
F80000F80000F8
F80000F80000F8
F80000000000F8
F80000000000F8
F80000000000F8
F80000000000F8
F80000000000F8
FFFFFFFFFFFFF8
FFFFFFFFFFFFF8
FFFFFFFFFFFFF8
FFFFFFFFFFFFF8
ENDCHAR
STARTCHAR 00F5
ENCODING 245
SWIDTH 697 0
DWIDTH 67 0
BBX 53 52 0 10
BITMAP
FFFFFFFFFFFFF8
FFFFFFFFFFFFF8
FFFFFFFFFFFFF8
FFFFFFFFFFFFF8
F80000000000F8
F80000000000F8
F80000000000F8
F80000000000F8
F80000000000F8
F80000F80000F8
F80000F80000F8
F80000F80000F8
F80000F80000F8
F80000F80000F8
F80000F80000F8
F80000F80000F8
F80000F80000F8
F80000F80000F8
F80000F80000F8
F803E0F87E00F8
F803E0F87E00F8
F803E0F87E00F8
F803E0F87E00F8
F803E0F87E00F8
F8001FFFC000F8
F8001FFFC000F8
F8001FFFC000F8
F8001FFFC000F8
F8001FF80000F8
F80000F80000F8
F80000F80000F8
F80000F80000F8
F80000F80000F8
F80000000000F8
F80000000000F8
F80000000000F8
F80000000000F8
F80000000000F8
F87FFFFFFFE0F8
F87FFFFFFFE0F8
F87FFFFFFFE0F8
F87FFFFFFFE0F8
F87FFFFFFFE0F8
F80000000000F8
F80000000000F8
F80000000000F8
F80000000000F8
F80000000000F8
FFFFFFFFFFFFF8
FFFFFFFFFFFFF8
FFFFFFFFFFFFF8
FFFFFFFFFFFFF8
ENDCHAR
STARTCHAR 00F6
ENCODING 246
SWIDTH 697 0
DWIDTH 67 0
BBX 53 52 0 10
BITMAP
FFFFFFFFFFFFF8
FFFFFFFFFFFFF8
FFFFFFFFFFFFF8
FFFFFFFFFFFFF8
F80000000000F8
F80000000000F8
F80000000000F8
F80000000000F8
F80000000000F8
F80000F80000F8
F80000F80000F8
F80000F80000F8
F80000F80000F8
F80000F80000F8
F8000007C000F8
F8000007C000F8
F8000007C000F8
F8000007C000F8
F8000007C000F8
F80000007E00F8
F80000007E00F8
F80000007E00F8
F80000007E00F8
F80000007FE0F8
F87FFFFFFFE0F8
F87FFFFFFFE0F8
F87FFFFFFFE0F8
F87FFFFFFFE0F8
F87FFFFFFE00F8
F80000007E00F8
F80000007E00F8
F80000007E00F8
F80000007E00F8
F8000007C000F8
F8000007C000F8
F8000007C000F8
F8000007C000F8
F8000007C000F8
F80000F80000F8
F80000F80000F8
F80000F80000F8
F80000F80000F8
F80000F80000F8
F80000000000F8
F80000000000F8
F80000000000F8
F80000000000F8
F80000000000F8
FFFFFFFFFFFFF8
FFFFFFFFFFFFF8
FFFFFFFFFFFFF8
FFFFFFFFFFFFF8
ENDCHAR
STARTCHAR 00F7
ENCODING 247
SWIDTH 697 0
DWIDTH 67 0
BBX 53 29 0 24
BITMAP
000000F8000000
000000F8000000
000000F8000000
000000F8000000
000000F8000000
00001F07C00000
00001F07C00000
00001F07C00000
00001F07C00000
00001F07C00000
0003E0007E0000
0003E0007E0000
0003E0007E0000
0003E0007E0000
0003E0007FE000
007E000003E000
007E000003E000
007E000003E000
007E000003E000
07C0000003FF00
07C00000001F00
07C00000001F00
07C00000001F00
07C00000001F00
FFFFFFFFFFFFF8
FFFFFFFFFFFFF8
FFFFFFFFFFFFF8
FFFFFFFFFFFFF8
FFFFFFFFFFFFF8
ENDCHAR
STARTCHAR 00F8
ENCODING 248
SWIDTH 697 0
DWIDTH 67 0
BBX 53 62 0 9
BITMAP
0003FFFFFE0000
0003FFFFFE0000
0003FFFFFE0000
0003FFFFFE0000
0003FFFFFE0000
007E000003E000
007E000003E000
007E000003E000
007E000003E000
007E1FFFC3E000
007E1FFFC3E000
007E1FFFC3E000
007E1FFFC3E000
007E1FFFC3E000
007E1F07C3E000
007E1F07C3E000
007E1F07C3E000
007E1F07C3E000
007E1F07C3E000
FFFFFFFFFFFFF8
FFFFFFFFFFFFF8
FFFFFFFFFFFFF8
FFFFFFFFFFFFF8
FFFFFFFFFFFFF8
F80000000000F8
F80000000000F8
F80000000000F8
F80000000000F8
F80000000000F8
FFFFFFF80000F8
FFFFFFF80000F8
FFFFFFF80000F8
FFFFFFF80000F8
FFFFFFF80000F8
F80000000000F8
F80000000000F8
F80000000000F8
F80000000000F8
FFFFFFF80000F8
FFFFFFF80000F8
FFFFFFF80000F8
FFFFFFF80000F8
FFFFFFF80000F8
F80000000000F8
F80000000000F8
F80000000000F8
F80000000000F8
F80000000000F8
FFFFFFF80000F8
FFFFFFF80000F8
FFFFFFF80000F8
FFFFFFF80000F8
FFFFFFF80000F8
F80000000000F8
F80000000000F8
F80000000000F8
F80000000000F8
F80000000000F8
FFFFFFFFFFFFF8
FFFFFFFFFFFFF8
FFFFFFFFFFFFF8
FFFFFFFFFFFFF8
ENDCHAR
STARTCHAR 00F9
ENCODING 249
SWIDTH 697 0
DWIDTH 67 0
BBX 53 52 0 10
BITMAP
FFFFFFFFFFFFF8
FFFFFFFFFFFFF8
FFFFFFFFFFFFF8
FFFFFFFFFFFFF8
F80000000000F8
F80000000000F8
F80000000000F8
F80000000000F8
F80000000000F8
F8001FFFC000F8
F8001FFFC000F8
F8001FFFC000F8
F8001FFFC000F8
F8001FFFC000F8
F803E0007E00F8
F803E0007E00F8
F803E0007E00F8
F803E0007E00F8
F803E0007E00F8
F80000007E00F8
F80000007E00F8
F80000007E00F8
F80000007E00F8
F80000007E00F8
F8000007C000F8
F8000007C000F8
F8000007C000F8
F8000007C000F8
F80000F80000F8
F80000F80000F8
F80000F80000F8
F80000F80000F8
F80000F80000F8
F80000000000F8
F80000000000F8
F80000000000F8
F80000000000F8
F80000000000F8
F80000F80000F8
F80000F80000F8
F80000F80000F8
F80000F80000F8
F80000F80000F8
F80000000000F8
F80000000000F8
F80000000000F8
F80000000000F8
F80000000000F8
FFFFFFFFFFFFF8
FFFFFFFFFFFFF8
FFFFFFFFFFFFF8
FFFFFFFFFFFFF8
ENDCHAR
STARTCHAR 00FA
ENCODING 250
SWIDTH 697 0
DWIDTH 67 0
BBX 53 52 0 10
BITMAP
FFFFFFFFFFFFF8
FFFFFFFFFFFFF8
FFFFFFFFFFFFF8
FFFFFFFFFFFFF8
F80000000000F8
F80000000000F8
F80000000000F8
F80000000000F8
F80000000000F8
F80000F80000F8
F80000F80000F8
F80000F80000F8
F80000F80000F8
F80000F80000F8
F80000000000F8
F80000000000F8
F80000000000F8
F80000000000F8
F80000000000F8
F803FFF80000F8
F803FFF80000F8
F803FFF80000F8
F803FFF80000F8
F803FFF80000F8
F80000F80000F8
F80000F80000F8
F80000F80000F8
F80000F80000F8
F80000F80000F8
F80000F80000F8
F80000F80000F8
F80000F80000F8
F80000F80000F8
F80000F80000F8
F80000F80000F8
F80000F80000F8
F80000F80000F8
F80000F80000F8
F803FFFFFC00F8
F803FFFFFC00F8
F803FFFFFC00F8
F803FFFFFC00F8
F803FFFFFC00F8
F80000000000F8
F80000000000F8
F80000000000F8
F80000000000F8
F80000000000F8
FFFFFFFFFFFFF8
FFFFFFFFFFFFF8
FFFFFFFFFFFFF8
FFFFFFFFFFFFF8
ENDCHAR
STARTCHAR 00FB
ENCODING 251
SWIDTH 802 0
DWIDTH 77 0
BBX 62 77 0 0
BITMAP
0000000003FFF800
0000000003FFF800
0000000003FFF800
0000000003FFF800
0000000003FFF800
0000000003FFF800
0000000003FFF800
0000000003FFF800
0000000003FFF800
0000000003FFF800
0000000003FFF800
0000000003FFF800
0000000003FFF800
0000000003FFF800
0000000003FFF800
0000000000000000
0000000000000000
0000000000000000
0000000000000000
003FFFFFFFFFFFFC
003FFFFFFFFFFFFC
003FFFFFFFFFFFFC
003FFFFFFFFFFFFC
003FFFFFFFFFFFFC
0000000003FFF83C
0000000003FFF83C
0000000003FFF83C
0000000003FFF83C
0000000003FFF83C
003C000003FFF83C
003C000003FFF83C
003C000003FFF83C
003C000003FFF83C
003C000003FFF83C
0000000003FFF83C
0000000003FFF83C
0000000003FFF83C
0000000003FFF83C
0000000003FFF83C
003C000003FFF83C
003C000003FFF83C
003C000003FFF83C
003C000003FFF83C
0000000003E0F800
0000000003E0F800
0000000003E0F800
0000000003E0F800
0000000003E0F800
F8001F0003E0F800
F8001F0003E0F800
F8001F0003E0F800
F8001F0003E0F800
F8001F0003E0F800
F8001F0003E0F800
F8001F0003E0F800
F8001F0003E0F800
F8001F0003E0F800
F8001F0003E0F800
F8001F0003E0F800
F8001F0003E0F800
F8001F0003E0F800
F8001F0003E0F800
F8001F0003E0F800
F8001F0003E0F800
F8001F0003E0F800
F8001F0003E0F800
F8001F0003E0F800
F8001F0003E0F800
F8001F0003E0F800
F8001F0003E0F800
F8001F0003E0F800
F8001F0003E0F800
FFFFFF0003E0F800
FFFFFF0003E0F800
FFFFFF0003E0F800
FFFFFF0003E0F800
FFFFFF0003E0F800
ENDCHAR
STARTCHAR 00FC
ENCODING 252
SWIDTH 802 0
DWIDTH 77 0
BBX 62 77 0 0
BITMAP
00001FFFC0000000
00001FFFC0000000
00001FFFC0000000
00001FFFC0000000
00001FFFC0000000
00001FFFC0000000
00001FFFC0000000
00001FFFC0000000
00001FFFC0000000
00001FFFC0000000
00001FFFC0000000
00001FFFC0000000
00001FFFC0000000
00001FFFC0000000
00001FFFC0000000
0000000000000000
0000000000000000
0000000000000000
0000000000000000
00001FF800000000
00001FF800000000
00001FF800000000
00001FF800000000
00001FF800000000
00001FF800000000
00001FF800000000
00001FF800000000
00001FF800000000
00001FF800000000
00001FFFFFFFF800
00001FFFFFFFF800
00001FFFFFFFF800
00001FFFFFFFF800
00001FFFFFFFF800
007E1FF800000000
007E1FF800000000
007E1FF800000000
007E1FF800000000
007E1FF800000000
07C01FF800000000
07C01FF800000000
07C01FF800000000
07C01FF800000000
F8001FFFFFFFF800
F8001FFFFFFFF800
F8001FFFFFFFF800
F8001FFFFFFFF800
F8001FFFFFFFF800
F8001FFFFFFFF800
F8001FFFFFFFF800
F8001FFFFFFFF800
F8001FFFFFFFF800
F8001FFFFFFFF800
F80000000000F800
F80000000000F800
F80000000000F800
F80000000000F800
F80000000000F800
F80000000000F800
F80000000000F800
F80000000000F800
F80000000000F800
FFC0000003E0F800
07C0000003E0F800
07C0000003E0F800
07C0000003E0F800
07C0000003E0F800
07FE00007E00FFFC
007E00007E00FFFC
007E00007E00FFFC
007E00007E00FFFC
007E00007E00FFFC
0003FFFFC0000000
0003FFFFC0000000
0003FFFFC0000000
0003FFFFC0000000
0003FFFFC0000000
ENDCHAR
ENDFONT
